<svg width="32" height="32" viewBox="0 0 32 32" fill="none" xmlns="http://www.w3.org/2000/svg">
<path d="M18.4265 29.3332H13.5732C12.9467 29.3332 12.4046 28.8972 12.2706 28.2852L11.7279 25.7732C11.004 25.456 10.3175 25.0593 9.68124 24.5905L7.23191 25.3705C6.63458 25.561 5.98523 25.3096 5.67191 24.7665L3.23991 20.5652C2.93003 20.0218 3.03679 19.3365 3.49724 18.9132L5.39724 17.1798C5.31084 16.3946 5.31084 15.6024 5.39724 14.8172L3.49724 13.0878C3.03611 12.6643 2.92931 11.9781 3.23991 11.4345L5.66658 7.2305C5.9799 6.68744 6.62924 6.43602 7.22658 6.6265L9.67591 7.4065C10.0013 7.16538 10.3401 6.9428 10.6906 6.73984C11.027 6.55009 11.3733 6.3783 11.7279 6.22517L12.2719 3.71584C12.4053 3.1038 12.9468 2.66716 13.5732 2.6665H18.4265C19.0529 2.66716 19.5944 3.1038 19.7279 3.71584L20.2772 6.2265C20.6516 6.3912 21.0163 6.57728 21.3692 6.78384C21.6985 6.97425 22.0168 7.18302 22.3225 7.40917L24.7732 6.62917C25.3702 6.4394 26.0187 6.69072 26.3319 7.23317L28.7585 11.4372C29.0684 11.9805 28.9617 12.6659 28.5012 13.0892L26.6012 14.8225C26.6876 15.6077 26.6876 16.4 26.6012 17.1852L28.5012 18.9185C28.9617 19.3418 29.0684 20.0272 28.7585 20.5705L26.3319 24.7745C26.0187 25.3169 25.3702 25.5682 24.7732 25.3785L22.3225 24.5985C22.0124 24.8269 21.6903 25.0384 21.3572 25.2318C21.0076 25.4344 20.6471 25.6173 20.2772 25.7798L19.7279 28.2852C19.5939 28.8966 19.0525 29.3326 18.4265 29.3332ZM10.1599 21.6385L11.2532 22.4385C11.4997 22.6201 11.7566 22.787 12.0226 22.9385C12.2728 23.0834 12.5305 23.2152 12.7946 23.3332L14.0385 23.8785L14.6479 26.6665H17.3545L17.9639 23.8772L19.2079 23.3318C19.7509 23.0924 20.2664 22.7946 20.7452 22.4438L21.8399 21.6438L24.5612 22.5105L25.9145 20.1665L23.8039 18.2425L23.9532 16.8932C24.0188 16.303 24.0188 15.7073 23.9532 15.1172L23.8039 13.7678L25.9159 11.8398L24.5612 9.4945L21.8399 10.3612L20.7452 9.56117C20.2663 9.20878 19.7509 8.90884 19.2079 8.6665L17.9639 8.12117L17.3545 5.33317H14.6479L14.0359 8.1225L12.7946 8.6665C12.5303 8.78256 12.2726 8.91298 12.0226 9.05717C11.7582 9.20828 11.5027 9.37432 11.2572 9.5545L10.1626 10.3545L7.44258 9.48784L6.08658 11.8398L8.19724 13.7612L8.04791 15.1118C7.98231 15.702 7.98231 16.2977 8.04791 16.8878L8.19724 18.2372L6.08658 20.1612L7.43991 22.5052L10.1599 21.6385ZM15.9945 21.3332C13.0491 21.3332 10.6612 18.9453 10.6612 15.9998C10.6612 13.0543 13.0491 10.6665 15.9945 10.6665C18.9401 10.6665 21.3279 13.0543 21.3279 15.9998C21.3243 18.9438 18.9385 21.3294 15.9945 21.3332ZM15.9945 13.3332C14.5377 13.3346 13.3517 14.5049 13.3309 15.9616C13.31 17.4182 14.462 18.6221 15.9181 18.6653C17.3743 18.7085 18.5957 17.5752 18.6612 16.1198V16.6532V15.9998C18.6612 14.527 17.4673 13.3332 15.9945 13.3332Z" fill="#FF2C2C"/>
</svg>
