<svg width="20" height="20" viewBox="0 0 20 20" fill="none" xmlns="http://www.w3.org/2000/svg">
<path d="M11.8331 19.1667H2.66643C2.17517 19.1837 1.69887 18.9961 1.35128 18.6485C1.0037 18.3009 0.816033 17.8246 0.833102 17.3333V8.16667C0.816033 7.67541 1.0037 7.19911 1.35128 6.85153C1.69887 6.50394 2.17517 6.31627 2.66643 6.33335H6.3331V2.66668C6.31603 2.17541 6.5037 1.69911 6.85128 1.35153C7.19887 1.00394 7.67517 0.816269 8.16644 0.833347H17.3331C17.8244 0.816269 18.3007 1.00394 18.6483 1.35153C18.9959 1.69911 19.1835 2.17541 19.1664 2.66668V11.8333C19.1832 12.3245 18.9955 12.8007 18.648 13.1482C18.3005 13.4957 17.8243 13.6834 17.3331 13.6667H13.6664V17.3333C13.6832 17.8245 13.4955 18.3007 13.148 18.6482C12.8005 18.9957 12.3243 19.1834 11.8331 19.1667ZM2.66643 8.16667V17.3333H11.8331V13.6667H8.16644C7.67525 13.6834 7.19911 13.4957 6.85159 13.1482C6.50406 12.8007 6.31631 12.3245 6.3331 11.8333V8.16667H2.66643ZM8.16644 2.66668V11.8333H17.3331V2.66668H8.16644Z" fill="#FF2C2C"/>
</svg>
