<svg width="32" height="32" viewBox="0 0 32 32" fill="none" xmlns="http://www.w3.org/2000/svg">
<path d="M16 29.3332C8.63622 29.3332 2.66669 23.3636 2.66669 15.9998C2.66669 8.63604 8.63622 2.6665 16 2.6665C23.3638 2.6665 29.3334 8.63604 29.3334 15.9998C29.3252 23.3602 23.3604 29.325 16 29.3332ZM5.33335 16.2292C5.39645 22.0974 10.1882 26.8125 16.0567 26.7812C21.9254 26.7494 26.666 21.9832 26.666 16.1145C26.666 10.2459 21.9254 5.47953 16.0567 5.44784C10.1882 5.41645 5.39645 10.1315 5.33335 15.9998V16.2292ZM17.3334 22.6665H14.6667V17.3332H9.33335V14.6665H14.6667V9.33317H17.3334V14.6665H22.6667V17.3332H17.3334V22.6665Z" fill="#FF2C2C"/>
</svg>
