<svg width="56" height="56" viewBox="0 0 56 56" fill="none" xmlns="http://www.w3.org/2000/svg">
<path d="M51.0781 2.54663H4.92188C2.20795 2.54663 0 4.75458 0 7.46851V33.7185C0 36.4324 2.20795 38.6404 4.92188 38.6404H7.76562V40.1716C7.76562 43.3579 9.92589 46.5373 14.1865 49.6213C17.1605 51.7741 20.0968 53.0981 20.2203 53.1533L20.8906 53.4535L21.561 53.1533C21.6845 53.0981 24.6207 51.774 27.5948 49.6213C31.8554 46.5373 34.0156 43.3579 34.0156 40.1716V38.6404H51.0781C53.792 38.6404 56 36.4324 56 33.7185V7.46851C56 4.75458 53.792 2.54663 51.0781 2.54663V2.54663ZM30.7344 40.1716C30.7344 42.7439 28.0032 45.2685 25.712 46.9334C23.8092 48.3161 21.8764 49.3447 20.89 49.8364C19.9127 49.3498 18.0072 48.3363 16.1104 46.9633C13.8005 45.2913 11.0469 42.7556 11.0469 40.1716V27.9493C13.652 27.3317 15.7069 25.2767 16.3245 22.6716H25.4566C26.0742 25.2767 28.1292 27.3317 30.7343 27.9493V40.1716H30.7344ZM52.7188 33.7185C52.7188 34.6231 51.9828 35.3591 51.0781 35.3591H34.0156V24.8591H32.375C30.2642 24.8591 28.5469 23.1418 28.5469 21.031V19.3904H13.2344V21.031C13.2344 23.1418 11.5171 24.8591 9.40625 24.8591H7.76562V35.3591H4.92188C4.01723 35.3591 3.28125 34.6231 3.28125 33.7185V7.46851C3.28125 6.56386 4.01723 5.82788 4.92188 5.82788H51.0781C51.9828 5.82788 52.7188 6.56386 52.7188 7.46851V33.7185Z" fill="#FF2C2C"/>
<path d="M46.0469 25.5154H49.3281V28.7966H46.0469V25.5154Z" fill="#FF2C2C"/>
<path d="M44.4062 9.10913C43.1466 9.10913 41.9965 9.58535 41.125 10.3664C40.2535 9.58524 39.1034 9.10913 37.8438 9.10913C35.1298 9.10913 32.9219 11.3171 32.9219 14.031C32.9219 16.7449 35.1298 18.9529 37.8438 18.9529C39.1034 18.9529 40.2535 18.4767 41.125 17.6956C41.9965 18.4768 43.1466 18.9529 44.4062 18.9529C47.1202 18.9529 49.3281 16.7449 49.3281 14.031C49.3281 11.3171 47.1202 9.10913 44.4062 9.10913V9.10913ZM37.8438 15.6716C36.9391 15.6716 36.2031 14.9356 36.2031 14.031C36.2031 13.1264 36.9391 12.3904 37.8438 12.3904C38.7484 12.3904 39.4844 13.1264 39.4844 14.031C39.4844 14.9356 38.7484 15.6716 37.8438 15.6716ZM44.4062 15.6716C43.5016 15.6716 42.7656 14.9356 42.7656 14.031C42.7656 13.1264 43.5016 12.3904 44.4062 12.3904C45.3109 12.3904 46.0469 13.1264 46.0469 14.031C46.0469 14.9356 45.3109 15.6716 44.4062 15.6716Z" fill="#FF2C2C"/>
<path d="M39.4844 25.5154H42.7656V28.7966H39.4844V25.5154Z" fill="#FF2C2C"/>
</svg>
