<svg width="24" height="24" viewBox="0 0 24 24" fill="none" xmlns="http://www.w3.org/2000/svg">
<path d="M24 12C24 18.6274 18.6274 24 12 24C5.37258 24 0 18.6274 0 12C0 5.37258 5.37258 0 12 0C18.6274 0 24 5.37258 24 12ZM3 12C3 16.9706 7.02944 21 12 21C16.9706 21 21 16.9706 21 12C21 7.02944 16.9706 3 12 3C7.02944 3 3 7.02944 3 12Z" fill="#241E1E"/>
<path d="M12 24C9.62662 24 7.30655 23.2962 5.33316 21.9776C3.35977 20.6591 1.8217 18.7849 0.913445 16.5922C0.0051938 14.3995 -0.232446 11.9867 0.230577 9.65891C0.6936 7.33114 1.83649 5.19295 3.51472 3.51472C5.19295 1.83649 7.33115 0.693599 9.65892 0.230576C11.9867 -0.232446 14.3995 0.00519433 16.5922 0.913446C18.7849 1.8217 20.6591 3.35977 21.9776 5.33316C23.2962 7.30655 24 9.62663 24 12H21C21 10.22 20.4722 8.47991 19.4832 6.99987C18.4943 5.51983 17.0887 4.36627 15.4442 3.68508C13.7996 3.0039 11.99 2.82567 10.2442 3.17293C8.49836 3.5202 6.89471 4.37737 5.63604 5.63604C4.37737 6.89471 3.5202 8.49836 3.17293 10.2442C2.82567 11.99 3.0039 13.7996 3.68508 15.4441C4.36627 17.0887 5.51982 18.4943 6.99987 19.4832C8.47991 20.4722 10.22 21 12 21L12 24Z" fill="#FF2C2C"/>
</svg>
