<svg width="32" height="32" viewBox="0 0 32 32" fill="none" xmlns="http://www.w3.org/2000/svg">
<path d="M7.33333 27.3332C6.59696 27.3332 6 26.7363 6 25.9999V5.9999C6 5.26352 6.59696 4.66654 7.33333 4.66654H15.84C16.3469 4.66304 16.8119 4.94723 17.04 5.3999L18 7.33323H24.6667C25.4031 7.33323 26 7.93019 26 8.66656V19.3332C26 20.0696 25.4031 20.6666 24.6667 20.6666H17.48C16.9779 20.6651 16.5193 20.3816 16.2933 19.9332L15.3333 17.9999H8.66667V25.9999C8.66667 26.7363 8.06971 27.3332 7.33333 27.3332ZM8.66667 7.33323V15.3332H16.6667L18 17.9999H23.3333V9.9999H16.6667L15.3333 7.33323H8.66667Z" fill="#FF2C2C"/>
</svg>
