<svg width="32" height="32" viewBox="0 0 32 32" fill="none" xmlns="http://www.w3.org/2000/svg">
<path d="M26.6667 28H5.33333C4.59696 28 4 27.4031 4 26.6667V16.9333C4 16.5492 4.16576 16.1837 4.45467 15.9307L6.66667 14V5.33333C6.66667 4.59696 7.26363 4 8 4H26.6667C27.4031 4 28 4.59696 28 5.33333V26.6667C28 27.4031 27.4031 28 26.6667 28ZM12 9.772C12.3228 9.77237 12.6346 9.88987 12.8773 10.1027L19.544 15.936C19.832 16.1876 19.9981 16.5509 20 16.9333V25.3333H25.3333V6.66667H9.33333V11.6667L11.1213 10.1013C11.3646 9.88872 11.6769 9.77168 12 9.772ZM10.6667 21.3333H13.3333V25.3333H17.3333V17.5427L12 12.876L6.66667 17.5427V25.3333H10.6667V21.3333Z" fill="#FF2C2C"/>
</svg>
