<svg width="24" height="24" viewBox="0 0 24 24" fill="none" xmlns="http://www.w3.org/2000/svg">
<path d="M20.935 12.646C20.8015 12.2425 20.5145 11.9078 20.1361 11.7143C19.7577 11.5208 19.3183 11.4841 18.913 11.612L17.281 12.144C16.926 11.045 16.546 9.87604 16.189 8.77904L16.195 8.77704L16.191 8.76904L17.804 8.24604C18.2075 8.11207 18.5421 7.82489 18.7357 7.44644C18.9293 7.06799 18.9664 6.6286 18.839 6.22304C18.7049 5.81932 18.4173 5.48457 18.0384 5.2911C17.6595 5.09764 17.2197 5.06097 16.814 5.18904L15.193 5.71604L14.674 4.11204C14.5401 3.70839 14.2527 3.37366 13.8739 3.18018C13.4952 2.9867 13.0556 2.95001 12.65 3.07804C12.2464 3.21196 11.9117 3.4994 11.7184 3.87818C11.5251 4.25695 11.4887 4.69661 11.617 5.10204L12.139 6.71104L8.77101 7.80304L8.24701 6.19204C8.11327 5.7887 7.82623 5.45415 7.4479 5.26068C7.06956 5.06721 6.6303 5.03034 6.22501 5.15804C5.82128 5.29154 5.48639 5.57871 5.29286 5.95735C5.09933 6.33598 5.06274 6.77561 5.19101 7.18104L5.71501 8.79704L4.05301 9.33804C3.672 9.47753 3.35811 9.7564 3.17473 10.1183C2.99135 10.4803 2.95214 10.8983 3.06501 11.288C3.31501 12.144 4.21701 12.661 5.04401 12.38C5.05001 12.38 5.70201 12.171 6.70901 11.844L7.80801 15.23H7.80601V15.232L6.13601 15.777C5.75497 15.9161 5.44102 16.1948 5.25777 16.5567C5.07451 16.9186 5.03563 17.3366 5.14901 17.726C5.39901 18.583 6.29901 19.1 7.12801 18.819C7.13501 18.819 7.78701 18.608 8.79301 18.281L8.79601 18.286C8.79877 18.2858 8.80148 18.2852 8.80401 18.284L9.34301 19.941C9.4819 20.3223 9.76048 20.6365 10.1223 20.8202C10.4842 21.0038 10.9023 21.0431 11.292 20.93C12.149 20.68 12.665 19.779 12.386 18.951C12.386 18.945 12.177 18.297 11.853 17.297L11.85 17.288C12.954 16.93 14.126 16.549 15.226 16.19L15.769 17.858C15.9083 18.239 16.1869 18.553 16.5487 18.7365C16.9104 18.9201 17.3283 18.9596 17.718 18.847C18.574 18.596 19.092 17.695 18.81 16.868C18.81 16.861 18.601 16.209 18.275 15.205L18.294 15.199L18.291 15.192L19.9 14.67C20.3037 14.5361 20.6385 14.2487 20.8321 13.8701C21.0258 13.4914 21.0627 13.0517 20.935 12.646V12.646ZM10.86 14.238L9.76301 10.861C9.76471 10.8609 9.76639 10.8606 9.76801 10.86V10.854C10.866 10.498 12.036 10.119 13.131 9.76204L14.229 13.139L10.86 14.238V14.238Z" fill="#FF2C2C"/>
</svg>
