<svg width="163" height="160" viewBox="0 0 163 160" fill="none" xmlns="http://www.w3.org/2000/svg">
<path d="M163 122.368H0V122.448H163V122.368Z" fill="#EBEBEB"/>
<path d="M137.755 124.547H129.288V124.627H137.755V124.547Z" fill="#EBEBEB"/>
<path d="M102.905 125.123H100.072V125.203H102.905V125.123Z" fill="#EBEBEB"/>
<path d="M146.667 127.517H140.411V127.597H146.667V127.517Z" fill="#EBEBEB"/>
<path d="M22.3994 125.085H17.1019V125.165H22.3994V125.085Z" fill="#EBEBEB"/>
<path d="M36.1501 125.085H24.1436V125.165H36.1501V125.085Z" fill="#EBEBEB"/>
<path d="M96.2809 126.435H65.7412V126.515H96.2809V126.435Z" fill="#EBEBEB"/>
<path d="M77.2621 108.096H14.3147C13.8216 108.095 13.349 107.902 13.0006 107.56C12.6522 107.217 12.4565 106.753 12.4565 106.269V19.4112C12.4608 18.9299 12.6584 18.4698 13.0063 18.1306C13.3542 17.7915 13.8244 17.6008 14.3147 17.6H77.2621C77.7558 17.6 78.2292 17.7925 78.5783 18.1352C78.9274 18.4778 79.1236 18.9426 79.1236 19.4272V106.269C79.1236 106.753 78.9274 107.218 78.5783 107.561C78.2292 107.904 77.7558 108.096 77.2621 108.096ZM14.3147 17.664C13.8432 17.6649 13.3913 17.8493 13.0582 18.1769C12.7251 18.5045 12.538 18.9484 12.538 19.4112V106.269C12.538 106.732 12.7251 107.176 13.0582 107.503C13.3913 107.831 13.8432 108.015 14.3147 108.016H77.2621C77.7339 108.015 78.1861 107.831 78.5198 107.503C78.8534 107.176 79.0412 106.732 79.042 106.269V19.4112C79.0412 18.9481 78.8534 18.5042 78.5198 18.1767C78.1861 17.8492 77.7339 17.6649 77.2621 17.664H14.3147Z" fill="#EBEBEB"/>
<path d="M147.779 108.096H84.8285C84.3351 108.095 83.8621 107.902 83.5132 107.56C83.1643 107.217 82.9679 106.753 82.967 106.269V19.4112C82.9722 18.9296 83.1705 18.4695 83.5189 18.1304C83.8674 17.7914 84.3379 17.6008 84.8285 17.6H147.779C148.269 17.6017 148.738 17.7927 149.085 18.1318C149.433 18.4708 149.63 18.9305 149.634 19.4112V106.269C149.634 106.752 149.439 107.216 149.091 107.559C148.743 107.901 148.272 108.094 147.779 108.096ZM84.8285 17.664C84.3567 17.6649 83.9044 17.8492 83.5708 18.1767C83.2372 18.5042 83.0494 18.9481 83.0485 19.4112V106.269C83.0494 106.732 83.2372 107.176 83.5708 107.503C83.9044 107.831 84.3567 108.015 84.8285 108.016H147.779C148.251 108.015 148.703 107.831 149.037 107.503C149.37 107.176 149.558 106.732 149.559 106.269V19.4112C149.558 18.9481 149.37 18.5042 149.037 18.1767C148.703 17.8492 148.251 17.6649 147.779 17.664H84.8285Z" fill="#EBEBEB"/>
<path d="M53.8618 122.368H52.5578L48.8218 104.32L48.1698 101.158L44.1013 81.488H28.4892L20.0328 122.368H18.7288L27.3449 80.7296C27.3765 80.589 27.4554 80.4629 27.569 80.3717C27.6826 80.2805 27.8242 80.2296 27.9709 80.2272H44.6197C44.7668 80.2268 44.9095 80.2767 45.0231 80.3684C45.1368 80.4601 45.2143 80.5879 45.2423 80.7296L48.8283 98.0096L49.4803 101.168L53.8618 122.368Z" fill="#F0F0F0" fill-opacity="0.15"/>
<path d="M78.9148 122.368H77.6108L69.1348 81.4848H53.5455L49.4737 101.165L48.8217 104.317L45.089 122.368H43.785L48.1697 101.155L48.8217 98.0064L52.4077 80.7264C52.4393 80.5857 52.5182 80.4596 52.6318 80.3684C52.7454 80.2773 52.8869 80.2264 53.0337 80.224H69.6825C69.8297 80.2257 69.9721 80.2762 70.0863 80.3675C70.2006 80.4587 70.28 80.5852 70.3116 80.7264L78.9148 122.368Z" fill="#F0F0F0" fill-opacity="0.15"/>
<path d="M26.1257 75.4624H71.5147C72.5522 75.4624 73.5472 75.867 74.2809 76.5871C75.0145 77.3073 75.4267 78.284 75.4267 79.3024V79.4368C75.4258 79.8091 75.2747 80.166 75.0065 80.4292C74.7383 80.6925 74.3748 80.8408 73.9955 80.8416H23.6318C23.2519 80.8416 22.8876 80.6937 22.6187 80.4304C22.3498 80.167 22.1983 79.8097 22.1974 79.4368V79.3024C22.1974 78.7968 22.2991 78.2961 22.4967 77.8292C22.6943 77.3623 22.984 76.9382 23.3489 76.5815C23.7139 76.2247 24.1471 75.9422 24.6236 75.7501C25.1001 75.5581 25.6106 75.4603 26.1257 75.4624Z" fill="#F0F0F0" fill-opacity="0.15"/>
<path d="M138.869 120.048H147.476V65.5776H138.869V120.048Z" fill="#F0F0F0" fill-opacity="0.15"/>
<path d="M82.6605 122.368L145.823 122.368V120.048L82.6605 120.048V122.368Z" fill="#F0F0F0" fill-opacity="0.15"/>
<path d="M138.873 65.5744H81.011V120.045H138.873V65.5744Z" fill="#F5F5F5" fill-opacity="0.1"/>
<path d="M135.489 70.0832H84.3949V74.4448H135.489V70.0832Z" fill="#F0F0F0" fill-opacity="0.15"/>
<path d="M135.486 76.784H84.3916V115.536H135.486V76.784Z" fill="#F0F0F0" fill-opacity="0.15"/>
<path d="M95.6353 72.5632H124.245C124.326 72.5632 124.403 72.5319 124.461 72.4762C124.518 72.4205 124.551 72.3448 124.552 72.2656C124.547 72.1873 124.513 72.1134 124.457 72.058C124.4 72.0025 124.325 71.9694 124.245 71.9648H95.6353C95.5546 71.9656 95.4775 71.9977 95.4208 72.054C95.364 72.1103 95.3321 72.1864 95.3322 72.2656C95.3322 72.3047 95.34 72.3434 95.3552 72.3795C95.3705 72.4156 95.3928 72.4484 95.421 72.476C95.4491 72.5037 95.4825 72.5256 95.5193 72.5405C95.5561 72.5555 95.5955 72.5632 95.6353 72.5632Z" fill="#F5F5F5" fill-opacity="0.1"/>
<path d="M96.1699 93.6352H123.71C123.933 93.6344 124.146 93.547 124.303 93.3923C124.46 93.2375 124.548 93.028 124.548 92.8096C124.547 92.5918 124.459 92.3831 124.302 92.229C124.145 92.075 123.932 91.9881 123.71 91.9872H96.1699C95.9474 91.9872 95.734 92.0738 95.5764 92.2279C95.4187 92.382 95.3297 92.5912 95.3289 92.8096C95.3297 93.0283 95.4186 93.2378 95.5762 93.3925C95.7337 93.5471 95.9471 93.6344 96.1699 93.6352Z" fill="#F5F5F5" fill-opacity="0.1"/>
<path d="M135.032 46.3264L136.447 50.1152H135.032L126.374 46.3264H135.032Z" fill="#F5F5F5" fill-opacity="0.1"/>
<path d="M136.447 46.3264V50.1152L127.789 46.3264H136.447Z" fill="#E6E6E6" fill-opacity="0.1"/>
<path d="M101.076 46.3264L102.488 50.1152H101.076L92.4177 46.3264H101.076Z" fill="#F5F5F5" fill-opacity="0.1"/>
<path d="M102.488 46.3264V50.1152L93.8293 46.3264H102.488Z" fill="#E6E6E6" fill-opacity="0.1"/>
<path d="M142.804 43.6192H133.386V46.5024H142.804V43.6192Z" fill="#E6E6E6" fill-opacity="0.1"/>
<path d="M86.5627 46.5056L133.386 46.5056V43.6224L86.5627 43.6224V46.5056Z" fill="#F5F5F5" fill-opacity="0.1"/>
<path d="M124.783 34.2016C125.539 31.2704 119.688 27.2928 112.669 32.208C120.118 34 123.463 39.3088 124.783 34.2016Z" fill="#EBEBEB"/>
<path d="M121.904 34.3936C120.144 30.1472 111.854 29.5936 109.875 41.056C117.738 37.6672 124.969 41.7952 121.904 34.3936Z" fill="#E0E0E0" fill-opacity="0.05"/>
<path d="M112.144 43.52C110.599 41.984 106.165 41.92 96.2483 43.6096C104.118 44.0256 114.84 46.208 112.144 43.52Z" fill="#E0E0E0" fill-opacity="0.05"/>
<path d="M126.364 43.7216C125.357 43.0624 129.041 42.4576 134.113 43.6C130.074 43.952 128.118 44.8704 126.364 43.7216Z" fill="#E0E0E0" fill-opacity="0.05"/>
<path d="M121.027 34.3296C122.814 31.1072 132.653 32.1888 131.026 41.6096C125.083 38.2272 117.917 39.9456 121.027 34.3296Z" fill="#E0E0E0" fill-opacity="0.05"/>
<path d="M117.621 43.6192H125.344L125.927 38.4896H117.041L117.621 43.6192Z" fill="#E6E6E6" fill-opacity="0.1"/>
<path d="M116.953 39.408H126.015C126.168 39.408 126.315 39.3483 126.423 39.2421C126.532 39.1359 126.592 38.9918 126.592 38.8416C126.592 38.6914 126.532 38.5473 126.423 38.4411C126.315 38.3349 126.168 38.2752 126.015 38.2752H116.953C116.799 38.2752 116.653 38.3349 116.544 38.4411C116.436 38.5473 116.375 38.6914 116.375 38.8416C116.375 38.9918 116.436 39.1359 116.544 39.2421C116.653 39.3483 116.799 39.408 116.953 39.408Z" fill="#E6E6E6" fill-opacity="0.1"/>
<path d="M17.8843 66.288H73.5325V25.0688L17.8843 25.0688L17.8843 66.288Z" fill="#E6E6E6" fill-opacity="0.1"/>
<path d="M16.9031 66.288H72.5513V25.0688L16.9031 25.0688L16.9031 66.288Z" fill="#F5F5F5" fill-opacity="0.1"/>
<path d="M70.7844 64.816V26.5408L18.6635 26.5408V64.816H70.7844Z" fill="#FAFAFA" fill-opacity="0.15"/>
<path d="M54.4583 64.816L61.8357 26.5408H34.9929L27.6155 64.816H54.4583Z" fill="white" fill-opacity="0.15"/>
<path d="M19.4067 64.816L19.4067 26.5408H18.6635L18.6635 64.816H19.4067Z" fill="#E6E6E6" fill-opacity="0.1"/>
<path d="M17.6301 57.952L71.821 57.952V55.9744L17.6301 55.9744V57.952Z" fill="#F5F5F5" fill-opacity="0.1"/>
<g opacity="0.9">
<path opacity="0.9" d="M71.971 27.488H16.2478V30.528H71.971V27.488Z" fill="#E0E0E0" fill-opacity="0.05"/>
<path opacity="0.9" d="M71.971 30.9952H16.2478V34.0352H71.971V30.9952Z" fill="#E0E0E0" fill-opacity="0.05"/>
<path opacity="0.9" d="M71.971 34.5024H16.2478V37.5424H71.971V34.5024Z" fill="#E0E0E0" fill-opacity="0.05"/>
<path opacity="0.9" d="M71.971 38.0064H16.2478V41.0464H71.971V38.0064Z" fill="#E0E0E0" fill-opacity="0.05"/>
<path opacity="0.9" d="M71.971 41.5136H16.2478V44.5536H71.971V41.5136Z" fill="#E0E0E0" fill-opacity="0.05"/>
<path opacity="0.9" d="M71.971 45.0176H16.2478V48.0576H71.971V45.0176Z" fill="#E0E0E0" fill-opacity="0.05"/>
<path opacity="0.9" d="M71.971 48.5248H16.2478V51.5648H71.971V48.5248Z" fill="#E0E0E0" fill-opacity="0.05"/>
<path opacity="0.9" d="M71.971 52.032H16.2478V55.072H71.971V52.032Z" fill="#E0E0E0" fill-opacity="0.05"/>
</g>
<path d="M132.376 65.5744H117.262L116.838 55.0752H131.955L132.376 65.5744Z" fill="#E0E0E0" fill-opacity="0.05"/>
<path d="M130.863 65.5744H114.152L115.668 52.9472H132.376L130.863 65.5744Z" fill="#EBEBEB"/>
<path d="M115.052 64.7872L116.375 53.7344H131.479L130.152 64.7872H115.052Z" fill="#FAFAFA" fill-opacity="0.15"/>
<path opacity="0.6" d="M119.772 65.5744H107.815L107.482 57.2704H119.437L119.772 65.5744Z" fill="#E0E0E0" fill-opacity="0.05"/>
<path d="M118.556 65.5744H105.409L106.504 56.4416H119.652L118.556 65.5744Z" fill="#E0E0E0" fill-opacity="0.05"/>
<path d="M106.309 64.7872L107.212 57.232H118.752L117.849 64.7872H106.309Z" fill="#F0F0F0" fill-opacity="0.15"/>
<path d="M81.5 136.819C116.409 136.819 144.708 135.197 144.708 133.197C144.708 131.196 116.409 129.574 81.5 129.574C46.5911 129.574 18.2919 131.196 18.2919 133.197C18.2919 135.197 46.5911 136.819 81.5 136.819Z" fill="#F5F5F5" fill-opacity="0.1"/>
<path d="M135.815 125.315H61.5781L61.3075 93.8368C61.2961 93.1007 61.4354 92.3699 61.7174 91.6876C61.9993 91.0054 62.418 90.3858 62.9486 89.8655C63.4792 89.3453 64.111 88.935 64.8063 88.659C65.5016 88.3831 66.2463 88.2471 66.9962 88.2592H134.498C135.299 88.2451 136.094 88.4029 136.827 88.7216C137.56 89.0403 138.213 89.5121 138.74 90.1042C139.268 90.6963 139.658 91.3944 139.882 92.1496C140.107 92.9048 140.16 93.6991 140.04 94.4768L135.815 125.315Z" fill="#FF2C2C"/>
<path d="M139.362 89.5808C138.752 88.9072 138.002 88.3695 137.164 88.0035C136.325 87.6376 135.416 87.452 134.498 87.4592H130.074V87.1392H134.498C135.463 87.1329 136.418 87.3295 137.299 87.7159C138.18 88.1023 138.967 88.6694 139.606 89.3792L139.362 89.5808Z" fill="#FF2C2C"/>
<path d="M128.229 87.1392H125.986V87.4592H128.229V87.1392Z" fill="#FF2C2C"/>
<path opacity="0.1" d="M135.815 125.315H61.5781L61.3075 93.8368C61.2961 93.1007 61.4354 92.3699 61.7174 91.6876C61.9993 91.0054 62.418 90.3858 62.9486 89.8655C63.4792 89.3453 64.111 88.935 64.8063 88.659C65.5016 88.3831 66.2463 88.2471 66.9962 88.2592H134.498C135.299 88.2451 136.094 88.4029 136.827 88.7216C137.56 89.0403 138.213 89.5121 138.74 90.1042C139.268 90.6963 139.658 91.3944 139.882 92.1496C140.107 92.9048 140.16 93.6991 140.04 94.4768L135.815 125.315Z" fill="white" fill-opacity="0.15"/>
<path d="M133.986 92.368L130.491 119.635L135.828 125.315L140.066 94.4768C140.239 93.2611 139.997 92.0232 139.378 90.9568C138.019 88.6688 134.312 89.664 133.986 92.368Z" fill="#FF2C2C"/>
<path d="M72.4697 127.555L67.0679 105.664C66.8315 104.76 66.2956 103.958 65.5444 103.385C64.7931 102.812 63.8692 102.5 62.9179 102.499H55.521L57.3792 127.555H72.4697Z" fill="#FF2C2C"/>
<path opacity="0.2" d="M72.4697 127.555L67.0679 105.664C66.8315 104.76 66.2956 103.958 65.5444 103.385C64.7931 102.812 63.8692 102.5 62.9179 102.499H55.521L57.3792 127.555H72.4697Z" fill="black"/>
<path d="M66.4453 127.555L60.8446 105.664C60.5992 104.76 60.0578 103.961 59.3037 103.389C58.5496 102.817 57.6248 102.504 56.6718 102.499H51.6514C51.3493 102.49 51.0487 102.544 50.7695 102.658C50.4902 102.771 50.2386 102.942 50.0313 103.158C49.824 103.373 49.6657 103.63 49.5668 103.91C49.4678 104.191 49.4306 104.488 49.4574 104.784L51.3548 127.555H66.4453Z" fill="#FF2C2C"/>
<path d="M70.3769 91.984C70.2578 92.1114 70.1 92.1978 69.927 92.2304C69.6415 92.2878 69.3723 92.4057 69.1381 92.576C69.0295 92.6511 68.9443 92.7542 68.8919 92.874C68.8395 92.9938 68.8221 93.1255 68.8415 93.2544C68.9099 93.5392 69.2164 93.776 69.1903 94.064C69.1642 94.352 68.8871 94.5024 68.6426 94.6624C68.4631 94.7711 68.3015 94.9059 68.1634 95.0624C68.0979 95.1343 68.0493 95.2194 68.0211 95.3118C67.9929 95.4041 67.9859 95.5015 68.0004 95.5968C68.0354 95.7367 68.1113 95.8635 68.2188 95.9616C68.4187 96.1408 68.6597 96.2699 68.9214 96.3379C69.1831 96.4058 69.4576 96.4107 69.7217 96.352C69.9743 96.3024 70.21 96.1911 70.4072 96.0283C70.6044 95.8655 70.7565 95.6566 70.8496 95.4208C70.8622 95.3658 70.8855 95.3137 70.9181 95.2672C71.0056 95.1814 71.1209 95.1282 71.2441 95.1168C71.8494 95.0304 72.4643 95.0304 73.0697 95.1168C73.2628 95.1489 73.4601 95.1489 73.6532 95.1168C73.8608 95.0547 74.0454 94.9346 74.1846 94.7712C74.2848 94.6872 74.3592 94.5774 74.3995 94.4542C74.4398 94.331 74.4444 94.1992 74.4128 94.0736C74.302 93.7952 73.9205 93.6672 73.5717 93.6384C73.337 93.6192 73.0534 93.616 72.9197 93.4496C72.7861 93.2832 72.9197 93.0144 73.1153 92.8672C73.3328 92.75 73.5325 92.6035 73.7086 92.432C73.7902 92.3204 73.8377 92.1883 73.8456 92.0512C73.8628 91.924 73.834 91.7949 73.7641 91.6864C73.6065 91.5335 73.4008 91.4376 73.1805 91.4144C72.9879 91.3583 72.7841 91.3495 72.5872 91.3888C72.4477 91.443 72.3162 91.5151 72.196 91.6032C72.0706 91.6918 71.9158 91.7307 71.7624 91.712C71.5277 91.6576 71.4364 91.4208 71.3419 91.2416C71.2072 91.0325 71.007 90.8719 70.7714 90.784C70.5921 90.7136 70.2139 90.5664 70.0411 90.7104C70.0089 90.7427 69.9866 90.7832 69.9768 90.8274C69.967 90.8715 69.9701 90.9175 69.9857 90.96C70.0675 91.1429 70.1774 91.3124 70.3117 91.4624C70.3795 91.5302 70.4226 91.6181 70.4344 91.7124C70.4462 91.8067 70.426 91.9021 70.3769 91.984Z" fill="#FF2C2C"/>
<path opacity="0.5" d="M71.7656 97.3632C71.798 97.3505 71.8274 97.3314 71.8521 97.3072C71.8767 97.283 71.8961 97.2542 71.9091 97.2224C71.9127 97.1916 71.9099 97.1604 71.9009 97.1308C71.892 97.1011 71.877 97.0735 71.8569 97.0496C71.7788 96.9589 71.6836 96.884 71.5765 96.8288C71.3877 96.7079 71.1663 96.6454 70.9408 96.6496C70.8463 96.6551 70.7547 96.6834 70.6739 96.732C70.5932 96.7806 70.5259 96.8479 70.4779 96.928C70.3573 97.1552 70.517 97.2704 70.6963 97.3888C70.8615 97.4761 71.0469 97.5197 71.2344 97.5152C71.422 97.5107 71.605 97.4583 71.7656 97.3632Z" fill="#FF2C2C"/>
<path opacity="0.5" d="M69.3597 98.4128C69.3226 98.4355 69.2922 98.4675 69.2717 98.5056C69.2607 98.541 69.2607 98.5789 69.2717 98.6144C69.2838 98.6667 69.3109 98.7145 69.35 98.752C69.3758 98.7877 69.4109 98.816 69.4515 98.834C69.4922 98.852 69.5371 98.8591 69.5814 98.8544C69.6339 98.8427 69.6833 98.8205 69.7265 98.7891C69.7697 98.7577 69.8058 98.7178 69.8325 98.672C69.8691 98.632 69.8894 98.5801 69.8894 98.5264C69.8894 98.4726 69.8691 98.4207 69.8325 98.3808C69.7249 98.24 69.526 98.304 69.3597 98.4128Z" fill="#FF2C2C"/>
<path opacity="0.5" d="M128.118 94.7744C128.263 94.7615 128.404 94.7185 128.531 94.6485C128.658 94.5785 128.768 94.4829 128.855 94.368C128.91 94.2513 128.939 94.124 128.939 93.9952C128.939 93.8664 128.91 93.7391 128.855 93.6224C128.656 93.1622 128.363 92.7472 127.994 92.4032C127.376 91.7047 126.56 91.2033 125.65 90.9632C125.262 90.8748 124.857 90.8827 124.472 90.986C124.087 91.0894 123.735 91.2849 123.446 91.5552C122.697 92.3296 123.212 92.9792 123.772 93.6608C124.767 94.848 126.628 95.072 128.118 94.7744Z" fill="#FF2C2C"/>
<path opacity="0.5" d="M118.221 95.2992C118.045 95.346 117.885 95.4402 117.761 95.5712C117.661 95.6913 117.602 95.8389 117.591 95.9936C117.579 96.2154 117.627 96.4365 117.732 96.6336C117.796 96.8073 117.906 96.9617 118.049 97.0817C118.192 97.2017 118.365 97.2832 118.55 97.3184C118.775 97.3284 119 97.293 119.211 97.2143C119.422 97.1356 119.614 97.0153 119.776 96.8608C120.327 96.3808 120.222 96.0416 120.102 95.6864C119.88 95.072 119.016 95.04 118.221 95.2992Z" fill="#FF2C2C"/>
<path d="M127.684 127.555H51.3547L50.3018 114.938H128.519L127.684 127.555Z" fill="#FF2C2C"/>
<path d="M137.797 127.555H127.691L125.65 102.499H138.791C139.104 102.49 139.415 102.549 139.703 102.671C139.99 102.792 140.247 102.975 140.455 103.204C140.663 103.434 140.817 103.706 140.906 104C140.995 104.295 141.018 104.605 140.972 104.909L137.797 127.555Z" fill="#FF2C2C"/>
<path opacity="0.2" d="M137.797 127.555H127.691L125.65 102.499H138.791C139.104 102.49 139.415 102.549 139.703 102.671C139.99 102.792 140.247 102.975 140.455 103.204C140.663 103.434 140.817 103.706 140.906 104C140.995 104.295 141.018 104.605 140.972 104.909L137.797 127.555Z" fill="black"/>
<path d="M112.594 127.555L117.81 105.664C118.037 104.761 118.565 103.959 119.311 103.385C120.056 102.811 120.977 102.499 121.924 102.499H126.941C127.245 102.491 127.547 102.546 127.828 102.659C128.109 102.772 128.363 102.942 128.573 103.157C128.784 103.372 128.946 103.628 129.05 103.908C129.154 104.188 129.198 104.486 129.177 104.784L127.671 127.555H112.594Z" fill="#FF2C2C"/>
<path d="M114.684 118.797H108.701L109.014 110.368H116.695L114.684 118.797Z" fill="#FF2C2C"/>
<path opacity="0.2" d="M114.684 118.797H108.701L109.014 110.368H116.695L114.684 118.797Z" fill="black"/>
<path d="M108.705 118.797H60.636C60.1209 118.799 59.6232 118.614 59.24 118.276C58.8567 117.938 58.6152 117.473 58.5626 116.97L58.2366 112.234C58.2201 111.99 58.2557 111.745 58.3413 111.516C58.4268 111.287 58.5603 111.077 58.7331 110.902C58.906 110.726 59.1145 110.588 59.345 110.496C59.5756 110.404 59.8232 110.36 60.072 110.368H109.014C109.265 110.362 109.515 110.406 109.748 110.498C109.981 110.589 110.193 110.726 110.37 110.901C110.547 111.076 110.686 111.284 110.779 111.513C110.872 111.742 110.916 111.987 110.908 112.234L110.719 116.97C110.684 117.469 110.456 117.936 110.082 118.276C109.707 118.616 109.215 118.802 108.705 118.797Z" fill="#FF2C2C"/>
<path opacity="0.2" d="M108.705 118.797H60.636C60.1209 118.799 59.6232 118.614 59.24 118.276C58.8567 117.938 58.6152 117.473 58.5626 116.97L58.2366 112.234C58.2201 111.99 58.2557 111.745 58.3413 111.516C58.4268 111.287 58.5603 111.077 58.7331 110.902C58.906 110.726 59.1145 110.588 59.345 110.496C59.5756 110.404 59.8232 110.36 60.072 110.368H109.014C109.265 110.362 109.515 110.406 109.748 110.498C109.981 110.589 110.193 110.726 110.37 110.901C110.547 111.076 110.686 111.284 110.779 111.513C110.872 111.742 110.916 111.987 110.908 112.234L110.719 116.97C110.684 117.469 110.456 117.936 110.082 118.276C109.707 118.616 109.215 118.802 108.705 118.797Z" fill="white" fill-opacity="0.15"/>
<path d="M124.894 132.262H126.27V127.555H123.948L124.894 132.262Z" fill="#263238"/>
<path d="M135.006 132.262H136.382V127.555H134.064L135.006 132.262Z" fill="#263238"/>
<path d="M64.2578 132.262H62.8821V127.555H65.1999L64.2578 132.262Z" fill="#263238"/>
<path d="M54.1454 132.262H52.7697V127.555H55.0875L54.1454 132.262Z" fill="#263238"/>
<path d="M105.999 79.9296C105.552 81.0016 105.073 82.08 104.6 83.152C104.128 84.224 103.642 85.2928 103.153 86.352L101.712 89.5392C101.246 90.5952 100.757 91.6512 100.34 92.6624L100.15 93.1232C99.9646 93.5729 99.6373 93.9527 99.2163 94.2071C98.7953 94.4615 98.3025 94.5773 97.8097 94.5376C97.4339 94.5012 97.0562 94.4852 96.6785 94.4896C96.3137 94.4957 95.9498 94.5278 95.5897 94.5856C95.2243 94.6416 94.8651 94.7316 94.5171 94.8544C94.3384 94.9154 94.1632 94.9859 93.9923 95.0656C93.9043 95.104 93.8195 95.1424 93.738 95.184L93.6174 95.2384L93.5652 95.2576H93.5424C93.5424 95.2576 93.5261 95.2576 93.5424 95.2288C93.3395 95.5706 93.0093 95.8216 92.6214 95.9291C92.2336 96.0366 91.8184 95.9921 91.4634 95.805C91.1083 95.6178 90.8411 95.3027 90.7181 94.926C90.5951 94.5493 90.6259 94.1405 90.804 93.7856C90.8224 93.7481 90.8387 93.7096 90.8529 93.6704L90.8822 93.5904L90.9377 93.4464C90.9768 93.3568 91.0126 93.2672 91.0518 93.184C91.1333 93.0144 91.218 92.864 91.3093 92.6976C91.4919 92.395 91.7002 92.1081 91.932 91.84C92.4029 91.292 92.9519 90.8134 93.562 90.4192C94.1623 90.0306 94.8095 89.7168 95.4886 89.4848C96.1477 89.2547 96.8295 89.0927 97.5229 89.0016L94.9735 90.88C95.3387 89.6608 95.7266 88.5216 96.1406 87.3824L96.7665 85.6896L97.4185 84.0192C97.8521 82.9056 98.3183 81.808 98.7845 80.7136C99.2507 79.6192 99.7397 78.5344 100.265 77.4496C100.61 76.7191 101.234 76.1506 102.001 75.8662C102.769 75.5817 103.62 75.6039 104.371 75.928C105.122 76.2521 105.714 76.8522 106.019 77.5997C106.325 78.3472 106.32 79.1825 106.005 79.9264L105.999 79.9296Z" fill="#FFC3BD"/>
<path d="M101.122 76.1056C103.446 73.1168 110.191 72.9664 115.688 74.1344C116.874 74.3808 117.973 74.9341 118.868 75.7369C119.764 76.5398 120.425 77.563 120.783 78.7008C123.411 87.2544 120.199 101.824 114.628 105.901C108.141 110.65 97.9076 107.693 94.7617 103.395C92.5188 100.33 94.0314 93.7728 96.9361 89.4944C97.0339 84.8256 98.8693 79.0016 101.122 76.1056Z" fill="#FF2C2C"/>
<path opacity="0.4" d="M101.122 76.1056C103.446 73.1168 110.191 72.9664 115.688 74.1344C116.874 74.3808 117.973 74.9341 118.868 75.7369C119.764 76.5398 120.425 77.563 120.783 78.7008C123.411 87.2544 120.199 101.824 114.628 105.901C108.141 110.65 97.9076 107.693 94.7617 103.395C92.5188 100.33 94.0314 93.7728 96.9361 89.4944C97.0339 84.8256 98.8693 79.0016 101.122 76.1056Z" fill="black"/>
<path d="M112.551 73.8304C110.439 72.4128 109.412 68.6784 109.034 66.4064L104.812 72.8064C106.133 74.288 106.56 74.3136 104.326 76.3264C102.501 77.968 109.751 77.8688 112.581 75.9168C112.749 75.7962 112.885 75.6379 112.978 75.4551C113.071 75.2723 113.117 75.0704 113.115 74.8662C113.112 74.6619 113.059 74.4614 112.961 74.2812C112.863 74.101 112.723 73.9464 112.551 73.8304Z" fill="#FFC3BD"/>
<path opacity="0.2" d="M107.873 70.8544C107.909 70.1958 107.711 69.5454 107.313 69.0144L104.812 72.8032C105.169 73.1585 105.496 73.5417 105.79 73.9488C106.768 73.7984 107.74 72.3904 107.873 70.8544Z" fill="black"/>
<path d="M98.3151 62.4928C98.0315 65.2832 98.6835 67.5872 98.9084 70.1024C101.067 69.296 100.304 61.7408 100.304 61.7408L98.3151 62.4928Z" fill="#263238"/>
<path d="M108.75 63.808C109.076 67.3088 109.471 69.3408 107.974 71.3952C105.722 74.4864 101.109 73.5744 99.7104 70.2432C98.4488 67.248 98.1065 62.0288 101.34 60.1152C102.052 59.6913 102.861 59.4526 103.693 59.4216C104.524 59.3906 105.35 59.5684 106.092 59.9381C106.834 60.3079 107.467 60.8574 107.933 61.5345C108.398 62.2117 108.679 62.9942 108.75 63.808Z" fill="#FFC3BD"/>
<path d="M106.041 60.736C104.085 62.208 100.718 63.4816 100.718 63.4816C100.718 63.4816 101.324 62.4832 101.37 61.9488C98.8138 62.4192 97.6956 63.9072 97.6956 63.9072C97.6956 63.9072 96.747 61.7824 99.2278 59.1072C100.858 57.3344 106.305 55.7696 107.678 58.6848C109.859 57.6736 112.134 60.4 110.974 62.5248C109.813 64.6496 107.362 64.928 107.234 69.856C105.93 69.7312 105.096 67.616 105.096 67.616C106.256 67.1136 106.987 64.3584 106.85 63.3536C106.361 63.4592 105.36 61.552 106.041 60.736Z" fill="#263238"/>
<path d="M106.807 58.7744C107.482 57.8944 107.362 56.96 107.091 56.08C108.884 57.2096 108.62 59.2736 106.807 58.7744Z" fill="#263238"/>
<path d="M110.99 60.0704L109.076 65.1456C108.825 65.312 111.277 66.9344 112.105 63.3248C110.589 63.3152 111.952 61.4048 110.99 60.0704Z" fill="#263238"/>
<path d="M107.218 74.8352C107.545 73.9436 107.816 73.0331 108.03 72.1088C108.43 71.5876 108.663 70.9618 108.701 70.3104C108.848 68.7104 107.515 67.0272 107.619 65.648L106.354 67.9808C106.253 67.9106 106.144 67.8526 106.028 67.808C104.496 67.1872 102.142 68.1472 101.233 68.7872C96.4536 68.4192 100.607 71.6064 99.5376 76.2048C98.6215 80.1536 103.052 79.6992 103.613 86.064C104.272 85.357 104.884 84.6087 105.445 83.824C107.857 81.9424 107.544 80.7424 107.15 79.2512C107.107 79.0816 107.062 78.9088 107.019 78.7328C106.97 78.3168 106.892 77.9136 106.814 77.504C106.755 76.5964 106.893 75.6868 107.218 74.8352ZM107.065 74.784C106.849 75.3727 106.715 75.9873 106.667 76.6112C106.543 75.889 106.522 75.1534 106.605 74.4256C106.811 73.4272 107.329 72.9472 107.802 72.3904C107.597 73.1999 107.351 73.9988 107.065 74.784ZM105.761 83.3632C106.765 81.8048 107.065 80.6176 107.065 79.5552C107.401 80.8224 107.528 81.8496 105.764 83.3632H105.761Z" fill="#263238"/>
<path d="M103.127 65.1488C102.941 65.1776 102.824 65.4304 102.869 65.712L103.551 65.6064C103.505 65.3248 103.316 65.12 103.127 65.1488Z" fill="#263238"/>
<path d="M99.8799 65.6512C99.6908 65.68 99.5735 65.9328 99.6191 66.2144L100.3 66.1088C100.255 65.8272 100.082 65.6224 99.8799 65.6512Z" fill="#263238"/>
<path d="M101.357 66.0896C101.357 66.0896 100.965 67.8208 100.379 68.7168C100.962 69.104 101.79 68.7584 101.79 68.7584L101.357 66.0896Z" fill="#ED847E"/>
<path d="M104.48 63.4528C104.463 63.4808 104.437 63.5031 104.407 63.5168C104.377 63.5305 104.343 63.5349 104.31 63.5296C104.099 63.4941 103.882 63.5081 103.677 63.5704C103.472 63.6326 103.284 63.7415 103.13 63.888C103.115 63.9044 103.097 63.9177 103.077 63.9272C103.057 63.9368 103.035 63.9423 103.012 63.9435C102.99 63.9446 102.967 63.9415 102.946 63.9342C102.925 63.9269 102.906 63.9155 102.889 63.9008C102.872 63.8861 102.859 63.8683 102.849 63.8485C102.839 63.8286 102.834 63.8071 102.832 63.7851C102.831 63.7631 102.834 63.7411 102.842 63.7203C102.849 63.6995 102.861 63.6804 102.876 63.664C103.067 63.4756 103.302 63.3349 103.56 63.2536C103.818 63.1724 104.092 63.1529 104.359 63.1968C104.382 63.2 104.403 63.2074 104.423 63.2188C104.442 63.2301 104.459 63.2451 104.473 63.263C104.487 63.2808 104.497 63.3011 104.502 63.3227C104.508 63.3443 104.509 63.3667 104.506 63.3888C104.502 63.4118 104.493 63.4336 104.48 63.4528Z" fill="#263238"/>
<path d="M98.3997 64.3872C98.363 64.372 98.3338 64.3433 98.3182 64.3072C98.309 64.2872 98.3038 64.2657 98.3031 64.2438C98.3023 64.2219 98.306 64.2 98.3139 64.1795C98.3217 64.159 98.3337 64.1402 98.349 64.1242C98.3643 64.1082 98.3826 64.0954 98.403 64.0864C98.6465 63.969 98.9153 63.9108 99.1865 63.917C99.4578 63.9231 99.7235 63.9933 99.9613 64.1216C99.9805 64.1331 99.9971 64.1481 100.01 64.166C100.023 64.1838 100.033 64.204 100.038 64.2254C100.043 64.2469 100.044 64.2691 100.04 64.2908C100.037 64.3125 100.029 64.3333 100.017 64.352C99.9919 64.3895 99.9533 64.4162 99.9089 64.4263C99.8645 64.4365 99.8179 64.4293 99.7787 64.4064C99.5892 64.3066 99.378 64.253 99.163 64.2502C98.9479 64.2475 98.7353 64.2955 98.5432 64.3904C98.5207 64.4009 98.496 64.4061 98.4711 64.4055C98.4462 64.4049 98.4217 64.3987 98.3997 64.3872Z" fill="#263238"/>
<path d="M110.628 65.7632C110.444 66.6178 109.938 67.3724 109.21 67.8752C108.255 68.5152 107.472 67.7248 107.482 66.6208C107.482 65.6224 107.997 64.0896 109.076 63.8944C110.155 63.6992 110.84 64.7008 110.628 65.7632Z" fill="#FFC3BD"/>
<path opacity="0.2" d="M100.46 66.0544C100.382 66.2873 100.246 66.4973 100.063 66.665C99.881 66.8327 99.6588 66.9528 99.417 67.0144C100.9 67.3408 100.46 66.0544 100.46 66.0544Z" fill="black"/>
<path opacity="0.2" d="M102.449 65.7568C102.605 65.9442 102.805 66.091 103.033 66.1842C103.26 66.2774 103.507 66.3142 103.753 66.2912C102.622 66.9504 102.449 65.7568 102.449 65.7568Z" fill="black"/>
<path d="M94.0673 96.3552C96.1211 95.6608 99.2833 95.6032 104.979 96.3296C107.619 96.6656 107.013 100.55 106.732 101.901C105.996 105.421 103.437 107.683 98.0543 108.566C91.4169 109.658 86.8236 109.846 82.1813 110.573C80.698 116.464 74.2954 124.038 71.9319 124.749C69.5684 125.459 66.6051 123.853 67.9221 120.067C69.2391 116.282 70.9539 107.29 73.6141 105.066C78.2563 101.181 89.1284 98.0224 94.0673 96.3552Z" fill="#3B3636"/>
<path opacity="0.2" d="M83.3972 110.4C86.2595 110 89.1707 109.76 92.6197 109.347C92.8298 106.706 93.1988 104.08 93.7249 101.482C88.5415 102.627 84.9164 105.488 83.3972 110.4Z" fill="black"/>
<path d="M67.984 133.018C68.2546 132.243 67.482 131.098 68.4078 129.536C69.3337 127.974 72.9718 124.064 72.5285 122.842C72.0851 121.619 69.5423 120.48 68.7175 121.184C67.8927 121.888 66.9115 125.776 65.5521 127.888C64.1926 130 61.314 130.102 58.4941 129.699C58.0964 129.645 58.1681 130.768 59.0614 131.072C61.2488 131.834 63.2603 131.882 64.4371 132.451C65.4445 132.938 65.4934 133.363 66.6376 133.779C67.3451 134.035 67.7134 133.798 67.984 133.018Z" fill="#FFC3BD"/>
<path d="M104.222 96.32C112.206 96.2176 116.066 98.56 116.75 101.242C117.728 105.107 117.19 108.394 112.375 110.08C106.468 112.144 99.9874 110.678 95.5375 111.418C95.2735 117.389 90.4976 125.069 88.3101 125.789C86.1227 126.509 82.8724 124.886 83.3973 121.046C83.9222 117.206 83.5342 109.965 86.791 105.901C90.9801 100.685 99.4463 96.3904 104.222 96.32Z" fill="#3B3636"/>
<path opacity="0.08" d="M112.47 104.899C112.258 104.958 112.036 104.974 111.818 104.944C111.473 104.888 111.12 104.888 110.775 104.944C110.352 105.014 109.949 105.174 109.595 105.411C109.233 105.674 109.109 105.984 108.675 106.218C108.288 106.401 107.869 106.51 107.44 106.538C107.135 106.568 106.833 106.622 106.537 106.701C106.222 106.782 105.923 106.915 105.653 107.094C105.503 107.197 105.377 107.328 105.282 107.482C105.021 107.907 105.223 108.256 105.758 108.349C106.486 108.409 107.217 108.278 107.877 107.968C107.963 107.928 108.052 107.894 108.144 107.866C108.29 107.827 108.444 107.827 108.591 107.866C109.063 107.973 109.5 108.195 109.862 108.512C109.976 108.62 110.122 108.691 110.279 108.714C110.571 108.73 110.863 108.696 111.143 108.614C111.561 108.528 111.955 108.355 112.3 108.109C112.626 107.834 112.542 107.587 112.34 107.44C112.203 107.341 112.014 107.235 112.163 107.046C112.436 106.809 112.779 106.662 113.141 106.627C113.489 106.6 113.835 106.549 114.175 106.474C114.402 106.406 114.621 106.313 114.827 106.198C115.001 106.113 115.158 106 115.293 105.862C115.35 105.803 115.382 105.725 115.382 105.643C115.382 105.562 115.35 105.483 115.293 105.424C115.255 105.358 115.201 105.301 115.136 105.26C115.07 105.219 114.996 105.194 114.918 105.187C114.725 105.185 114.532 105.199 114.341 105.229C114.142 105.248 113.943 105.245 113.888 105.162C113.833 105.078 114.087 104.806 114.273 104.614C114.359 104.542 114.427 104.452 114.472 104.35C114.517 104.248 114.538 104.137 114.534 104.026C114.511 103.901 114.459 103.642 114.129 103.706C113.986 103.74 113.852 103.805 113.738 103.898C113.552 104.057 113.387 104.239 113.246 104.438C113.041 104.666 112.77 104.826 112.47 104.899Z" fill="#263238"/>
<path d="M87.3125 134.08C87.3679 133.261 86.3084 132.342 86.7877 130.608C87.2669 128.874 89.7217 124.15 88.9686 123.088C88.2155 122.026 85.4608 121.581 84.8512 122.47C84.2416 123.36 84.3394 127.366 83.5929 129.757C82.8463 132.147 80.1079 132.982 77.2685 133.328C76.8707 133.376 77.2685 134.435 78.1813 134.502C80.4959 134.675 82.4486 134.202 83.7233 134.448C84.8284 134.659 84.9881 135.053 86.2041 135.158C86.967 135.222 87.2604 134.896 87.3125 134.08Z" fill="#FFC3BD"/>
<path d="M103.358 95.4304C102.579 93.4784 100.424 93.3472 99.1365 92.5088C98.9149 92.368 98.3444 92.7744 98.5204 93.2096C98.6507 93.5395 98.8487 93.8396 99.1022 94.0912C99.3557 94.3428 99.6592 94.5405 99.9939 94.672C99.9744 95.312 100.242 97.2544 102.126 97.328C102.876 96.7104 103.358 95.4304 103.358 95.4304Z" fill="#FFC3BD"/>
<path d="M92.4242 91.2864L90.2628 93.76L93.4609 96.3584C93.4609 96.3584 96.3199 94.4832 94.6997 92.1792L92.4242 91.2864Z" fill="#FFC3BD"/>
<path d="M94.9866 93.12C93.875 91.328 91.7462 91.5616 90.315 90.96C90.0705 90.8576 89.5815 91.3536 89.8325 91.7536C90.018 92.0572 90.2655 92.3197 90.5596 92.5246C90.8536 92.7295 91.1877 92.8723 91.5408 92.944C91.6353 93.584 92.2384 95.4432 94.1097 95.2C94.7389 94.4608 94.9866 93.12 94.9866 93.12Z" fill="#FFC3BD"/>
<path d="M89.5652 97.0464L90.0835 97.5072C90.3649 97.7559 90.7302 97.8935 91.1088 97.8935C91.4875 97.8935 91.8527 97.7559 92.1341 97.5072L93.4609 96.352L90.2628 93.76L89.324 95.072C89.1138 95.374 89.0225 95.7406 89.0669 96.1037C89.1112 96.4668 89.2883 96.8017 89.5652 97.0464Z" fill="#FFC3BD"/>
<path d="M100.943 96.9216C100.627 95.6636 100.099 94.4663 99.3811 93.3792C98.7291 92.3968 97.8619 92.0992 95.8766 91.984C95.6524 91.9602 95.4257 91.9848 95.2123 92.0561C94.9988 92.1274 94.8038 92.2437 94.6411 92.3968L92.8546 92.2848C92.2515 91.8624 91.4136 91.6992 90.0347 91.6096C87.9809 91.4784 88.0591 94.24 88.0591 94.24C88.0591 94.24 87.2115 94.9024 89.9173 95.0752L91.3648 95.168C92.1341 95.8752 93.474 97.0688 93.8 97.088C94.2662 97.1168 95.2279 97.1776 95.104 96.544C95.017 96.1482 94.8982 95.7598 94.7486 95.3824L95.593 95.4368H95.7625C96.6394 95.4944 96.659 95.0176 96.659 95.0176C96.659 95.0176 99.179 97.4208 99.6452 97.4528C100.111 97.4848 101.06 97.5552 100.943 96.9216Z" fill="#263238"/>
<path d="M90.5617 93.5035L87.8595 93.2387C87.6875 93.2219 87.5342 93.3451 87.517 93.5139L87.5144 93.5394C87.4973 93.7082 87.6228 93.8587 87.7947 93.8756L90.4969 94.1403C90.6689 94.1572 90.8222 94.034 90.8394 93.8652L90.842 93.8397C90.8591 93.6709 90.7336 93.5203 90.5617 93.5035Z" fill="#FF2C2C"/>
<path d="M97.3033 93.9789L94.6011 93.7141C94.4291 93.6973 94.2758 93.8205 94.2586 93.9893L94.256 94.0148C94.2388 94.1836 94.3643 94.3341 94.5363 94.351L97.2385 94.6157C97.4105 94.6326 97.5638 94.5094 97.581 94.3406L97.5836 94.3151C97.6007 94.1463 97.4752 93.9957 97.3033 93.9789Z" fill="#FF2C2C"/>
<path d="M119.267 79.28C119.332 79.9616 119.375 80.56 119.404 81.2C119.433 81.84 119.45 82.48 119.459 83.0976C119.459 84.3776 119.459 85.6384 119.365 86.9376C119.289 88.2553 119.135 89.5674 118.902 90.8672C118.778 91.5639 118.619 92.2539 118.423 92.9344C118.196 93.7225 117.886 94.485 117.497 95.2096L117.415 95.36C117.217 95.7222 116.926 96.0276 116.571 96.2464C115.219 97.0438 113.749 97.628 112.212 97.9776C110.846 98.3072 109.457 98.5414 108.056 98.6784C106.689 98.8128 105.333 98.8821 103.988 98.8864C102.633 98.8965 101.28 98.8367 99.9321 98.7072C99.5563 98.6711 99.2065 98.5029 98.9472 98.2335C98.6878 97.9641 98.5365 97.6118 98.521 97.2415C98.5055 96.8712 98.6269 96.5079 98.8629 96.2185C99.0989 95.9292 99.4334 95.7334 99.8049 95.6672H99.8604C101.076 95.4464 102.351 95.2192 103.58 94.9664C104.809 94.7136 106.038 94.4416 107.228 94.128C107.821 93.9712 108.408 93.808 108.982 93.6352C109.556 93.4624 110.113 93.264 110.651 93.0656C111.619 92.7241 112.535 92.2536 113.373 91.6672L112.447 92.704C112.589 92.3276 112.698 91.94 112.773 91.5456C112.858 91.0752 112.939 90.5632 112.992 90.032C113.044 89.5008 113.086 88.9504 113.112 88.3936C113.138 87.8368 113.161 87.2672 113.171 86.6976C113.171 85.5552 113.171 84.3936 113.148 83.2288L113.096 81.4784L113.027 79.7632V79.68C113 78.8806 113.29 78.1021 113.837 77.5092C114.384 76.9164 115.145 76.5558 115.958 76.5038C116.771 76.4518 117.573 76.7125 118.194 77.2307C118.814 77.7489 119.205 78.4839 119.283 79.28H119.267Z" fill="#FFC3BD"/>
<path opacity="0.5" d="M105.914 89.456C105.844 89.5077 105.786 89.5736 105.744 89.6492C105.701 89.7248 105.676 89.8084 105.67 89.8944C105.68 89.9713 105.708 90.0451 105.75 90.1108C105.792 90.1765 105.848 90.2325 105.914 90.2752C106.166 90.4466 106.451 90.5663 106.752 90.6272C107.295 90.7903 107.875 90.7903 108.418 90.6272C108.645 90.5499 108.849 90.4189 109.012 90.2459C109.175 90.0729 109.292 89.8632 109.353 89.6352C109.487 88.9952 109.011 88.832 108.499 88.6752C107.596 88.3744 106.573 88.8416 105.914 89.456Z" fill="#FF2C2C"/>
<path opacity="0.5" d="M106.602 88.0704C106.637 88.0576 106.668 88.0379 106.694 88.0126C106.721 87.9872 106.741 87.9568 106.755 87.9232C106.76 87.8919 106.758 87.8599 106.749 87.8295C106.74 87.799 106.724 87.7709 106.703 87.7472C106.625 87.649 106.527 87.5674 106.416 87.5072C106.224 87.379 105.997 87.3099 105.764 87.3088C105.665 87.3131 105.569 87.341 105.484 87.3901C105.399 87.4392 105.327 87.5079 105.275 87.5904C105.145 87.824 105.311 87.9488 105.494 88.0736C105.663 88.1671 105.854 88.2159 106.048 88.2154C106.242 88.2148 106.433 88.1649 106.602 88.0704Z" fill="#FF2C2C"/>
<path opacity="0.5" d="M104.069 89.1136C104.031 89.1361 103.999 89.1681 103.978 89.2064C103.965 89.2427 103.965 89.282 103.978 89.3184C103.988 89.3735 104.014 89.4246 104.053 89.4656C104.08 89.5031 104.116 89.5332 104.158 89.5528C104.201 89.5724 104.247 89.581 104.294 89.5776C104.348 89.5659 104.4 89.5434 104.445 89.5115C104.491 89.4796 104.529 89.4389 104.558 89.392C104.58 89.3711 104.597 89.3462 104.609 89.3188C104.62 89.2913 104.626 89.2618 104.626 89.232C104.626 89.2022 104.62 89.1727 104.609 89.1452C104.597 89.1177 104.58 89.0928 104.558 89.072C104.454 88.96 104.245 89.0016 104.069 89.1136Z" fill="#FF2C2C"/>
<path opacity="0.5" d="M99.7201 83.168C99.7203 83.1324 99.7129 83.0973 99.6983 83.0647C99.6837 83.0322 99.6622 83.0031 99.6354 82.9792C99.6067 82.9639 99.5751 82.9546 99.5425 82.9519C99.51 82.9491 99.4772 82.953 99.4463 82.9632C99.3263 83.0005 99.2154 83.0615 99.1203 83.1424C98.9285 83.2763 98.782 83.4636 98.6998 83.68C98.6676 83.7717 98.6594 83.8698 98.6759 83.9654C98.6924 84.061 98.7331 84.1511 98.7943 84.2272C98.9736 84.4288 99.1496 84.32 99.3322 84.1984C99.4826 84.0746 99.5975 83.9145 99.6655 83.7338C99.7336 83.5531 99.7524 83.358 99.7201 83.168Z" fill="#FF2C2C"/>
<path opacity="0.5" d="M100.431 83.04C100.439 83.0841 100.459 83.1251 100.489 83.1584C100.517 83.1846 100.553 83.2024 100.591 83.2096C100.647 83.2175 100.704 83.2109 100.757 83.1904C100.802 83.179 100.844 83.1561 100.878 83.1242C100.911 83.0922 100.936 83.0522 100.949 83.008C100.958 82.9518 100.956 82.8943 100.941 82.8392C100.927 82.7841 100.9 82.7326 100.864 82.688C100.838 82.6384 100.793 82.6001 100.74 82.5806C100.686 82.5611 100.627 82.5618 100.574 82.5824C100.408 82.6304 100.388 82.8384 100.431 83.04Z" fill="#FF2C2C"/>
<path d="M102.498 98.576L99.2148 99.0816L98.6378 95.04C98.6378 95.04 101.337 94.08 102.022 95.4176L102.498 98.576Z" fill="#FFC3BD"/>
<path d="M96.0004 97.9456L95.8733 97.2704C95.8034 96.9053 95.8736 96.5277 96.0705 96.2104C96.2673 95.8932 96.5768 95.6586 96.9393 95.552L98.6378 95.0496L99.2148 99.0816L97.5848 99.1712C97.2146 99.1884 96.8505 99.0739 96.5595 98.8488C96.2684 98.6236 96.0699 98.3029 96.0004 97.9456Z" fill="#FFC3BD"/>
<path d="M100.982 58.1984C100.748 58.326 100.485 58.3915 100.217 58.3884C99.9501 58.3854 99.6882 58.3139 99.4577 58.1811C99.2272 58.0482 99.036 57.8586 98.9031 57.631C98.7701 57.4033 98.7 57.1456 98.6997 56.8832C100.838 58.2176 108.128 54.9824 107.678 58.672C102.309 58.944 102.315 57.4624 100.982 58.1984Z" fill="#263238"/>
<path d="M126.967 93.8048H123.055L122.729 94.2048V102.099L123.055 102.499H126.967L127.293 102.099V94.2048L126.967 93.8048Z" fill="#263238"/>
<path d="M126.781 93.44H123.228C123.179 93.44 123.131 93.4592 123.097 93.4934C123.062 93.5276 123.042 93.574 123.042 93.6224C123.042 93.6465 123.046 93.6704 123.055 93.6927C123.065 93.715 123.078 93.7353 123.096 93.7523C123.113 93.7694 123.134 93.7828 123.156 93.7918C123.179 93.8008 123.203 93.8052 123.228 93.8048H126.781C126.831 93.8048 126.878 93.7856 126.913 93.7514C126.948 93.7172 126.967 93.6708 126.967 93.6224C126.966 93.5743 126.947 93.5284 126.912 93.4943C126.877 93.4603 126.83 93.4408 126.781 93.44Z" fill="#E0E0E0" fill-opacity="0.05"/>
<path d="M126.224 97.7216H125.435L125.911 95.7824L123.795 98.5824H124.587L124.112 100.518L126.224 97.7216Z" fill="white" fill-opacity="0.15"/>
<path d="M74.9051 79.9648V87.8592L74.5791 88.2592H70.6671L70.3411 87.8592V79.9648L70.6671 79.5648H74.5791L74.9051 79.9648Z" fill="#263238"/>
<path d="M74.3964 79.2H70.8528C70.8038 79.2008 70.757 79.2203 70.7223 79.2543C70.6877 79.2884 70.6678 79.3343 70.667 79.3824C70.667 79.4308 70.6866 79.4772 70.7214 79.5114C70.7563 79.5456 70.8035 79.5648 70.8528 79.5648H74.3964C74.4207 79.5648 74.4447 79.5601 74.4671 79.5509C74.4894 79.5417 74.5097 79.5282 74.5267 79.5112C74.5437 79.4942 74.5571 79.4741 74.566 79.452C74.575 79.4298 74.5794 79.4062 74.579 79.3824C74.579 79.3346 74.5599 79.2887 74.5257 79.2545C74.4916 79.2204 74.4451 79.2008 74.3964 79.2Z" fill="#E0E0E0" fill-opacity="0.05"/>
<path d="M71.7624 83.4816L70.3411 85.36V83.0048L71.4462 81.5424L70.9702 83.4816H71.7624Z" fill="white" fill-opacity="0.15"/>
<path d="M74.905 83.0784V85.4304L74.2628 86.2784L74.7388 84.3424H73.9498L74.905 83.0784Z" fill="white" fill-opacity="0.15"/>
<path d="M133.367 97.2672L133.265 98.3744L133.275 99.3056V99.3088L133.308 102.17L132.985 102.522L129.076 102.483L128.747 102.125L128.714 99.3024L128.705 98.3648L128.799 97.2736L128.998 94.9184L129.357 94.5952L133.252 94.9344L133.546 95.3184L133.367 97.2672Z" fill="#263238"/>
<path d="M133.119 94.5984L129.549 94.2784C129.528 94.2766 129.506 94.2791 129.486 94.2855C129.465 94.292 129.446 94.3024 129.43 94.3161C129.414 94.3297 129.4 94.3465 129.39 94.3653C129.381 94.3841 129.375 94.4046 129.373 94.4256C129.37 94.4684 129.383 94.5109 129.411 94.5438C129.439 94.5768 129.48 94.5975 129.523 94.6016L133.09 94.9216C133.133 94.9252 133.176 94.9117 133.21 94.8842C133.244 94.8566 133.265 94.8172 133.269 94.7744C133.272 94.7316 133.259 94.6891 133.231 94.6562C133.203 94.6232 133.162 94.6025 133.119 94.5984Z" fill="#E0E0E0" fill-opacity="0.05"/>
<path d="M129.588 98.2688L128.714 99.3024L128.705 98.3648L128.799 97.2736L129.435 96.592L128.799 98.2624L129.588 98.2688Z" fill="white" fill-opacity="0.15"/>
<path d="M133.265 98.3744L133.275 99.3056V99.3088L132.069 100.736L132.522 99.0176L131.733 99.0112L133.367 97.2672L133.265 98.3744Z" fill="white" fill-opacity="0.15"/>
<path d="M101.06 133.44C100.737 133.5 100.41 133.534 100.082 133.542C99.4495 133.571 98.8236 133.613 98.3476 133.683C97.8717 133.754 97.575 133.862 97.6956 133.965C97.8162 134.067 98.5171 134.179 98.4585 134.285C98.3998 134.39 97.8065 134.467 97.2588 134.531C96.905 134.568 96.5536 134.624 96.2058 134.698C95.9254 134.762 95.7592 134.842 95.844 134.918C95.9932 134.999 96.1571 135.05 96.3264 135.069C97.4192 135.228 98.5253 135.282 99.6288 135.229C100.802 135.181 101.771 135.027 102.103 134.845C102.151 134.816 102.202 134.794 102.256 134.781C102.498 134.742 102.742 134.722 102.987 134.72C104.291 134.672 105.663 134.694 107 134.72C107.427 134.72 107.87 134.736 108.284 134.72C108.676 134.703 109.066 134.656 109.451 134.579C109.855 134.496 110.165 134.39 109.953 134.291C109.741 134.192 108.868 134.125 108.105 134.112C107.626 134.123 107.148 134.098 106.674 134.035C106.348 133.958 106.674 133.856 107.111 133.795C107.547 133.734 108.089 133.693 108.415 133.616C108.604 133.568 108.685 133.514 108.711 133.456C108.737 133.398 108.711 133.35 108.535 133.309C108.113 133.238 107.686 133.2 107.257 133.197C106.827 133.178 106.367 133.162 105.953 133.197C105.627 133.216 105.373 133.254 105.096 133.286C104.779 133.325 104.46 133.34 104.141 133.331C103.824 133.321 103.511 133.255 103.218 133.136C102.808 133.03 102.387 132.967 101.963 132.947C101.43 132.893 100.894 132.883 100.359 132.918C100.193 132.944 100.186 132.986 100.242 133.021C100.475 133.111 100.716 133.181 100.962 133.229C101.269 133.306 101.282 133.379 101.06 133.44Z" fill="#FF2C2C"/>
<path d="M108.102 129.6H102.824C102.218 129.6 101.638 129.836 101.21 130.256C100.782 130.676 100.542 131.246 100.542 131.84C100.542 132.434 100.782 133.004 101.21 133.424C101.638 133.844 102.218 134.08 102.824 134.08H108.102C108.707 134.08 109.287 133.844 109.715 133.424C110.143 133.004 110.384 132.434 110.384 131.84C110.384 131.246 110.143 130.676 109.715 130.256C109.287 129.836 108.707 129.6 108.102 129.6Z" fill="#406679"/>
<path d="M106.869 130.637V131.411L105.487 130.944L107.485 133.021V132.246L108.871 132.714L106.869 130.637Z" fill="white"/>
<path d="M104.206 130.461C104.482 130.727 104.671 131.068 104.749 131.44C104.827 131.812 104.791 132.198 104.646 132.55C104.501 132.902 104.252 133.204 103.932 133.417C103.612 133.631 103.234 133.746 102.847 133.749C102.46 133.751 102.081 133.641 101.758 133.433C101.435 133.224 101.182 132.925 101.031 132.576C100.881 132.226 100.84 131.84 100.913 131.467C100.986 131.094 101.17 130.75 101.441 130.48C101.806 130.118 102.301 129.912 102.82 129.909C103.338 129.905 103.837 130.104 104.206 130.461Z" fill="#CCC6C6"/>
<path d="M103.961 132.925C103.878 133.006 103.766 133.052 103.648 133.052C103.531 133.052 103.419 133.006 103.335 132.925L102.908 132.512C102.826 132.43 102.779 132.32 102.779 132.205C102.779 132.09 102.826 131.979 102.908 131.898C102.95 131.857 102.999 131.825 103.053 131.802C103.107 131.78 103.164 131.769 103.223 131.769C103.281 131.769 103.339 131.78 103.393 131.802C103.447 131.825 103.496 131.857 103.538 131.898L103.961 132.307C104.044 132.389 104.091 132.5 104.091 132.616C104.091 132.732 104.044 132.843 103.961 132.925Z" fill="#263238"/>
<path d="M55.4428 115.747H9.84189L8.12061 86.5984H53.7215L55.4428 115.747Z" fill="#263238"/>
<path d="M47.2731 110.995H46.3669L45.2063 91.3504H46.1126L47.2731 110.995Z" fill="black"/>
<path d="M55.4428 115.747H54.7712L53.0499 86.5984H53.7215L55.4428 115.747Z" fill="black"/>
<path opacity="0.1" d="M46.367 110.995H16.2902L15.1296 91.3504H45.2064L46.367 110.995Z" fill="white" fill-opacity="0.15"/>
<path opacity="0.3" d="M28.437 115.747H35.8991L34.4745 101.706H27.0123L28.437 115.747Z" fill="black"/>
<path d="M31.1981 118.365H23.6708L26.4483 101.171H33.9756L31.1981 118.365Z" fill="#263238"/>
<path d="M31.1981 118.365H31.7817L34.5592 101.171H33.9756L31.1981 118.365Z" fill="black"/>
<path d="M20.3619 110.07H17.3529L17.3073 109.757H20.3162L20.3619 110.07Z" fill="black"/>
<path d="M20.326 109.494H17.3203L17.2747 109.181H20.2804L20.326 109.494Z" fill="black"/>
<path d="M20.2935 108.915H17.2845L17.2389 108.605H20.2479L20.2935 108.915Z" fill="black"/>
<path d="M44.3653 118.368H18.3016C17.8916 118.368 17.495 118.512 17.1835 118.773C16.872 119.035 16.6661 119.397 16.6031 119.795L13.8843 137.107C13.8152 137.547 13.8438 137.996 13.9682 138.424C14.0925 138.852 14.3097 139.248 14.6049 139.586C14.9 139.924 15.2661 140.195 15.6779 140.381C16.0898 140.566 16.5378 140.663 16.9911 140.662H45.6791C46.1324 140.663 46.5803 140.566 46.9922 140.381C47.4041 140.195 47.7701 139.924 48.0653 139.586C48.3604 139.248 48.5776 138.852 48.702 138.424C48.8264 137.996 48.855 137.547 48.7858 137.107L46.067 119.795C46.0039 119.397 45.7976 119.034 45.4854 118.772C45.1732 118.51 44.7759 118.367 44.3653 118.368Z" fill="#FF2C2C"/>
<path opacity="0.6" d="M44.3653 118.368H18.3016C17.8916 118.368 17.495 118.512 17.1835 118.773C16.872 119.035 16.6661 119.397 16.6031 119.795L13.8843 137.107C13.8152 137.547 13.8438 137.996 13.9682 138.424C14.0925 138.852 14.3097 139.248 14.6049 139.586C14.9 139.924 15.2661 140.195 15.6779 140.381C16.0898 140.566 16.5378 140.663 16.9911 140.662H45.6791C46.1324 140.663 46.5803 140.566 46.9922 140.381C47.4041 140.195 47.7701 139.924 48.0653 139.586C48.3604 139.248 48.5776 138.852 48.702 138.424C48.8264 137.996 48.855 137.547 48.7858 137.107L46.067 119.795C46.0039 119.397 45.7976 119.034 45.4854 118.772C45.1732 118.51 44.7759 118.367 44.3653 118.368Z" fill="#263238"/>
<path d="M44.3652 118.368H41.2291C40.9814 118.368 40.7366 118.42 40.5116 118.522C40.2865 118.623 40.0864 118.772 39.9251 118.956C39.7638 119.141 39.645 119.357 39.5769 119.591C39.5088 119.825 39.4931 120.07 39.5307 120.31L42.318 138.048C42.4324 138.776 42.8086 139.44 43.3784 139.92C43.9483 140.399 44.6741 140.663 45.4247 140.662H45.6758C46.129 140.663 46.577 140.566 46.9889 140.381C47.4008 140.195 47.7668 139.924 48.062 139.586C48.3571 139.248 48.5743 138.852 48.6987 138.424C48.823 137.996 48.8517 137.547 48.7825 137.107L46.0637 119.795C46.0007 119.397 45.7948 119.035 45.4833 118.773C45.1718 118.512 44.7753 118.368 44.3652 118.368Z" fill="#263238"/>
</svg>
