<svg width="209" height="42" viewBox="0 0 209 42" fill="none" xmlns="http://www.w3.org/2000/svg">
<path d="M0 11.1525L23.2222 0.461578V10.6752L0 21.4616V11.1525Z" fill="#FF2C2C"/>
<path d="M23.2222 10.6909L46.4444 0V10.2136L23.2222 21V10.6909Z" fill="#FF2C2C"/>
<path d="M0 31.691L23.2222 21V31.2136L0 42V31.691Z" fill="#FF2C2C"/>
<path d="M23.2222 31.2294L46.4444 20.5384V30.752L23.2222 41.5384V31.2294Z" fill="#FF2C2C"/>
<path d="M54.4062 24.6L58.1682 8.59799H65.6644C66.8162 8.59799 67.8194 8.70719 68.674 8.92559C69.5471 9.12719 70.2624 9.47159 70.8197 9.95879C71.3956 10.446 71.8229 11.0844 72.1016 11.874C72.3988 12.6636 72.5475 13.6296 72.5475 14.772C72.5475 15.9984 72.371 17.1996 72.018 18.3756C71.6836 19.5516 71.117 20.6016 70.3181 21.5256C69.5193 22.4496 68.4696 23.1972 67.1692 23.7684C65.8873 24.3228 64.2989 24.6 62.404 24.6H54.4062ZM62.0417 22.836C62.6548 22.836 63.1935 22.6092 63.658 22.1556C64.141 21.6852 64.5497 21.0972 64.8841 20.3916C65.2371 19.6692 65.5251 18.8796 65.748 18.0228C65.9895 17.1492 66.1753 16.3092 66.3053 15.5028C66.4539 14.6964 66.5561 13.974 66.6119 13.3356C66.6862 12.6972 66.7233 12.2436 66.7233 11.9748C66.7233 11.454 66.6026 11.0508 66.361 10.7652C66.1381 10.4628 65.7387 10.3116 65.1628 10.3116H63.8252L60.8435 22.836H62.0417ZM83.0286 13.4868C85.2394 13.4868 86.8464 13.8396 87.8496 14.5452C88.9085 15.2844 89.438 16.5108 89.438 18.2244C89.438 19.2828 89.2429 20.2404 88.8528 21.0972C88.4626 21.9372 87.9146 22.6344 87.2086 23.1888C85.7967 24.264 83.7532 24.8016 81.078 24.8016C78.7929 24.8016 77.1581 24.4068 76.1734 23.6172C75.1145 22.794 74.585 21.5592 74.585 19.9128C74.585 18.8208 74.8265 17.8296 75.3096 16.9392C75.8112 16.0488 76.5264 15.3096 77.4553 14.7216C78.8115 13.8984 80.6693 13.4868 83.0286 13.4868ZM81.1337 23.088C81.5981 23.088 81.9976 22.8528 82.332 22.3824C82.6849 21.912 82.9636 21.3408 83.168 20.6688C83.3723 19.98 83.5209 19.2744 83.6138 18.552C83.7253 17.8128 83.781 17.1744 83.781 16.6368C83.781 16.1664 83.7253 15.8136 83.6138 15.5784C83.5209 15.3264 83.3073 15.2004 82.9729 15.2004C82.4713 15.2004 82.0347 15.444 81.6632 15.9312C81.3102 16.4184 81.0222 16.998 80.7993 17.67C80.5764 18.342 80.4092 19.0308 80.2977 19.7364C80.2048 20.442 80.1584 21.0132 80.1584 21.45C80.1584 22.542 80.4835 23.088 81.1337 23.088ZM104.045 23.9952C103.265 24.2808 102.438 24.4824 101.565 24.6C100.711 24.7344 99.7354 24.8016 98.6393 24.8016C97.6732 24.8016 96.7815 24.7176 95.9641 24.5496C95.1652 24.3648 94.4686 24.0792 93.8741 23.6928C93.2796 23.3064 92.8151 22.8108 92.4807 22.206C92.1463 21.5844 91.9791 20.8368 91.9791 19.9632C91.9791 19.056 92.1463 18.216 92.4807 17.4432C92.8337 16.6536 93.3539 15.9648 94.0413 15.3768C94.7472 14.7888 95.639 14.3268 96.7165 13.9908C97.794 13.6548 99.0759 13.4868 100.562 13.4868C101.77 13.4868 102.819 13.5792 103.711 13.764C104.603 13.932 105.337 14.3268 105.912 14.9484L105.132 18.174H101.342C101.361 17.8884 101.379 17.6364 101.398 17.418C101.417 17.1996 101.426 16.956 101.426 16.6872C101.426 16.1496 101.361 15.7716 101.231 15.5532C101.101 15.318 100.887 15.2004 100.59 15.2004C100.07 15.2004 99.6146 15.4356 99.2245 15.906C98.8343 16.3596 98.5092 16.914 98.2491 17.5692C98.0076 18.2076 97.8219 18.888 97.6918 19.6104C97.5803 20.316 97.5246 20.9208 97.5246 21.4248C97.5246 21.6096 97.5339 21.8028 97.5525 22.0044C97.5711 22.1892 97.6082 22.3656 97.6639 22.5336C97.7383 22.7016 97.8311 22.836 97.9426 22.9368C98.0541 23.0376 98.212 23.088 98.4163 23.088C98.6021 23.088 98.8158 23.0376 99.0573 22.9368C99.2988 22.836 99.531 22.6848 99.7539 22.4832C99.9769 22.2648 100.191 21.9876 100.395 21.6516C100.599 21.3156 100.757 20.9124 100.869 20.442H104.854L104.045 23.9952ZM114.481 18.3504L120.974 13.764H124.652L119.107 17.8716L123.259 24.6H117.017L114.174 19.5348L113.004 24.6H107.319L111.276 7.66559H116.989L114.481 18.3504ZM134.228 16.9392C134.247 16.8552 134.265 16.7712 134.284 16.6872C134.303 16.6032 134.312 16.5108 134.312 16.41C134.312 16.1076 134.247 15.8304 134.117 15.5784C134.005 15.3096 133.773 15.1752 133.42 15.1752C133.104 15.1752 132.789 15.3012 132.473 15.5532C132.157 15.7884 131.999 16.1076 131.999 16.5108C131.999 16.7796 132.073 16.998 132.222 17.166C132.389 17.3172 132.603 17.4432 132.863 17.544C133.123 17.6448 133.411 17.7288 133.727 17.796C134.061 17.8632 134.386 17.9304 134.702 17.9976C135.148 18.0984 135.566 18.2244 135.956 18.3756C136.365 18.51 136.727 18.6948 137.043 18.93C137.359 19.1652 137.609 19.4592 137.795 19.812C137.981 20.148 138.074 20.568 138.074 21.072C138.074 21.7776 137.888 22.374 137.517 22.8612C137.164 23.3316 136.662 23.718 136.012 24.0204C135.38 24.306 134.628 24.5076 133.755 24.6252C132.9 24.7428 131.98 24.8016 130.996 24.8016C129.491 24.8016 128.246 24.7008 127.262 24.4992C126.277 24.2976 125.59 24.1044 125.2 23.9196L125.785 21.3996H129.547C129.528 21.4836 129.519 21.5676 129.519 21.6516C129.519 21.7188 129.519 21.7944 129.519 21.8784C129.519 22.2648 129.612 22.5756 129.798 22.8108C130.002 23.0292 130.346 23.1384 130.829 23.1384C131.367 23.1384 131.748 23.004 131.971 22.7352C132.213 22.4496 132.333 22.1892 132.333 21.954C132.333 21.7188 132.231 21.5172 132.027 21.3492C131.841 21.1644 131.6 21.0132 131.302 20.8956C131.005 20.7612 130.671 20.652 130.299 20.568C129.946 20.4672 129.602 20.3748 129.268 20.2908C129.027 20.2404 128.748 20.1564 128.432 20.0388C128.135 19.9212 127.847 19.7532 127.568 19.5348C127.29 19.3164 127.057 19.0392 126.872 18.7032C126.686 18.3504 126.593 17.9136 126.593 17.3928C126.593 16.6536 126.788 16.0404 127.178 15.5532C127.587 15.0492 128.107 14.646 128.739 14.3436C129.389 14.0412 130.113 13.8228 130.912 13.6884C131.73 13.554 132.547 13.4868 133.364 13.4868C134.386 13.4868 135.352 13.5708 136.263 13.7388C137.173 13.9068 137.916 14.1252 138.492 14.394L137.851 16.9392H134.228ZM145.049 28.8336H139.364L142.876 13.764H147.418L147.919 15.3768H148.087C148.755 14.7384 149.499 14.2848 150.316 14.016C151.152 13.7304 151.969 13.5876 152.768 13.5876C153.419 13.5876 153.957 13.68 154.385 13.8648C154.83 14.0328 155.183 14.268 155.443 14.5704C155.704 14.8728 155.889 15.234 156.001 15.654C156.112 16.074 156.168 16.5192 156.168 16.9896C156.168 17.2248 156.149 17.5776 156.112 18.048C156.075 18.5184 155.992 19.0476 155.861 19.6356C155.731 20.2068 155.546 20.8032 155.304 21.4248C155.063 22.0296 154.738 22.584 154.329 23.088C153.939 23.592 153.437 24.0036 152.824 24.3228C152.23 24.642 151.514 24.8016 150.678 24.8016C150.214 24.8016 149.759 24.7512 149.313 24.6504C148.886 24.5496 148.495 24.4152 148.142 24.2472C147.789 24.0792 147.474 23.886 147.195 23.6676C146.935 23.4324 146.74 23.1972 146.61 22.962H146.443L145.049 28.8336ZM148.003 22.3572C148.449 22.3572 148.821 22.1472 149.118 21.7272C149.415 21.2904 149.657 20.7864 149.842 20.2152C150.028 19.6272 150.158 19.0476 150.232 18.4764C150.325 17.8884 150.372 17.4516 150.372 17.166C150.372 16.83 150.307 16.5528 150.177 16.3344C150.065 16.116 149.852 16.0068 149.536 16.0068C149.183 16.0068 148.848 16.1244 148.533 16.3596C148.217 16.578 147.985 16.7712 147.836 16.9392L146.749 21.5508C146.898 21.7356 147.074 21.9204 147.279 22.1052C147.483 22.2732 147.724 22.3572 148.003 22.3572ZM164.388 19.5348C164.314 19.9044 164.258 20.2572 164.221 20.5932C164.202 20.9292 164.193 21.2316 164.193 21.5004C164.193 21.6516 164.202 21.8196 164.221 22.0044C164.239 22.1892 164.277 22.3656 164.332 22.5336C164.407 22.6848 164.499 22.8192 164.611 22.9368C164.741 23.0376 164.917 23.088 165.14 23.088C165.308 23.088 165.493 23.0376 165.698 22.9368C165.921 22.836 166.134 22.6932 166.339 22.5084C166.562 22.3236 166.766 22.0968 166.952 21.828C167.156 21.5592 167.314 21.2568 167.425 20.9208H171.996L171.271 23.6172C170.9 23.8356 170.472 24.0204 169.989 24.1716C169.506 24.3228 168.995 24.4488 168.457 24.5496C167.918 24.6336 167.37 24.6924 166.812 24.726C166.255 24.7764 165.726 24.8016 165.224 24.8016C164.295 24.8016 163.431 24.726 162.632 24.5748C161.834 24.4236 161.137 24.1632 160.542 23.7936C159.948 23.424 159.474 22.9368 159.121 22.332C158.787 21.7104 158.62 20.946 158.62 20.0388C158.62 19.2156 158.759 18.4092 159.038 17.6196C159.335 16.83 159.818 16.1328 160.487 15.528C161.174 14.9064 162.084 14.4108 163.218 14.0412C164.369 13.6716 165.8 13.4868 167.509 13.4868C169.367 13.4868 170.76 13.7472 171.689 14.268C172.637 14.7888 173.11 15.6036 173.11 16.7124C173.11 17.166 173.036 17.6616 172.887 18.1992C172.739 18.72 172.516 19.1652 172.219 19.5348H164.388ZM168.094 16.536C168.094 16.0152 168.001 15.6624 167.816 15.4776C167.63 15.2928 167.407 15.2004 167.147 15.2004C166.85 15.2004 166.571 15.2928 166.311 15.4776C166.069 15.6456 165.846 15.8808 165.642 16.1832C165.438 16.4688 165.252 16.8048 165.085 17.1912C164.917 17.5608 164.778 17.9556 164.667 18.3756H167.843C167.881 18.174 167.918 17.964 167.955 17.7456C167.992 17.5608 168.02 17.3592 168.039 17.1408C168.076 16.9224 168.094 16.7208 168.094 16.536ZM181.021 19.5348C180.947 19.9044 180.891 20.2572 180.854 20.5932C180.835 20.9292 180.826 21.2316 180.826 21.5004C180.826 21.6516 180.835 21.8196 180.854 22.0044C180.872 22.1892 180.91 22.3656 180.965 22.5336C181.04 22.6848 181.133 22.8192 181.244 22.9368C181.374 23.0376 181.551 23.088 181.774 23.088C181.941 23.088 182.126 23.0376 182.331 22.9368C182.554 22.836 182.767 22.6932 182.972 22.5084C183.195 22.3236 183.399 22.0968 183.585 21.828C183.789 21.5592 183.947 21.2568 184.059 20.9208H188.629L187.904 23.6172C187.533 23.8356 187.105 24.0204 186.622 24.1716C186.139 24.3228 185.628 24.4488 185.09 24.5496C184.551 24.6336 184.003 24.6924 183.445 24.726C182.888 24.7764 182.359 24.8016 181.857 24.8016C180.928 24.8016 180.064 24.726 179.266 24.5748C178.467 24.4236 177.77 24.1632 177.176 23.7936C176.581 23.424 176.107 22.9368 175.754 22.332C175.42 21.7104 175.253 20.946 175.253 20.0388C175.253 19.2156 175.392 18.4092 175.671 17.6196C175.968 16.83 176.451 16.1328 177.12 15.528C177.807 14.9064 178.717 14.4108 179.851 14.0412C181.003 13.6716 182.433 13.4868 184.142 13.4868C186 13.4868 187.393 13.7472 188.322 14.268C189.27 14.7888 189.743 15.6036 189.743 16.7124C189.743 17.166 189.669 17.6616 189.52 18.1992C189.372 18.72 189.149 19.1652 188.852 19.5348H181.021ZM184.727 16.536C184.727 16.0152 184.634 15.6624 184.449 15.4776C184.263 15.2928 184.04 15.2004 183.78 15.2004C183.483 15.2004 183.204 15.2928 182.944 15.4776C182.702 15.6456 182.479 15.8808 182.275 16.1832C182.071 16.4688 181.885 16.8048 181.718 17.1912C181.551 17.5608 181.411 17.9556 181.3 18.3756H184.477C184.514 18.174 184.551 17.964 184.588 17.7456C184.625 17.5608 184.653 17.3592 184.672 17.1408C184.709 16.9224 184.727 16.7208 184.727 16.536ZM203.171 7.66559H208.884L204.899 24.6H200.384L199.883 22.9872H199.688C199.576 23.1384 199.4 23.3232 199.158 23.5416C198.935 23.7432 198.647 23.9448 198.294 24.1464C197.941 24.3312 197.523 24.4824 197.04 24.6C196.557 24.7344 196 24.8016 195.368 24.8016C194.718 24.8016 194.161 24.7176 193.696 24.5496C193.251 24.3648 192.879 24.1212 192.582 23.8188C192.303 23.5164 192.099 23.1552 191.969 22.7352C191.839 22.2984 191.774 21.828 191.774 21.324C191.774 21.1056 191.792 20.7612 191.829 20.2908C191.867 19.8036 191.95 19.2744 192.08 18.7032C192.229 18.1152 192.433 17.5188 192.693 16.914C192.972 16.2924 193.334 15.7296 193.78 15.2256C194.245 14.7216 194.811 14.31 195.48 13.9908C196.149 13.6548 196.957 13.4868 197.904 13.4868C198.202 13.4868 198.517 13.512 198.852 13.5624C199.186 13.6128 199.502 13.7052 199.799 13.8396C200.115 13.974 200.394 14.1672 200.635 14.4192C200.877 14.6712 201.053 14.9988 201.165 15.402H201.36L203.171 7.66559ZM199.771 15.9564C199.326 15.9564 198.954 16.1832 198.657 16.6368C198.359 17.0736 198.118 17.586 197.932 18.174C197.746 18.762 197.607 19.35 197.514 19.938C197.44 20.526 197.403 20.9628 197.403 21.2484C197.403 21.5844 197.458 21.87 197.57 22.1052C197.681 22.3236 197.895 22.4328 198.211 22.4328C198.397 22.4328 198.573 22.3992 198.74 22.332C198.926 22.248 199.093 22.1556 199.242 22.0548C199.409 21.9372 199.548 21.8196 199.66 21.702C199.771 21.5844 199.864 21.4836 199.939 21.3996L201.025 16.8132C200.895 16.6284 200.719 16.4436 200.496 16.2588C200.292 16.0572 200.05 15.9564 199.771 15.9564Z" fill="white"/>
</svg>
