<svg width="220" height="160" viewBox="0 0 220 160" fill="none" xmlns="http://www.w3.org/2000/svg">
<path d="M36.1416 80.752C36.1416 78.6752 37.1243 77.3856 38.5235 77.3856C39.9227 77.3856 40.9083 78.6656 40.9083 80.752C40.9083 82.8384 39.9256 84.1216 38.5235 84.1216C37.1213 84.1216 36.1416 82.832 36.1416 80.752ZM40.4624 80.752C40.4624 78.9024 39.6733 77.8304 38.5235 77.8304C37.3736 77.8304 36.5845 78.9024 36.5845 80.752C36.5845 82.6016 37.3765 83.6736 38.5235 83.6736C39.6704 83.6736 40.4624 82.6016 40.4624 80.752Z" fill="#E0E0E0" fill-opacity="0.15"/>
<path d="M53.3662 77.44V84.0832H52.9232V77.8688H51.436V77.44H53.3662Z" fill="#E0E0E0" fill-opacity="0.15"/>
<path d="M64.8795 80.752C64.8795 78.6752 65.8622 77.3856 67.2614 77.3856C68.6606 77.3856 69.6462 78.6656 69.6462 80.752C69.6462 82.8384 68.6606 84.1216 67.2614 84.1216C65.8622 84.1216 64.8795 82.832 64.8795 80.752ZM69.2003 80.752C69.2003 78.9024 68.4113 77.8304 67.2614 77.8304C66.1115 77.8304 65.3225 78.9024 65.3225 80.752C65.3225 82.6016 66.1145 83.6736 67.2614 83.6736C68.4083 83.6736 69.2003 82.6016 69.2003 80.752Z" fill="#EBEBEB" fill-opacity="0.2"/>
<path d="M79.2469 80.752C79.2469 78.6752 80.2296 77.3856 81.6318 77.3856C83.0339 77.3856 84.0136 78.6656 84.0136 80.752C84.0136 82.8384 83.031 84.1216 81.6318 84.1216C80.2326 84.1216 79.2469 82.832 79.2469 80.752ZM83.5707 80.752C83.5707 78.9024 82.7787 77.8304 81.6318 77.8304C80.4848 77.8304 79.6928 78.9024 79.6928 80.752C79.6928 82.6016 80.4819 83.6736 81.6318 83.6736C82.7816 83.6736 83.5707 82.6016 83.5707 80.752Z" fill="#E0E0E0" fill-opacity="0.15"/>
<path d="M96.1722 77.44V84.0832H95.7293V77.8688H94.2421V77.44H96.1722Z" fill="#E0E0E0" fill-opacity="0.15"/>
<path d="M107.985 80.752C107.985 78.6752 108.968 77.3856 110.37 77.3856C111.772 77.3856 112.752 78.6656 112.752 80.752C112.752 82.8384 111.769 84.1216 110.37 84.1216C108.97 84.1216 107.985 82.832 107.985 80.752ZM112.309 80.752C112.309 78.9024 111.517 77.8304 110.37 77.8304C109.223 77.8304 108.431 78.9024 108.431 80.752C108.431 82.6016 109.22 83.6736 110.37 83.6736C111.52 83.6736 112.309 82.6016 112.309 80.752Z" fill="#EBEBEB" fill-opacity="0.2"/>
<path d="M122.355 80.752C122.355 78.6752 123.338 77.3856 124.737 77.3856C126.136 77.3856 127.122 78.6656 127.122 80.752C127.122 82.8384 126.139 84.1216 124.737 84.1216C123.335 84.1216 122.355 82.832 122.355 80.752ZM126.676 80.752C126.676 78.9024 125.887 77.8304 124.737 77.8304C123.587 77.8304 122.798 78.9024 122.798 80.752C122.798 82.6016 123.59 83.6736 124.737 83.6736C125.884 83.6736 126.676 82.6016 126.676 80.752Z" fill="#E0E0E0" fill-opacity="0.15"/>
<path d="M36.1416 50.1408C36.1416 48.064 37.1243 46.7744 38.5235 46.7744C39.9227 46.7744 40.9083 48.0544 40.9083 50.1408C40.9083 52.2272 39.9256 53.5104 38.5235 53.5104C37.1213 53.5104 36.1416 52.2208 36.1416 50.1408ZM40.4624 50.1408C40.4624 48.2912 39.6733 47.2192 38.5235 47.2192C37.3736 47.2192 36.5845 48.2912 36.5845 50.1408C36.5845 51.9904 37.3765 53.0656 38.5235 53.0656C39.6704 53.0656 40.4624 51.9936 40.4624 50.1408Z" fill="#E0E0E0" fill-opacity="0.15"/>
<path d="M53.3662 46.8224V53.4624H52.9232V47.2576H51.436V46.8224H53.3662Z" fill="#E0E0E0" fill-opacity="0.15"/>
<path d="M64.8795 50.1408C64.8795 48.064 65.8622 46.7744 67.2614 46.7744C68.6606 46.7744 69.6462 48.0544 69.6462 50.1408C69.6462 52.2272 68.6635 53.5104 67.2614 53.5104C65.8593 53.5104 64.8795 52.2208 64.8795 50.1408ZM69.2003 50.1408C69.2003 48.2912 68.4113 47.2192 67.2614 47.2192C66.1115 47.2192 65.3225 48.2912 65.3225 50.1408C65.3225 51.9904 66.1145 53.0656 67.2614 53.0656C68.4083 53.0656 69.2003 51.9936 69.2003 50.1408Z" fill="#EBEBEB" fill-opacity="0.2"/>
<path d="M79.2469 50.1408C79.2469 48.064 80.2296 46.7744 81.6318 46.7744C83.0339 46.7744 84.0136 48.0544 84.0136 50.1408C84.0136 52.2272 83.031 53.5104 81.6318 53.5104C80.2326 53.5104 79.2469 52.2208 79.2469 50.1408ZM83.5707 50.1408C83.5707 48.2912 82.7787 47.2192 81.6318 47.2192C80.4848 47.2192 79.6928 48.2912 79.6928 50.1408C79.6928 51.9904 80.4819 53.0656 81.6318 53.0656C82.7816 53.0656 83.5707 51.9936 83.5707 50.1408Z" fill="#E0E0E0" fill-opacity="0.15"/>
<path d="M96.1751 46.8224V53.4624H95.7293V47.2576H94.2421V46.8224H96.1751Z" fill="#E0E0E0" fill-opacity="0.15"/>
<path d="M107.985 50.1408C107.985 48.064 108.968 46.7744 110.37 46.7744C111.772 46.7744 112.752 48.0544 112.752 50.1408C112.752 52.2272 111.769 53.5104 110.37 53.5104C108.97 53.5104 107.985 52.2208 107.985 50.1408ZM112.309 50.1408C112.309 48.2912 111.517 47.2192 110.37 47.2192C109.223 47.2192 108.431 48.2912 108.431 50.1408C108.431 51.9904 109.22 53.0656 110.37 53.0656C111.52 53.0656 112.309 51.9936 112.309 50.1408Z" fill="#EBEBEB" fill-opacity="0.2"/>
<path d="M122.355 50.1408C122.355 48.064 123.338 46.7744 124.737 46.7744C126.136 46.7744 127.122 48.0544 127.122 50.1408C127.122 52.2272 126.139 53.5104 124.737 53.5104C123.335 53.5104 122.355 52.2208 122.355 50.1408ZM126.676 50.1408C126.676 48.2912 125.887 47.2192 124.737 47.2192C123.587 47.2192 122.798 48.2912 122.798 50.1408C122.798 51.9904 123.59 53.0656 124.737 53.0656C125.884 53.0656 126.676 51.9936 126.676 50.1408Z" fill="#E0E0E0" fill-opacity="0.15"/>
<path d="M36.1416 65.04C36.1416 62.96 37.1243 61.6704 38.5235 61.6704C39.9227 61.6704 40.9083 62.9504 40.9083 65.04C40.9083 67.1296 39.9256 68.4064 38.5235 68.4064C37.1213 68.4064 36.1416 67.1168 36.1416 65.04ZM40.4624 65.04C40.4624 63.1904 39.6733 62.1184 38.5235 62.1184C37.3736 62.1184 36.5845 63.1904 36.5845 65.04C36.5845 66.8896 37.3765 67.9616 38.5235 67.9616C39.6704 67.9616 40.4624 66.88 40.4624 65.04Z" fill="#E0E0E0" fill-opacity="0.15"/>
<path d="M50.509 65.04C50.509 62.96 51.4917 61.6704 52.8938 61.6704C54.296 61.6704 55.2757 62.9504 55.2757 65.04C55.2757 67.1296 54.293 68.4064 52.8938 68.4064C51.4946 68.4064 50.509 67.1168 50.509 65.04ZM54.8328 65.04C54.8328 63.1904 54.0408 62.1184 52.8938 62.1184C51.7469 62.1184 50.9549 63.1904 50.9549 65.04C50.9549 66.8896 51.744 67.9616 52.8938 67.9616C54.0437 67.9616 54.8328 66.88 54.8328 65.04Z" fill="#EBEBEB" fill-opacity="0.2"/>
<path d="M64.8795 65.04C64.8795 62.96 65.8622 61.6704 67.2614 61.6704C68.6606 61.6704 69.6462 62.9504 69.6462 65.04C69.6462 67.1296 68.6635 68.4064 67.2614 68.4064C65.8593 68.4064 64.8795 67.1168 64.8795 65.04ZM69.2003 65.04C69.2003 63.1904 68.4113 62.1184 67.2614 62.1184C66.1115 62.1184 65.3225 63.1904 65.3225 65.04C65.3225 66.8896 66.1145 67.9616 67.2614 67.9616C68.4083 67.9616 69.2003 66.88 69.2003 65.04Z" fill="#E0E0E0" fill-opacity="0.15"/>
<path d="M82.104 61.7184V68.3584H81.661V62.1536H80.1738V61.7184H82.104Z" fill="#E0E0E0" fill-opacity="0.15"/>
<path d="M93.3182 65.4464C93.3182 63.3696 94.3009 62.08 95.7001 62.08C97.0993 62.08 98.082 63.36 98.082 65.4464C98.082 67.5328 97.0993 68.816 95.7001 68.816C94.3009 68.816 93.3182 67.52 93.3182 65.4464ZM97.639 65.4464C97.639 63.5968 96.847 62.5248 95.7001 62.5248C94.5532 62.5248 93.7612 63.5968 93.7612 65.4464C93.7612 67.296 94.5532 68.368 95.7001 68.368C96.847 68.368 97.639 67.296 97.639 65.4464Z" fill="#EBEBEB" fill-opacity="0.2"/>
<path d="M107.985 65.04C107.985 62.96 108.968 61.6704 110.37 61.6704C111.772 61.6704 112.752 62.9504 112.752 65.04C112.752 67.1296 111.769 68.4064 110.37 68.4064C108.97 68.4064 107.985 67.1168 107.985 65.04ZM112.309 65.04C112.309 63.1904 111.517 62.1184 110.37 62.1184C109.223 62.1184 108.431 63.1904 108.431 65.04C108.431 66.8896 109.22 67.9616 110.37 67.9616C111.52 67.9616 112.309 66.88 112.309 65.04Z" fill="#E0E0E0" fill-opacity="0.15"/>
<path d="M125.212 61.7184V68.3584H124.769V62.1536H123.279V61.7184H125.212Z" fill="#E0E0E0" fill-opacity="0.15"/>
<path d="M36.1416 20.912C36.1416 18.8352 37.1243 17.5424 38.5235 17.5424C39.9227 17.5424 40.9083 18.8224 40.9083 20.912C40.9083 23.0016 39.9256 24.2784 38.5235 24.2784C37.1213 24.2784 36.1416 22.9888 36.1416 20.912ZM40.4624 20.912C40.4624 19.0624 39.6733 17.9904 38.5235 17.9904C37.3736 17.9904 36.5845 19.0624 36.5845 20.912C36.5845 22.7616 37.3765 23.8336 38.5235 23.8336C39.6704 23.8336 40.4624 22.7616 40.4624 20.912Z" fill="#E0E0E0" fill-opacity="0.15"/>
<path d="M53.3662 17.6V24.2336H52.9232V18.0288H51.436V17.6H53.3662Z" fill="#E0E0E0" fill-opacity="0.15"/>
<path d="M64.8795 20.912C64.8795 18.8352 65.8622 17.5424 67.2614 17.5424C68.6606 17.5424 69.6462 18.8224 69.6462 20.912C69.6462 23.0016 68.6635 24.2784 67.2614 24.2784C65.8593 24.2784 64.8795 22.9888 64.8795 20.912ZM69.2003 20.912C69.2003 19.0624 68.4113 17.9904 67.2614 17.9904C66.1115 17.9904 65.3225 19.0624 65.3225 20.912C65.3225 22.7616 66.1145 23.8336 67.2614 23.8336C68.4083 23.8336 69.2003 22.7616 69.2003 20.912Z" fill="#EBEBEB" fill-opacity="0.2"/>
<path d="M79.2469 20.912C79.2469 18.8352 80.2296 17.5424 81.6318 17.5424C83.0339 17.5424 84.0136 18.8224 84.0136 20.912C84.0136 23.0016 83.031 24.2784 81.6318 24.2784C80.2326 24.2784 79.2469 22.9888 79.2469 20.912ZM83.5707 20.912C83.5707 19.0624 82.7787 17.9904 81.6318 17.9904C80.4848 17.9904 79.6928 19.0624 79.6928 20.912C79.6928 22.7616 80.4819 23.8336 81.6318 23.8336C82.7816 23.8336 83.5707 22.7616 83.5707 20.912Z" fill="#E0E0E0" fill-opacity="0.15"/>
<path d="M96.1751 17.6V24.2336H95.7293V18.0288H94.2421V17.6H96.1751Z" fill="#E0E0E0" fill-opacity="0.15"/>
<path d="M107.985 20.912C107.985 18.8352 108.968 17.5424 110.37 17.5424C111.772 17.5424 112.752 18.8224 112.752 20.912C112.752 23.0016 111.76 24.2784 110.37 24.2784C108.979 24.2784 107.985 22.9888 107.985 20.912ZM112.309 20.912C112.309 19.0624 111.517 17.9904 110.37 17.9904C109.223 17.9904 108.431 19.0624 108.431 20.912C108.431 22.7616 109.22 23.8336 110.37 23.8336C111.52 23.8336 112.309 22.7616 112.309 20.912Z" fill="#EBEBEB" fill-opacity="0.2"/>
<path d="M122.355 20.912C122.355 18.8352 123.338 17.5424 124.737 17.5424C126.136 17.5424 127.122 18.8224 127.122 20.912C127.122 23.0016 126.133 24.2784 124.737 24.2784C123.341 24.2784 122.355 22.9888 122.355 20.912ZM126.676 20.912C126.676 19.0624 125.887 17.9904 124.737 17.9904C123.587 17.9904 122.798 19.0624 122.798 20.912C122.798 22.7616 123.59 23.8336 124.737 23.8336C125.884 23.8336 126.676 22.7616 126.676 20.912Z" fill="#E0E0E0" fill-opacity="0.15"/>
<path d="M36.1416 35.808C36.1416 33.7312 37.1243 32.4416 38.5235 32.4416C39.9227 32.4416 40.9083 33.7216 40.9083 35.808C40.9083 37.8944 39.9256 39.1776 38.5235 39.1776C37.1213 39.1776 36.1416 37.8848 36.1416 35.808ZM40.4624 35.808C40.4624 33.9584 39.6733 32.8864 38.5235 32.8864C37.3736 32.8864 36.5845 33.9584 36.5845 35.808C36.5845 37.6576 37.3765 38.7296 38.5235 38.7296C39.6704 38.7296 40.4624 37.6576 40.4624 35.808Z" fill="#E0E0E0" fill-opacity="0.15"/>
<path d="M50.509 35.808C50.509 33.7312 51.4917 32.4416 52.8938 32.4416C54.296 32.4416 55.2757 33.7216 55.2757 35.808C55.2757 37.8944 54.293 39.1776 52.8938 39.1776C51.4946 39.1776 50.509 37.8848 50.509 35.808ZM54.8328 35.808C54.8328 33.9584 54.0408 32.8864 52.8938 32.8864C51.7469 32.8864 50.9549 33.9584 50.9549 35.808C50.9549 37.6576 51.744 38.7296 52.8938 38.7296C54.0437 38.7296 54.8328 37.6576 54.8328 35.808Z" fill="#EBEBEB" fill-opacity="0.2"/>
<path d="M64.8795 35.808C64.8795 33.7312 65.8622 32.4416 67.2614 32.4416C68.6606 32.4416 69.6462 33.7216 69.6462 35.808C69.6462 37.8944 68.6635 39.1776 67.2614 39.1776C65.8593 39.1776 64.8795 37.8848 64.8795 35.808ZM69.2003 35.808C69.2003 33.9584 68.4113 32.8864 67.2614 32.8864C66.1115 32.8864 65.3225 33.9584 65.3225 35.808C65.3225 37.6576 66.1145 38.7296 67.2614 38.7296C68.4083 38.7296 69.2003 37.6576 69.2003 35.808Z" fill="#E0E0E0" fill-opacity="0.15"/>
<path d="M82.104 32.4864V39.1296H81.661V32.9248H80.1738V32.4864H82.104Z" fill="#E0E0E0" fill-opacity="0.15"/>
<path d="M93.3182 36.2176C93.3182 34.1376 94.3009 32.848 95.7001 32.848C97.0993 32.848 98.082 34.128 98.082 36.2176C98.082 38.3072 97.0934 39.584 95.7001 39.584C94.3068 39.584 93.3182 38.2944 93.3182 36.2176ZM97.639 36.2176C97.639 34.3648 96.847 33.296 95.7001 33.296C94.5532 33.296 93.7612 34.3648 93.7612 36.2176C93.7612 38.0704 94.5532 39.1392 95.7001 39.1392C96.847 39.1392 97.639 38.08 97.639 36.2176Z" fill="#EBEBEB" fill-opacity="0.2"/>
<path d="M107.985 35.808C107.985 33.7312 108.968 32.4416 110.37 32.4416C111.772 32.4416 112.752 33.7216 112.752 35.808C112.752 37.8944 111.769 39.1776 110.37 39.1776C108.97 39.1776 107.985 37.8848 107.985 35.808ZM112.309 35.808C112.309 33.9584 111.517 32.8864 110.37 32.8864C109.223 32.8864 108.431 33.9584 108.431 35.808C108.431 37.6576 109.22 38.7296 110.37 38.7296C111.52 38.7296 112.309 37.6576 112.309 35.808Z" fill="#E0E0E0" fill-opacity="0.15"/>
<path d="M125.212 32.4864V39.1296H124.769V32.9248H123.279V32.4864H125.212Z" fill="#E0E0E0" fill-opacity="0.15"/>
<path d="M136.834 80.752C136.834 78.6752 137.817 77.3856 139.216 77.3856C140.615 77.3856 141.601 78.6656 141.601 80.752C141.601 82.8384 140.618 84.1216 139.216 84.1216C137.814 84.1216 136.834 82.832 136.834 80.752ZM141.155 80.752C141.155 78.9024 140.366 77.8304 139.216 77.8304C138.066 77.8304 137.277 78.9024 137.277 80.752C137.277 82.6016 138.069 83.6736 139.216 83.6736C140.363 83.6736 141.155 82.6016 141.155 80.752Z" fill="#EBEBEB" fill-opacity="0.2"/>
<path d="M151.204 80.752C151.204 78.6752 152.184 77.3856 153.586 77.3856C154.988 77.3856 155.968 78.6656 155.968 80.752C155.968 82.8384 154.986 84.1216 153.586 84.1216C152.187 84.1216 151.204 82.832 151.204 80.752ZM155.525 80.752C155.525 78.9024 154.733 77.8304 153.586 77.8304C152.439 77.8304 151.647 78.9024 151.647 80.752C151.647 82.6016 152.439 83.6736 153.586 83.6736C154.733 83.6736 155.525 82.6016 155.525 80.752Z" fill="#E0E0E0" fill-opacity="0.15"/>
<path d="M168.13 77.44V84.0832H167.684V77.8688H166.197V77.44H168.13Z" fill="#E0E0E0" fill-opacity="0.15"/>
<path d="M179.942 80.752C179.942 78.6752 180.922 77.3856 182.324 77.3856C183.726 77.3856 184.706 78.6656 184.706 80.752C184.706 82.8384 183.723 84.1216 182.324 84.1216C180.925 84.1216 179.942 82.832 179.942 80.752ZM184.263 80.752C184.263 78.9024 183.471 77.8304 182.324 77.8304C181.177 77.8304 180.385 78.9024 180.385 80.752C180.385 82.6016 181.177 83.6736 182.324 83.6736C183.471 83.6736 184.263 82.6016 184.263 80.752Z" fill="#EBEBEB" fill-opacity="0.2"/>
<path d="M136.834 50.1408C136.834 48.064 137.817 46.7744 139.216 46.7744C140.615 46.7744 141.601 48.0544 141.601 50.1408C141.601 52.2272 140.618 53.5104 139.216 53.5104C137.814 53.5104 136.834 52.2208 136.834 50.1408ZM141.155 50.1408C141.155 48.2912 140.366 47.2192 139.216 47.2192C138.066 47.2192 137.277 48.2912 137.277 50.1408C137.277 51.9904 138.069 53.0656 139.216 53.0656C140.363 53.0656 141.155 51.9936 141.155 50.1408Z" fill="#EBEBEB" fill-opacity="0.2"/>
<path d="M151.204 50.1408C151.204 48.064 152.184 46.7744 153.586 46.7744C154.988 46.7744 155.968 48.0544 155.968 50.1408C155.968 52.2272 154.986 53.5104 153.586 53.5104C152.187 53.5104 151.204 52.2208 151.204 50.1408ZM155.525 50.1408C155.525 48.2912 154.733 47.2192 153.586 47.2192C152.439 47.2192 151.647 48.2912 151.647 50.1408C151.647 51.9904 152.439 53.0656 153.586 53.0656C154.733 53.0656 155.525 51.9936 155.525 50.1408Z" fill="#E0E0E0" fill-opacity="0.15"/>
<path d="M168.13 46.8224V53.4624H167.684V47.2576H166.197V46.8224H168.13Z" fill="#E0E0E0" fill-opacity="0.15"/>
<path d="M179.942 50.1408C179.942 48.064 180.925 46.7744 182.324 46.7744C183.723 46.7744 184.706 48.0544 184.706 50.1408C184.706 52.2272 183.723 53.5104 182.324 53.5104C180.925 53.5104 179.942 52.2208 179.942 50.1408ZM184.263 50.1408C184.263 48.2912 183.471 47.2192 182.324 47.2192C181.177 47.2192 180.385 48.2912 180.385 50.1408C180.385 51.9904 181.177 53.0656 182.324 53.0656C183.471 53.0656 184.263 51.9936 184.263 50.1408Z" fill="#EBEBEB" fill-opacity="0.2"/>
<path d="M136.834 65.04C136.834 62.96 137.817 61.6704 139.216 61.6704C140.615 61.6704 141.601 62.9504 141.601 65.04C141.601 67.1296 140.618 68.4064 139.216 68.4064C137.814 68.4064 136.834 67.1168 136.834 65.04ZM141.158 65.04C141.158 63.1904 140.366 62.1184 139.216 62.1184C138.066 62.1184 137.277 63.1904 137.277 65.04C137.277 66.8896 138.069 67.9616 139.216 67.9616C140.363 67.9616 141.158 66.88 141.158 65.04Z" fill="#E0E0E0" fill-opacity="0.15"/>
<path d="M154.059 61.7184V68.3584H153.616V62.1536H152.129V61.7184H154.059Z" fill="#E0E0E0" fill-opacity="0.15"/>
<path d="M165.273 65.4464C165.273 63.3696 166.255 62.08 167.655 62.08C169.054 62.08 170.039 63.36 170.039 65.4464C170.039 67.5328 169.054 68.816 167.655 68.816C166.255 68.816 165.273 67.52 165.273 65.4464ZM169.594 65.4464C169.594 63.5968 168.805 62.5248 167.655 62.5248C166.505 62.5248 165.716 63.5968 165.716 65.4464C165.716 67.296 166.508 68.368 167.655 68.368C168.802 68.368 169.594 67.296 169.594 65.4464Z" fill="#EBEBEB" fill-opacity="0.2"/>
<path d="M179.942 65.04C179.942 62.96 180.925 61.6704 182.324 61.6704C183.723 61.6704 184.706 62.9504 184.706 65.04C184.706 67.1296 183.723 68.4064 182.324 68.4064C180.925 68.4064 179.942 67.1168 179.942 65.04ZM184.263 65.04C184.263 63.1904 183.471 62.1184 182.324 62.1184C181.177 62.1184 180.385 63.1904 180.385 65.04C180.385 66.8896 181.177 67.9616 182.324 67.9616C183.471 67.9616 184.263 66.88 184.263 65.04Z" fill="#E0E0E0" fill-opacity="0.15"/>
<path d="M136.834 20.912C136.834 18.8352 137.817 17.5424 139.216 17.5424C140.615 17.5424 141.601 18.8224 141.601 20.912C141.601 23.0016 140.618 24.2784 139.216 24.2784C137.814 24.2784 136.834 22.9888 136.834 20.912ZM141.155 20.912C141.155 19.0624 140.366 17.9904 139.216 17.9904C138.066 17.9904 137.28 19.0624 137.28 20.912C137.28 22.7616 138.072 23.8336 139.219 23.8336C140.366 23.8336 141.155 22.7616 141.155 20.912Z" fill="#EBEBEB" fill-opacity="0.2"/>
<path d="M151.204 20.912C151.204 18.8352 152.184 17.5424 153.586 17.5424C154.988 17.5424 155.968 18.8224 155.968 20.912C155.968 23.0016 154.986 24.2784 153.586 24.2784C152.187 24.2784 151.204 22.9888 151.204 20.912ZM155.525 20.912C155.525 19.0624 154.733 17.9904 153.586 17.9904C152.439 17.9904 151.653 19.0624 151.653 20.912C151.653 22.7616 152.445 23.8336 153.592 23.8336C154.739 23.8336 155.525 22.7616 155.525 20.912Z" fill="#E0E0E0" fill-opacity="0.15"/>
<path d="M168.13 17.6V24.2336H167.684V18.0288H166.197V17.6H168.13Z" fill="#E0E0E0" fill-opacity="0.15"/>
<path d="M179.942 20.912C179.942 18.8352 180.925 17.5424 182.324 17.5424C183.723 17.5424 184.706 18.8224 184.706 20.912C184.706 23.0016 183.723 24.2784 182.324 24.2784C180.925 24.2784 179.942 22.9888 179.942 20.912ZM184.263 20.912C184.263 19.0624 183.471 17.9904 182.324 17.9904C181.177 17.9904 180.4 19.0624 180.4 20.912C180.4 22.7616 181.192 23.8336 182.339 23.8336C183.486 23.8336 184.263 22.7616 184.263 20.912Z" fill="#EBEBEB" fill-opacity="0.2"/>
<path d="M136.834 35.808C136.834 33.7312 137.817 32.4416 139.216 32.4416C140.615 32.4416 141.601 33.7216 141.601 35.808C141.601 37.8944 140.618 39.1776 139.216 39.1776C137.814 39.1776 136.834 37.8848 136.834 35.808ZM141.158 35.808C141.158 33.9584 140.366 32.8864 139.216 32.8864C138.066 32.8864 137.28 33.9584 137.28 35.808C137.28 37.6576 138.072 38.7296 139.219 38.7296C140.366 38.7296 141.158 37.6576 141.158 35.808Z" fill="#E0E0E0" fill-opacity="0.15"/>
<path d="M154.059 32.4864V39.1296H153.616V32.9248H152.129V32.4864H154.059Z" fill="#E0E0E0" fill-opacity="0.15"/>
<path d="M165.273 36.2176C165.273 34.1376 166.255 32.848 167.655 32.848C169.054 32.848 170.039 34.128 170.039 36.2176C170.039 38.3072 169.054 39.584 167.655 39.584C166.255 39.584 165.273 38.2944 165.273 36.2176ZM169.594 36.2176C169.594 34.3648 168.805 33.296 167.655 33.296C166.505 33.296 165.716 34.3648 165.716 36.2176C165.716 38.0704 166.508 39.1392 167.655 39.1392C168.802 39.1392 169.594 38.08 169.594 36.2176Z" fill="#EBEBEB" fill-opacity="0.2"/>
<path d="M179.942 35.808C179.942 33.7312 180.925 32.4416 182.324 32.4416C183.723 32.4416 184.706 33.7216 184.706 35.808C184.706 37.8944 183.723 39.1776 182.324 39.1776C180.925 39.1776 179.942 37.8848 179.942 35.808ZM184.263 35.808C184.263 33.9584 183.471 32.8864 182.324 32.8864C181.177 32.8864 180.4 33.9584 180.4 35.808C180.4 37.6576 181.192 38.7296 182.339 38.7296C183.486 38.7296 184.263 37.6576 184.263 35.808Z" fill="#E0E0E0" fill-opacity="0.15"/>
<path d="M164.704 43.2704H55.3198C52.9594 43.2704 51.0459 45.3578 51.0459 47.9328V123.683C51.0459 126.258 52.9594 128.346 55.3198 128.346H164.704C167.064 128.346 168.978 126.258 168.978 123.683V47.9328C168.978 45.3578 167.064 43.2704 164.704 43.2704Z" fill="#263238"/>
<path d="M46.115 122.054H173.885V123.805C173.885 125.315 173.335 126.764 172.356 127.832C171.377 128.901 170.049 129.501 168.664 129.501H51.3334C49.9486 129.501 48.6205 128.901 47.6414 127.832C46.6622 126.764 46.1121 125.315 46.1121 123.805V122.054H46.115Z" fill="#263238"/>
<path d="M165.484 46.6528H54.2139V118.499H165.484V46.6528Z" fill="#504747"/>
<path d="M98.387 122.054L99.971 124.806H122.282L123.754 122.054H98.387Z" fill="#455A64"/>
<path d="M162.46 49.0848H57.4641C56.9343 49.0848 56.5049 49.5533 56.5049 50.1312V117.222C56.5049 117.8 56.9343 118.269 57.4641 118.269H162.46C162.99 118.269 163.419 117.8 163.419 117.222V50.1312C163.419 49.5533 162.99 49.0848 162.46 49.0848Z" fill="#455A64"/>
<path d="M163.419 54.1536H56.5049V118.269H163.419V54.1536Z" fill="#282E31"/>
<path d="M65.2726 51.7568C65.2721 51.9408 65.2215 52.1205 65.1274 52.2733C65.0332 52.426 64.8997 52.5448 64.7437 52.6148C64.5876 52.6848 64.4161 52.7028 64.2507 52.6665C64.0853 52.6302 63.9335 52.5413 63.8144 52.4109C63.6953 52.2806 63.6143 52.1146 63.5816 51.9341C63.5489 51.7535 63.566 51.5665 63.6307 51.3965C63.6954 51.2265 63.8048 51.0813 63.9451 50.9791C64.0854 50.8769 64.2503 50.8224 64.419 50.8224C64.5314 50.8224 64.6426 50.8466 64.7464 50.8936C64.8501 50.9406 64.9444 51.0095 65.0237 51.0963C65.103 51.1831 65.1658 51.2861 65.2085 51.3994C65.2512 51.5128 65.273 51.6342 65.2726 51.7568Z" fill="#FF2C2C"/>
<path d="M60.0981 51.7568C60.0975 51.9408 60.0469 52.1205 59.9528 52.2733C59.8586 52.426 59.7251 52.5448 59.5691 52.6148C59.4131 52.6848 59.2415 52.7028 59.0761 52.6665C58.9108 52.6302 58.7589 52.5413 58.6398 52.4109C58.5208 52.2806 58.4398 52.1146 58.4071 51.9341C58.3744 51.7535 58.3914 51.5665 58.4561 51.3965C58.5208 51.2265 58.6302 51.0813 58.7705 50.9791C58.9108 50.8769 59.0758 50.8224 59.2445 50.8224C59.3568 50.8224 59.468 50.8466 59.5718 50.8936C59.6756 50.9406 59.7698 51.0095 59.8491 51.0963C59.9284 51.1831 59.9912 51.2861 60.0339 51.3994C60.0767 51.5128 60.0985 51.6342 60.0981 51.7568Z" fill="#FF2C2C"/>
<path d="M62.5827 51.7568C62.5821 51.9408 62.5315 52.1205 62.4374 52.2733C62.3433 52.426 62.2097 52.5448 62.0537 52.6148C61.8977 52.6848 61.7262 52.7028 61.5608 52.6665C61.3954 52.6302 61.2436 52.5413 61.1245 52.4109C61.0054 52.2806 60.9244 52.1146 60.8917 51.9341C60.859 51.7535 60.8761 51.5665 60.9407 51.3965C61.0054 51.2265 61.1148 51.0813 61.2552 50.9791C61.3955 50.8769 61.5604 50.8224 61.7291 50.8224C61.8414 50.8224 61.9527 50.8466 62.0564 50.8936C62.1602 50.9406 62.2544 51.0095 62.3337 51.0963C62.413 51.1831 62.4758 51.2861 62.5186 51.3994C62.5613 51.5128 62.5831 51.6342 62.5827 51.7568Z" fill="#FF2C2C"/>
<path d="M136.473 80.8576L136.805 80.8288C136.913 80.8288 137.048 80.7904 137.21 80.7616C137.392 80.7147 137.571 80.6549 137.746 80.5824C138.239 80.3757 138.683 80.0534 139.049 79.6384C139.28 79.374 139.477 79.0769 139.635 78.7552C139.811 78.3856 139.933 77.9883 139.996 77.5776C140.079 77.0494 140.06 76.5083 139.942 75.9882C139.825 75.4681 139.609 74.9801 139.311 74.5548C139.012 74.1295 138.636 73.776 138.206 73.5165C137.777 73.2569 137.303 73.0969 136.814 73.0464C136.52 73.024 136.227 73.0272 135.934 73.0272H133.115H128.961L83.4533 73.0496C82.6356 73.054 81.8443 73.3658 81.2128 73.9323C80.5812 74.4989 80.148 75.2856 79.9861 76.16C79.8831 76.7314 79.8982 77.3206 80.0301 77.8848C80.2316 78.7187 80.6829 79.4551 81.3122 79.977C81.9415 80.4988 82.7127 80.7761 83.5031 80.7648H85.0813H97.1637L117.624 80.7808L131.41 80.8096H135.159H136.136H136.467C136.467 80.8096 136.356 80.8096 136.136 80.8096H135.159L131.41 80.8256L117.624 80.8512L97.1637 80.8704H83.5031C82.9599 80.8804 82.4215 80.7568 81.9279 80.5088C81.4252 80.262 80.9798 79.8953 80.6244 79.4356C80.269 78.9759 80.0127 78.435 79.8746 77.8528C79.733 77.263 79.7173 76.6456 79.8287 76.0482C79.94 75.4507 80.1755 74.889 80.517 74.4064C80.8624 73.9157 81.3066 73.5183 81.8152 73.2447C82.3238 72.9712 82.8833 72.8289 83.4503 72.8288L128.958 72.8544H133.112H135.936C136.23 72.8544 136.523 72.8544 136.816 72.8768C137.412 72.9426 137.983 73.1669 138.481 73.5302C138.978 73.8935 139.386 74.3845 139.668 74.96C139.951 75.5356 140.099 76.178 140.101 76.8309C140.102 77.4837 139.956 78.127 139.676 78.704C139.512 79.0285 139.31 79.3285 139.075 79.5968C138.701 80.0113 138.248 80.3323 137.749 80.5376C137.571 80.6084 137.389 80.6661 137.204 80.7104C137.042 80.736 136.91 80.7616 136.799 80.7712C136.588 80.8576 136.473 80.8576 136.473 80.8576Z" fill="white"/>
<path d="M136.473 80.8576H129.536V72.9792H136.473C137.431 72.9792 138.35 73.3942 139.027 74.133C139.704 74.8717 140.084 75.8736 140.084 76.9184C140.084 77.9631 139.704 78.9651 139.027 79.7038C138.35 80.4426 137.431 80.8576 136.473 80.8576Z" fill="#FF2C2C"/>
<path d="M135.262 76.176C135.247 76.176 135.247 76.0448 135.189 75.8176C135.104 75.5026 134.927 75.2269 134.684 75.0336C134.534 74.911 134.361 74.8251 134.178 74.7816C133.995 74.7382 133.805 74.7382 133.622 74.7818C133.439 74.8253 133.266 74.9113 133.116 75.0339C132.966 75.1565 132.842 75.313 132.752 75.4925C132.662 75.6721 132.609 75.8707 132.595 76.0747C132.582 76.2788 132.609 76.4836 132.675 76.6753C132.74 76.8669 132.843 77.041 132.975 77.1856C133.108 77.3303 133.268 77.4421 133.443 77.5136C133.649 77.5957 133.87 77.6211 134.087 77.5876C134.304 77.5541 134.51 77.4627 134.687 77.3216C134.929 77.1262 135.105 76.8496 135.189 76.5344C135.247 76.3104 135.247 76.176 135.262 76.176C135.267 76.2088 135.267 76.2424 135.262 76.2752C135.267 76.3677 135.259 76.4604 135.238 76.5504C135.171 76.8926 134.995 77.1983 134.743 77.4144C134.553 77.5761 134.33 77.6832 134.092 77.7257C133.855 77.7682 133.611 77.7448 133.385 77.6576C133.105 77.5487 132.862 77.348 132.691 77.0831C132.52 76.8181 132.428 76.5018 132.428 76.1776C132.428 75.8533 132.52 75.5371 132.691 75.2721C132.862 75.0071 133.105 74.8064 133.385 74.6976C133.611 74.609 133.854 74.5846 134.092 74.6266C134.33 74.6685 134.553 74.7755 134.743 74.9376C134.995 75.1542 135.17 75.4596 135.238 75.8016C135.259 75.8926 135.267 75.9864 135.262 76.08C135.268 76.1117 135.268 76.1443 135.262 76.176Z" fill="white"/>
<path d="M137.107 78.6816C136.712 78.4886 136.338 78.2481 135.992 77.9648C135.62 77.7276 135.275 77.4441 134.963 77.12C135.733 77.547 136.453 78.0746 137.107 78.6912V78.6816Z" fill="white"/>
<path d="M84.3245 79.1328C84.2485 78.3892 84.223 77.6405 84.2482 76.8928C84.2229 76.1451 84.2484 75.3964 84.3245 74.6528C84.4006 75.3964 84.4261 76.1451 84.4008 76.8928C84.426 77.6405 84.4005 78.3892 84.3245 79.1328Z" fill="white"/>
<path d="M92.8752 94.4448H75.5421V112.739H92.8752V94.4448Z" fill="#E0E0E0"/>
<path d="M76.8887 111.174L81.6817 101.76L85.6036 107.776L87.9884 104.582L91.5319 111.174H76.8887Z" fill="#FF2C2C"/>
<path d="M87.2754 99.9296C87.276 100.199 87.2032 100.463 87.0661 100.688C86.929 100.913 86.7339 101.088 86.5054 101.192C86.2769 101.295 86.0255 101.322 85.7828 101.27C85.5401 101.217 85.3172 101.088 85.1423 100.897C84.9673 100.706 84.8482 100.463 84.8001 100.198C84.752 99.9332 84.777 99.6589 84.8719 99.4096C84.9669 99.1604 85.1275 98.9475 85.3334 98.798C85.5394 98.6484 85.7814 98.569 86.0288 98.5696C86.3594 98.5696 86.6765 98.7129 86.9103 98.9679C87.1441 99.223 87.2754 99.5689 87.2754 99.9296Z" fill="#FF2C2C"/>
<path d="M91.5201 111.226C91.5201 111.226 91.5201 111.197 91.5201 111.149C91.5201 111.101 91.5201 111.024 91.5201 110.938C91.5201 110.741 91.5201 110.466 91.5201 110.112C91.5201 109.389 91.5201 108.339 91.4996 107.008C91.4996 104.336 91.479 100.528 91.4644 95.9616L91.5348 96.0384H76.8916C76.871 96.0576 77.047 95.8688 76.9737 95.952V98.016C76.9737 98.7029 76.9737 99.3824 76.9737 100.054V104C76.9737 106.56 76.9737 108.982 76.9737 111.213L76.9033 111.133L87.4897 111.174L90.4788 111.194H91.2708H91.4761H91.5465H91.4849H91.2854H90.5081L87.5366 111.216L76.9033 111.254H76.83V111.178C76.83 108.938 76.83 106.525 76.83 103.965V100.07C76.83 99.3984 76.83 98.7189 76.83 98.032V95.968C76.7566 96.0448 76.9326 95.8528 76.915 95.8752H91.5582H91.6316V95.952C91.614 100.541 91.6022 104.362 91.5934 107.046C91.5934 108.371 91.5788 109.414 91.5758 110.134C91.5758 110.483 91.5758 110.752 91.5758 110.944C91.5758 111.03 91.5758 111.098 91.5758 111.149C91.5617 111.178 91.5428 111.204 91.5201 111.226Z" fill="#455A64"/>
<path d="M120.466 94.4448H103.133V112.739H120.466V94.4448Z" fill="#FF2C2C"/>
<path d="M104.477 111.174L109.273 101.76L113.195 107.776L115.576 104.582L119.123 111.174H104.477Z" fill="#E0E0E0"/>
<path d="M114.864 99.9296C114.864 100.199 114.79 100.462 114.653 100.685C114.516 100.909 114.322 101.083 114.094 101.186C113.866 101.289 113.616 101.316 113.374 101.263C113.132 101.211 112.91 101.081 112.735 100.891C112.561 100.701 112.442 100.459 112.394 100.195C112.346 99.9311 112.371 99.6576 112.465 99.4091C112.559 99.1606 112.719 98.9482 112.924 98.7988C113.129 98.6493 113.37 98.5696 113.617 98.5696C113.948 98.5696 114.265 98.7129 114.498 98.9679C114.732 99.223 114.864 99.5689 114.864 99.9296Z" fill="#E0E0E0"/>
<path d="M119.123 111.226C119.123 111.226 119.123 111.197 119.123 111.149C119.123 111.101 119.123 111.024 119.123 110.938C119.123 110.741 119.123 110.466 119.123 110.112C119.123 109.389 119.123 108.339 119.105 107.008C119.105 104.336 119.085 100.528 119.07 95.9616L119.14 96.0384H104.497L104.576 95.952V100.054C104.576 101.398 104.576 102.713 104.576 103.997C104.576 106.557 104.576 108.979 104.576 111.21L104.503 111.13L115.092 111.171L118.078 111.19H118.87H119.076H119.149H119.085H118.888H118.108L115.139 111.213L104.503 111.251H104.432V111.174C104.432 108.934 104.432 106.522 104.432 103.962C104.432 102.682 104.432 101.367 104.432 100.019V95.968C104.359 96.0448 104.532 95.8528 104.518 95.8752H119.161H119.231V95.952C119.231 100.541 119.205 104.362 119.196 107.046C119.196 108.371 119.181 109.414 119.175 110.134C119.175 110.483 119.175 110.752 119.175 110.944C119.175 111.03 119.175 111.098 119.175 111.149C119.16 111.176 119.142 111.202 119.123 111.226Z" fill="#455A64"/>
<path d="M148.057 94.4448H130.724V112.739H148.057V94.4448Z" fill="#E0E0E0"/>
<path d="M132.068 111.174L136.861 101.76L140.782 107.776L143.167 104.582L146.711 111.174H132.068Z" fill="#FF2C2C"/>
<path d="M142.454 99.9296C142.455 100.199 142.382 100.463 142.245 100.688C142.108 100.913 141.913 101.088 141.684 101.192C141.456 101.295 141.204 101.322 140.962 101.27C140.719 101.217 140.496 101.088 140.321 100.897C140.146 100.706 140.027 100.463 139.979 100.198C139.931 99.9332 139.956 99.6589 140.051 99.4096C140.146 99.1604 140.306 98.9475 140.512 98.798C140.718 98.6484 140.96 98.569 141.208 98.5696C141.538 98.5696 141.855 98.7129 142.089 98.9679C142.323 99.223 142.454 99.5689 142.454 99.9296Z" fill="#FF2C2C"/>
<path d="M146.714 111.226C146.712 111.2 146.712 111.174 146.714 111.149C146.714 111.094 146.714 111.024 146.714 110.938C146.714 110.741 146.714 110.466 146.714 110.112C146.714 109.389 146.714 108.339 146.696 107.008C146.696 104.336 146.673 100.528 146.658 95.9616L146.731 96.0384H132.085C132.067 96.0576 132.241 95.8688 132.167 95.952V100.054C132.167 101.398 132.167 102.713 132.167 103.997C132.167 106.557 132.167 108.979 132.167 111.21L132.097 111.13L142.686 111.171L145.672 111.19H146.464H146.67H146.743H146.678H146.479H145.702L142.73 111.213L132.097 111.251H132V111.174C132 108.934 132 106.522 132 103.962C132 102.682 132 101.367 132 100.019V95.968C131.927 96.0448 132.1 95.8528 132.082 95.8752H146.728H146.799V95.952C146.799 100.541 146.769 104.362 146.761 107.046C146.761 108.371 146.761 109.414 146.743 110.134C146.743 110.483 146.743 110.752 146.743 110.944C146.743 111.03 146.743 111.098 146.743 111.149C146.743 111.2 146.714 111.226 146.714 111.226Z" fill="#455A64"/>
<path d="M120.938 63.7184H98.9854V65.7248H120.938V63.7184Z" fill="#E6EBED"/>
<path d="M167.966 122.054C167.966 122.102 141.789 122.138 109.507 122.138C77.2259 122.138 51.0459 122.102 51.0459 122.054C51.0459 122.006 77.2171 121.971 109.507 121.971C141.797 121.971 167.966 122.01 167.966 122.054Z" fill="#455A64"/>
<path d="M34.3522 87.0208C32.6919 87.3152 31.9498 89.5424 32.0935 91.3696C32.2372 93.1968 32.9295 94.9888 32.7447 96.8096C32.51 99.1264 30.9055 101.085 30.7178 103.408C30.4978 106.147 32.2724 108.576 32.8034 111.264C33.0615 112.573 33.0234 113.955 33.4692 115.2C33.8483 116.262 34.5537 117.148 35.465 117.706C36.3763 118.264 37.4369 118.46 38.4657 118.26C39.4945 118.06 40.4277 117.476 41.1059 116.609C41.7841 115.741 42.1652 114.644 42.1842 113.504C42.2194 111.402 41.0314 109.421 41.1751 107.322C41.2807 105.773 42.1138 104.301 41.9378 102.758C41.7236 100.925 40.1778 99.6224 39.6146 97.872C39.0514 96.1216 39.594 94.192 39.4034 92.352C39.0631 89.0528 37.3852 86.7552 34.3522 87.0176" fill="#FF2C2C"/>
<path d="M25.869 102.995C25.5757 106.051 26.8253 109.648 28.2655 112.275C29.7242 114.932 31.9209 117.012 34.537 118.214C34.8303 118.349 35.197 118.461 35.4434 118.243C35.5307 118.138 35.5964 118.014 35.6358 117.878C35.6753 117.743 35.6877 117.6 35.6722 117.459C35.6924 114.214 34.748 111.05 32.9806 108.44C31.2132 105.83 28.718 103.915 25.869 102.982" fill="#FF2C2C"/>
<path opacity="0.2" d="M25.869 102.995C25.5757 106.051 26.8253 109.648 28.2655 112.275C29.7242 114.932 31.9209 117.012 34.537 118.214C34.8303 118.349 35.197 118.461 35.4434 118.243C35.5307 118.138 35.5964 118.014 35.6358 117.878C35.6753 117.743 35.6877 117.6 35.6722 117.459C35.6924 114.214 34.748 111.05 32.9806 108.44C31.2132 105.83 28.718 103.915 25.869 102.982" fill="black"/>
<path d="M38.0747 124.618C38.0418 124.565 38.0152 124.508 37.9955 124.448L37.7931 123.946C37.6259 123.51 37.3736 122.883 37.0539 122.112C36.2194 120.103 35.2912 118.142 34.2731 116.237C33.2489 114.338 32.1377 112.497 30.9437 110.72C30.4861 110.035 30.1078 109.488 29.8408 109.12L29.5475 108.685C29.509 108.636 29.4764 108.582 29.4507 108.525C29.4968 108.565 29.5381 108.611 29.5739 108.662L29.8995 109.078C30.1781 109.44 30.5712 109.978 31.0435 110.653C32.2631 112.415 33.3865 114.254 34.408 116.16C35.4307 118.07 36.3484 120.045 37.1565 122.074C37.4499 122.854 37.7021 123.488 37.8517 123.936C37.9221 124.144 37.9779 124.314 38.0248 124.448C38.0479 124.502 38.0647 124.559 38.0747 124.618Z" fill="#263238"/>
<path d="M36.2705 95.4784C36.287 95.5756 36.2968 95.674 36.2999 95.7728C36.2999 95.9808 36.3321 96.2592 36.3556 96.6144C36.3996 97.36 36.4612 98.416 36.5404 99.712C36.69 102.326 36.9041 105.939 37.1593 109.926C37.4145 113.914 37.6697 117.526 37.8575 120.141C37.9484 121.421 38.0217 122.486 38.0745 123.235C38.0951 123.587 38.1127 123.875 38.1273 124.077C38.1345 124.175 38.1345 124.273 38.1273 124.371C38.1079 124.275 38.0951 124.178 38.0892 124.08C38.0687 123.872 38.0423 123.594 38.0071 123.242L37.7401 120.15C37.5231 117.539 37.2532 113.93 36.9951 109.939C36.7369 105.949 36.5433 102.336 36.4084 99.7184C36.3527 98.4224 36.3087 97.3664 36.2764 96.6176C36.2647 96.2613 36.2559 95.9797 36.25 95.7728C36.2498 95.6742 36.2566 95.5758 36.2705 95.4784Z" fill="#263238"/>
<path d="M33.6921 120.259H40.7087V125.878C40.7087 126.361 40.6216 126.838 40.4523 127.284C40.2831 127.73 40.0351 128.135 39.7224 128.476C39.4097 128.817 39.0384 129.088 38.6299 129.272C38.2213 129.457 37.7834 129.552 37.3412 129.552C36.4799 129.552 35.6514 129.192 35.0257 128.546C34.4 127.901 34.0246 127.018 33.9767 126.08L33.6921 120.259Z" fill="#455A64"/>
<path d="M189.311 120.17C190.374 119.626 191.569 119.468 192.72 119.718C193.339 119.83 193.984 120.038 194.404 120.538C194.823 121.037 194.905 121.936 194.421 122.371C194.109 122.601 193.734 122.705 193.359 122.666C192.459 122.666 191.459 122.48 190.74 123.072C190.329 123.392 190.056 123.971 189.567 124.138C189.321 124.197 189.064 124.169 188.835 124.057C188.605 123.945 188.414 123.756 188.291 123.517C188.055 123.024 188.004 122.45 188.147 121.917C188.205 121.547 188.34 121.198 188.542 120.895C188.744 120.592 189.007 120.343 189.311 120.17Z" fill="#FF2C2C"/>
<path d="M186.938 115.168C187.572 116.157 188.804 115.83 189.373 115.226C189.942 114.621 190.186 113.75 190.406 112.915C190.91 111.014 191.415 109.018 191.042 107.078C190.954 106.486 190.718 105.933 190.359 105.478C190.179 105.256 189.949 105.09 189.691 104.996C189.434 104.902 189.158 104.884 188.892 104.944C188.27 105.123 187.886 105.786 187.604 106.416C186.784 108.281 186.354 110.322 186.346 112.39C186.346 113.35 186.446 114.362 186.932 115.155" fill="#FF2C2C"/>
<path d="M185.196 116.586C185.521 116.122 185.738 115.578 185.828 115.002C185.917 114.426 185.877 113.835 185.709 113.28C185.363 112.17 184.741 111.187 183.914 110.438C182.972 109.526 181.876 108.822 180.687 108.368C180.229 108.165 179.736 108.074 179.241 108.099C178.994 108.115 178.755 108.197 178.543 108.337C178.331 108.477 178.154 108.671 178.027 108.902C177.69 109.606 178.027 110.458 178.364 111.142C178.982 112.375 179.688 113.552 180.476 114.662C181.11 115.555 181.834 116.432 182.799 116.835C183.765 117.238 184.765 117.19 185.278 116.461" fill="#FF2C2C"/>
<path d="M186.894 130.067C186.929 129.92 186.948 129.768 186.953 129.616C186.982 129.296 187.018 128.88 187.062 128.394C187.117 127.79 187.201 127.19 187.314 126.595C187.457 125.873 187.654 125.165 187.9 124.477C188.147 123.789 188.481 123.143 188.892 122.557C189.228 122.081 189.657 121.693 190.147 121.421C190.48 121.24 190.836 121.118 191.203 121.059C191.342 121.054 191.48 121.032 191.614 120.995C191.476 120.98 191.336 120.98 191.197 120.995C190.815 121.029 190.442 121.137 190.095 121.315C189.578 121.581 189.125 121.975 188.772 122.464C188.342 123.057 187.995 123.716 187.742 124.419C187.489 125.117 187.293 125.838 187.155 126.573C187.048 127.174 186.975 127.782 186.935 128.394C186.9 128.912 186.886 129.334 186.88 129.626C186.87 129.773 186.875 129.921 186.894 130.067Z" fill="#263238"/>
<path d="M186.971 129.123C186.98 129.054 186.98 128.984 186.971 128.915V128.32C186.971 127.802 186.971 127.056 186.994 126.131C187.035 124.285 187.182 121.734 187.463 118.934C187.745 116.134 188.123 113.61 188.467 111.798C188.546 111.347 188.628 110.938 188.704 110.582C188.78 110.227 188.839 109.914 188.901 109.664C188.962 109.414 188.995 109.238 189.027 109.085C189.047 109.019 189.059 108.95 189.062 108.88C189.031 108.941 189.009 109.007 188.995 109.075L188.836 109.645C188.766 109.894 188.695 110.202 188.613 110.557C188.531 110.912 188.437 111.318 188.349 111.773C187.88 114.13 187.527 116.513 187.293 118.912C187 121.722 186.886 124.278 186.874 126.128C186.874 127.056 186.874 127.805 186.903 128.323C186.903 128.563 186.93 128.762 186.938 128.915C186.942 128.986 186.953 129.055 186.971 129.123Z" fill="#263238"/>
<path d="M186.982 124.192C186.998 123.985 186.998 123.778 186.982 123.571C186.95 123.006 186.892 122.443 186.806 121.885C186.524 120.041 186.04 118.242 185.363 116.525C184.711 114.79 183.775 113.199 182.6 111.83C182.396 111.596 182.178 111.376 181.949 111.171C181.849 111.078 181.761 110.986 181.673 110.912C181.585 110.838 181.497 110.784 181.421 110.723C181.268 110.598 181.107 110.486 180.94 110.387C181.492 110.862 182.017 111.374 182.512 111.92C183.649 113.3 184.56 114.883 185.208 116.598C185.582 117.534 185.898 118.497 186.155 119.478C186.401 120.381 186.566 121.213 186.689 121.91C186.812 122.608 186.874 123.19 186.915 123.578C186.924 123.784 186.946 123.989 186.982 124.192Z" fill="#263238"/>
<path d="M194.941 60.9664L178.37 61.3408L178.816 84.912L195.395 84.992L194.941 60.9664Z" fill="#FF2C2C"/>
<path d="M193.867 61.8304L179.367 62.1568L179.772 83.536L194.281 83.7408L193.867 61.8304Z" fill="#FAFAFA" fill-opacity="0.15"/>
<path d="M191.4 65.7728L181.773 65.5904L182.054 80.5312L191.676 80.3136L191.4 65.7728Z" fill="#263238"/>
<path d="M182.054 80.5312L191.532 72.6368L181.773 65.5904L182.054 80.5312Z" fill="#455A64"/>
<path d="M189.3 41.4304L177.921 41.6864L178.229 57.872L189.611 57.9264L189.3 41.4304Z" fill="#455A64"/>
<path d="M188.563 42.0224L178.605 42.2464L178.883 56.9248L188.845 57.0688L188.563 42.0224Z" fill="#FAFAFA" fill-opacity="0.15"/>
<path d="M186.868 44.7296L180.256 44.6016L180.45 54.864L187.059 54.7136L186.868 44.7296Z" fill="#FF2C2C"/>
<path d="M184.691 49.6C184.691 49.6 184.732 49.4848 184.768 49.28C184.82 48.9854 184.781 48.6803 184.656 48.4128C184.558 48.1967 184.407 48.0144 184.22 47.8863C184.033 47.7581 183.817 47.6892 183.596 47.6871C183.375 47.685 183.158 47.7499 182.969 47.8745C182.78 47.9991 182.626 48.1785 182.525 48.3927C182.423 48.607 182.379 48.8477 182.395 49.0881C182.412 49.3285 182.49 49.5591 182.619 49.7542C182.749 49.9493 182.926 50.1013 183.13 50.1933C183.334 50.2853 183.558 50.3137 183.776 50.2752C184.056 50.2293 184.313 50.0815 184.507 49.856C184.642 49.6992 184.691 49.5904 184.703 49.5968C184.677 49.7096 184.624 49.8132 184.551 49.8976C184.366 50.149 184.105 50.3203 183.814 50.3808C183.597 50.4282 183.373 50.4145 183.162 50.3412C182.951 50.2679 182.761 50.1373 182.609 49.9616C182.42 49.7445 182.298 49.4688 182.259 49.1727C182.219 48.8765 182.265 48.5745 182.39 48.308C182.515 48.0416 182.713 47.824 182.956 47.6851C183.199 47.5463 183.475 47.4931 183.747 47.5328C183.966 47.5643 184.175 47.656 184.353 47.7993C184.531 47.9425 184.672 48.1327 184.765 48.352C184.889 48.6444 184.915 48.9752 184.838 49.2864C184.813 49.4022 184.763 49.5097 184.691 49.6Z" fill="#263238"/>
<path d="M185.246 52.48C184.988 52.1493 184.772 51.7836 184.6 51.392C184.386 51.028 184.216 50.6355 184.093 50.224C184.348 50.5562 184.563 50.9217 184.735 51.312C184.949 51.6772 185.12 52.0694 185.246 52.48Z" fill="#263238"/>
<path d="M195.249 129.498C195.249 129.546 158.136 129.581 112.364 129.581C66.5925 129.581 29.4712 129.546 29.4712 129.498C29.4712 129.45 66.5779 129.414 112.364 129.414C158.151 129.414 195.249 129.453 195.249 129.498Z" fill="#263238"/>
<path d="M147.063 89.6704C147.063 89.6704 147.324 86.6336 147.588 86.6592C147.852 86.6848 147.896 87.2224 147.863 87.4848C147.831 87.7472 147.863 88.7648 147.863 88.7648L147.063 89.6704Z" fill="#FFBE9D"/>
<path d="M170.949 87.184L169.614 97.424L175.774 126.781L158.761 128.266L166.094 80.9888C166.094 80.9888 170.934 80.3904 170.949 87.184Z" fill="#263238"/>
<path d="M150.031 138.861L149.049 150.976H153.246L155.097 138.861H150.031Z" fill="#FFBE9D"/>
<path d="M149.049 150.976C149.049 150.976 146.215 151.376 145.71 151.773L153.135 151.677L153.246 150.976H149.049Z" fill="#FFBE9D"/>
<path d="M145.71 151.776V152.099L153.355 152.01V151.661L145.71 151.776Z" fill="#FF2C2C"/>
<path d="M148.427 151.962C148.386 151.981 148.265 151.731 148.019 151.536C147.773 151.341 147.523 151.28 147.529 151.235C147.535 151.19 147.822 151.178 148.116 151.408C148.409 151.638 148.453 151.952 148.427 151.962Z" fill="#FF2C2C"/>
<path d="M153.343 150.736C153.343 150.781 152.833 150.893 152.252 151.194C151.671 151.494 151.26 151.834 151.231 151.811C151.487 151.473 151.817 151.21 152.19 151.046C152.544 150.837 152.941 150.73 153.343 150.736Z" fill="#FF2C2C"/>
<path d="M153.17 150.538C151.792 150.571 150.414 150.495 149.046 150.31C149.73 150.269 150.416 150.281 151.099 150.346C151.793 150.355 152.485 150.419 153.17 150.538Z" fill="#FF2C2C"/>
<path d="M153.663 148.944C152.916 149.176 152.157 149.355 151.389 149.478C150.631 149.656 149.863 149.783 149.09 149.856C149.836 149.626 150.596 149.448 151.363 149.322C152.122 149.144 152.89 149.018 153.663 148.944Z" fill="#FF2C2C"/>
<path d="M153.589 149.002C153.398 149.004 153.208 148.96 153.035 148.87C152.841 148.787 152.656 148.679 152.483 148.55C152.38 148.476 152.282 148.394 152.19 148.304C152.133 148.25 152.089 148.182 152.061 148.106C152.046 148.061 152.04 148.013 152.044 147.965C152.048 147.917 152.062 147.871 152.084 147.83C152.111 147.789 152.147 147.757 152.188 147.736C152.23 147.716 152.277 147.709 152.322 147.715C152.393 147.726 152.462 147.748 152.527 147.779C152.643 147.831 152.752 147.898 152.853 147.978C153.025 148.11 153.173 148.277 153.287 148.47C153.405 148.638 153.474 148.841 153.484 149.053C153.46 149.053 153.404 148.829 153.19 148.534C153.073 148.364 152.929 148.216 152.765 148.099C152.674 148.029 152.575 147.971 152.472 147.926C152.363 147.872 152.24 147.85 152.208 147.926C152.191 147.975 152.19 148.029 152.205 148.078C152.219 148.128 152.25 148.17 152.29 148.198C152.375 148.285 152.464 148.366 152.557 148.442C152.719 148.564 152.891 148.671 153.07 148.762C153.384 148.922 153.592 148.976 153.589 149.002Z" fill="#FF2C2C"/>
<path d="M153.551 149.12C153.46 148.937 153.423 148.728 153.446 148.522C153.455 148.302 153.498 148.085 153.575 147.882C153.621 147.758 153.68 147.641 153.751 147.533C153.788 147.473 153.829 147.417 153.874 147.363C153.9 147.327 153.934 147.298 153.972 147.278C154.01 147.257 154.051 147.246 154.094 147.245C154.139 147.248 154.182 147.264 154.219 147.291C154.256 147.319 154.286 147.357 154.305 147.402C154.337 147.475 154.351 147.557 154.346 147.638C154.341 147.773 154.321 147.906 154.287 148.035C154.227 148.253 154.127 148.455 153.994 148.63C153.887 148.802 153.733 148.933 153.554 149.005C153.554 148.982 153.721 148.858 153.909 148.563C154.018 148.391 154.097 148.199 154.144 147.997C154.173 147.879 154.189 147.757 154.191 147.635C154.191 147.514 154.147 147.405 154.079 147.405C154.012 147.405 153.924 147.526 153.856 147.622C153.79 147.723 153.733 147.83 153.686 147.942C153.608 148.134 153.557 148.338 153.536 148.547C153.516 148.88 153.575 149.12 153.551 149.12Z" fill="#FF2C2C"/>
<path d="M154.114 151.002C153.921 150.729 153.782 150.415 153.707 150.08C153.585 149.753 153.53 149.402 153.545 149.05C153.671 149.365 153.769 149.693 153.839 150.029C153.956 150.344 154.048 150.669 154.114 151.002Z" fill="#FF2C2C"/>
<path d="M154.616 150.573C154.041 150.195 153.614 149.599 153.416 148.899C153.457 148.877 153.66 149.299 154.003 149.757C154.346 150.214 154.642 150.534 154.616 150.573Z" fill="#FF2C2C"/>
<path d="M165.698 139.853L174.299 147.29L176.343 144.026L168.655 134.896L165.698 139.853Z" fill="#FFBE9D"/>
<path d="M173.691 147.472C173.691 147.472 172.368 150.234 172.38 150.915L176.557 144.221L176.097 143.718L173.691 147.472Z" fill="#FFBE9D"/>
<path d="M172.38 150.915L172.624 151.101L176.933 144.214L176.672 144.013L172.38 150.915Z" fill="#FF2C2C"/>
<path d="M174.067 148.605C174.067 148.65 173.803 148.605 173.515 148.726C173.228 148.848 173.04 149.021 173.008 148.992C172.976 148.963 173.137 148.694 173.468 148.573C173.8 148.451 174.084 148.566 174.067 148.605Z" fill="#FF2C2C"/>
<path d="M175.968 143.494C176.009 143.514 175.795 144.042 175.689 144.733C175.583 145.424 175.613 145.994 175.569 146.013C175.399 145.153 175.542 144.254 175.968 143.507V143.494Z" fill="#FF2C2C"/>
<path d="M175.733 143.318C175.411 143.902 175.047 144.457 174.645 144.979C174.279 145.535 173.875 146.059 173.436 146.547C173.759 145.962 174.124 145.406 174.527 144.883C174.89 144.327 175.293 143.804 175.733 143.318Z" fill="#FF2C2C"/>
<path d="M174.809 142.182C174.59 142.892 174.327 143.583 174.02 144.253C173.758 144.943 173.45 145.611 173.099 146.253C173.318 145.545 173.582 144.854 173.888 144.186C174.149 143.494 174.457 142.824 174.809 142.182Z" fill="#FF2C2C"/>
<path d="M174.806 142.282C174.821 142.282 174.683 142.483 174.39 142.704C174.219 142.834 174.035 142.941 173.841 143.024C173.727 143.075 173.609 143.115 173.489 143.146C173.416 143.163 173.34 143.163 173.266 143.146C173.224 143.133 173.184 143.111 173.151 143.08C173.117 143.049 173.09 143.01 173.073 142.966C173.057 142.919 173.053 142.869 173.062 142.82C173.071 142.771 173.092 142.725 173.122 142.688C173.17 142.631 173.226 142.581 173.287 142.541C173.572 142.344 173.905 142.244 174.243 142.256C174.437 142.245 174.628 142.301 174.791 142.416C174.791 142.442 174.58 142.358 174.243 142.371C173.93 142.38 173.625 142.484 173.363 142.672C173.26 142.739 173.172 142.838 173.205 142.906C173.231 142.949 173.271 142.981 173.317 142.996C173.363 143.011 173.412 143.009 173.457 142.989C173.57 142.962 173.682 142.928 173.791 142.886C173.979 142.814 174.16 142.724 174.334 142.618C174.63 142.419 174.791 142.262 174.806 142.282Z" fill="#FF2C2C"/>
<path d="M174.868 142.378C174.678 142.354 174.5 142.267 174.357 142.128C174.192 141.994 174.051 141.828 173.941 141.638C173.874 141.526 173.82 141.406 173.779 141.28C173.756 141.214 173.737 141.145 173.724 141.075C173.712 141.031 173.708 140.984 173.715 140.938C173.721 140.892 173.736 140.848 173.759 140.81C173.788 140.772 173.825 140.742 173.867 140.725C173.909 140.708 173.955 140.703 173.999 140.71C174.072 140.725 174.141 140.759 174.199 140.81C174.297 140.892 174.385 140.986 174.463 141.091C174.596 141.265 174.696 141.466 174.756 141.683C174.823 141.878 174.834 142.09 174.786 142.291C174.751 142.099 174.708 141.909 174.657 141.722C174.588 141.525 174.489 141.343 174.363 141.184C174.29 141.093 174.208 141.01 174.12 140.938C174.035 140.861 173.92 140.845 173.879 140.906C173.838 140.966 173.879 141.114 173.917 141.226C173.954 141.337 174.001 141.444 174.058 141.546C174.157 141.726 174.282 141.888 174.428 142.026C174.674 142.278 174.877 142.352 174.868 142.378Z" fill="#FF2C2C"/>
<path d="M176.613 142.957C176.29 142.978 175.967 142.924 175.666 142.797C175.346 142.719 175.046 142.567 174.786 142.352C175.395 142.538 176.001 142.74 176.601 142.957H176.613Z" fill="#FF2C2C"/>
<path d="M176.587 142.262C176.291 142.434 175.96 142.521 175.625 142.515C175.291 142.562 174.953 142.514 174.642 142.374C174.642 142.33 175.085 142.374 175.616 142.355C176.147 142.336 176.563 142.214 176.587 142.262Z" fill="#FF2C2C"/>
<path d="M157.409 103.302C157.409 103.302 154.123 127.107 154.601 128.262C155.08 129.418 165.716 141.296 165.716 141.296L169.708 133.837C169.708 133.837 162.668 125.328 162.771 124.877C162.873 124.426 167.845 101.386 167.845 101.386L157.409 103.302Z" fill="#FF2C2C"/>
<path d="M158.165 132.762L160.97 126.042L164.196 118.496C162.233 121.593 160.563 124.898 159.21 128.362C158.684 129.771 158.333 131.251 158.165 132.762Z" fill="#FF2C2C"/>
<path opacity="0.4" d="M158.165 132.762L160.97 126.042L164.196 118.496C162.233 121.593 160.563 124.898 159.21 128.362C158.684 129.771 158.333 131.251 158.165 132.762Z" fill="black"/>
<path d="M156.241 112.09C156.273 111.837 158.922 105.338 158.922 105.338L157.634 103.36L157.409 103.306L156.241 112.09Z" fill="#FF2C2C"/>
<path opacity="0.4" d="M156.241 112.09C156.273 111.837 158.922 105.338 158.922 105.338L157.634 103.36L157.409 103.306L156.241 112.09Z" fill="black"/>
<path d="M169.711 101.062L169.907 101.946C170.495 104.55 170.137 107.302 168.907 109.626L160.002 126.467C159.369 127.663 158.909 128.959 158.638 130.307L156.42 141.187C156.42 141.187 149.418 141.446 149.116 141.187C148.814 140.928 150.019 133.725 150.823 128.269C151.43 124.154 156.476 111.382 158.922 105.35L157.409 103.315L160.049 102.838L169.711 101.062Z" fill="#FF2C2C"/>
<path d="M156.42 141.174C156.324 141.205 156.226 141.222 156.127 141.226C155.939 141.248 155.672 141.274 155.338 141.296C154.672 141.344 153.748 141.379 152.73 141.376C151.712 141.373 150.788 141.341 150.122 141.302C149.788 141.286 149.518 141.267 149.333 141.251C149.234 141.254 149.135 141.24 149.04 141.21C149.136 141.191 149.235 141.184 149.333 141.19H150.122L152.727 141.216C153.745 141.216 154.663 141.2 155.329 141.184L156.121 141.162C156.22 141.149 156.321 141.154 156.42 141.174Z" fill="#263238"/>
<path d="M156.804 139.13C156.804 139.174 155.121 139.203 153.047 139.194C150.973 139.184 149.286 139.142 149.286 139.101C149.286 139.059 150.97 139.027 153.047 139.034C155.123 139.04 156.804 139.085 156.804 139.13Z" fill="#263238"/>
<path d="M168.485 132.294C168.447 132.401 168.397 132.502 168.335 132.595L167.881 133.382L166.373 135.971L164.871 138.563L164.41 139.347C164.359 139.447 164.296 139.54 164.223 139.622C164.257 139.51 164.303 139.403 164.361 139.302C164.457 139.11 164.601 138.832 164.78 138.493C165.144 137.814 165.66 136.893 166.247 135.872C166.833 134.851 167.388 133.952 167.795 133.312C168.001 132.992 168.168 132.73 168.288 132.55C168.344 132.457 168.41 132.371 168.485 132.294Z" fill="#263238"/>
<path d="M165.296 140.653C165.138 140.339 165.024 140.002 164.956 139.651C164.841 139.317 164.774 138.965 164.756 138.608C164.914 138.921 165.029 139.257 165.097 139.606C165.211 139.942 165.278 140.295 165.296 140.653Z" fill="#263238"/>
<path d="M165.918 140.63C165.76 140.084 165.649 139.523 165.587 138.954C165.477 138.394 165.416 137.824 165.405 137.251C165.671 138.358 165.843 139.489 165.918 140.63Z" fill="#263238"/>
<path d="M166.731 139.366C166.575 138.89 166.452 138.401 166.364 137.904C166.228 137.42 166.13 136.925 166.071 136.422C166.27 136.882 166.416 137.367 166.505 137.866C166.64 138.353 166.716 138.857 166.731 139.366Z" fill="#263238"/>
<path d="M167.423 137.616C167.264 137.161 167.153 136.687 167.092 136.205C166.98 135.732 166.917 135.247 166.904 134.758C167.059 135.216 167.17 135.69 167.235 136.173C167.345 136.645 167.408 137.129 167.423 137.616Z" fill="#263238"/>
<path d="M168.318 136.166C168.185 135.709 168.081 135.243 168.004 134.771C167.877 134.311 167.779 133.841 167.71 133.366C167.915 133.797 168.058 134.259 168.136 134.736C168.263 135.2 168.325 135.682 168.318 136.166Z" fill="#263238"/>
<path d="M169.116 134.938C168.956 134.578 168.844 134.195 168.781 133.802C168.669 133.42 168.604 133.024 168.588 132.624C168.856 133.366 169.034 134.144 169.116 134.938Z" fill="#263238"/>
<path d="M152.774 139.05C152.211 139.429 151.631 139.777 151.034 140.09C150.464 140.452 149.876 140.782 149.274 141.078C149.419 140.934 149.579 140.81 149.753 140.71C150.046 140.502 150.489 140.23 150.976 139.949C151.463 139.667 151.911 139.434 152.24 139.274C152.408 139.174 152.588 139.099 152.774 139.05Z" fill="#263238"/>
<path d="M154.933 139.085C154.763 139.238 154.578 139.37 154.381 139.478C154.029 139.699 153.539 139.99 152.985 140.291C152.431 140.592 151.917 140.838 151.542 141.008C151.345 141.115 151.137 141.195 150.923 141.248C151.106 141.11 151.303 140.995 151.51 140.906L152.926 140.147L154.34 139.379C154.528 139.258 154.726 139.159 154.933 139.085Z" fill="#263238"/>
<path d="M156.575 139.085C156.157 139.546 155.697 139.96 155.203 140.32C154.736 140.721 154.234 141.072 153.704 141.366C154.15 140.941 154.621 140.547 155.115 140.189C155.581 139.789 156.068 139.42 156.575 139.085Z" fill="#263238"/>
<path d="M156.754 140.211C156.781 140.246 156.508 140.531 156.144 140.826C155.939 141.032 155.702 141.197 155.443 141.312C155.613 141.07 155.821 140.862 156.056 140.698C156.261 140.492 156.498 140.328 156.754 140.211Z" fill="#263238"/>
<path d="M150.858 139.011C150.586 139.281 150.282 139.51 149.955 139.693C149.651 139.921 149.321 140.104 148.972 140.237C149.548 139.739 150.183 139.327 150.858 139.011Z" fill="#263238"/>
<path d="M158.729 105.28C158.627 105.644 158.502 106 158.356 106.346C158.115 106.986 157.769 107.898 157.423 108.906C157.077 109.914 156.757 110.826 156.543 111.466C156.436 111.827 156.306 112.179 156.156 112.522C156.166 112.42 156.186 112.32 156.218 112.224C156.267 112.035 156.344 111.763 156.443 111.427C156.643 110.758 156.939 109.827 157.294 108.838C157.649 107.85 158.004 106.941 158.271 106.301C158.406 105.981 158.517 105.725 158.599 105.549C158.632 105.454 158.675 105.363 158.729 105.28Z" fill="#263238"/>
<path d="M157.998 133.523C157.992 133.46 157.992 133.397 157.998 133.334C158.013 133.194 158.036 133.014 158.06 132.797C158.083 132.579 158.124 132.278 158.192 131.949C158.259 131.619 158.312 131.245 158.418 130.838C158.468 130.637 158.52 130.422 158.573 130.198C158.626 129.974 158.702 129.75 158.77 129.514C158.899 129.04 159.078 128.554 159.254 128.022C159.666 126.9 160.134 125.803 160.656 124.736C161.621 122.811 162.685 120.948 163.844 119.155C164.281 118.464 164.645 117.91 164.9 117.53L165.194 117.094C165.227 117.042 165.264 116.993 165.305 116.947C165.283 117.006 165.254 117.062 165.22 117.114C165.147 117.229 165.059 117.379 164.947 117.565L163.929 119.219C163.093 120.618 161.92 122.56 160.797 124.8C160.278 125.861 159.809 126.951 159.392 128.064C159.213 128.582 159.028 129.072 158.896 129.542C158.825 129.779 158.752 130.003 158.693 130.221C158.635 130.438 158.582 130.653 158.532 130.861C158.421 131.264 158.353 131.638 158.283 131.962C158.212 132.285 158.162 132.57 158.127 132.8C158.092 133.03 158.063 133.194 158.039 133.331C158.032 133.397 158.018 133.461 157.998 133.523Z" fill="#263238"/>
<path d="M166.731 81.0144L159.84 81.6544C159.84 81.6544 157.787 81.7056 155.534 87.4144L153.915 93.0784L156.828 93.7568V94.0768L157.414 103.302L169.84 101.12C169.866 99.9488 169.253 98.24 168.805 96.64C169.271 95.376 171.233 89.8592 171.23 87.2032C171.23 81.5232 166.728 81.0336 166.728 81.0336" fill="white"/>
<path d="M169.708 133.83C169.679 133.942 169.636 134.05 169.582 134.15C169.491 134.346 169.356 134.624 169.183 134.966C168.837 135.651 168.338 136.586 167.775 137.606L166.32 140.208L165.88 141.002C165.833 141.102 165.773 141.196 165.704 141.28C165.733 141.168 165.776 141.06 165.83 140.96C165.921 140.765 166.056 140.486 166.229 140.144C166.575 139.459 167.074 138.525 167.637 137.504L169.08 134.893L169.52 134.102C169.573 134.004 169.636 133.913 169.708 133.83Z" fill="#263238"/>
<path d="M168.08 94.5792C167.776 94.7398 167.446 94.8344 167.109 94.8576C166.779 94.9295 166.439 94.9295 166.109 94.8576C166.431 94.7666 166.76 94.7098 167.092 94.688C167.417 94.6175 167.748 94.5811 168.08 94.5792Z" fill="white"/>
<path d="M157.438 94.128L157.297 104.141L161.022 81.3376C159.785 81.0976 157.476 82.16 156.608 83.5072C155.986 84.3136 155.646 86.1696 153.915 91.7568L152.853 95.5488L148.547 90.4064L145.646 93.2672C145.646 93.2672 150.65 102.186 152.742 102.678C155.587 103.35 157.435 94.128 157.435 94.128" fill="#455A64"/>
<path d="M158.033 84.864C158.035 84.9954 158.023 85.1265 157.995 85.2544C157.957 85.536 157.907 85.8944 157.846 86.3072C157.719 87.1968 157.552 88.4256 157.397 89.7888C157.241 91.152 157.133 92.3904 157.057 93.2864C157.021 93.7088 156.992 94.064 156.966 94.3456C156.964 94.4775 156.947 94.6086 156.916 94.736C156.904 94.6051 156.904 94.4733 156.916 94.3424C156.916 94.0896 156.936 93.728 156.96 93.2768C157.007 92.3776 157.103 91.136 157.253 89.7568C157.403 88.3776 157.593 87.1616 157.746 86.2752C157.825 85.8336 157.893 85.4752 157.942 85.2288C157.962 85.1044 157.993 84.9823 158.033 84.864Z" fill="#263238"/>
<path d="M157.068 84.4256C157.054 84.3808 157.631 84.1056 158.289 83.6704C158.946 83.2352 159.424 82.7872 159.462 82.8224C158.821 83.5903 157.994 84.145 157.077 84.4224L157.068 84.4256Z" fill="white"/>
<path d="M155.877 91.0272C155.729 90.6566 155.608 90.2735 155.517 89.8816C155.379 89.5068 155.269 89.1205 155.188 88.7264C155.58 89.4236 155.817 90.2118 155.877 91.0272Z" fill="white"/>
<path d="M158.899 87.424C158.939 87.87 158.91 88.3202 158.811 88.7552C158.76 89.2016 158.638 89.6349 158.45 90.0352C158.498 89.5967 158.57 89.1617 158.667 88.7328C158.719 88.2917 158.796 87.8545 158.899 87.424Z" fill="white"/>
<path d="M154.707 96.1536C154.709 96.5471 154.679 96.94 154.619 97.328C154.604 97.7229 154.559 98.1157 154.484 98.5024C154.393 97.7112 154.469 96.9077 154.707 96.1536Z" fill="white"/>
<path d="M149.201 96.0736C148.881 95.6943 148.618 95.2623 148.421 94.7936C148.181 94.3488 148.005 93.8663 147.899 93.3632C148.139 93.802 148.356 94.255 148.55 94.72C148.789 95.1583 149.006 95.6101 149.201 96.0736Z" fill="white"/>
<path d="M152.352 96.32C152.12 96.5601 151.847 96.7463 151.548 96.8672C151.267 97.0365 150.958 97.14 150.638 97.1712C150.906 96.9906 151.19 96.8405 151.486 96.7232C151.761 96.5573 152.051 96.4222 152.352 96.32Z" fill="white"/>
<path d="M167.27 99.4816L169.426 127.44L175.921 126.771L169.755 97.4144L170.509 89.5328L167.27 99.4816Z" fill="#455A64"/>
<path d="M169.426 127.44C169.388 127.44 168.91 121.242 168.362 113.587C167.813 105.933 167.405 99.728 167.444 99.7248C167.482 99.7216 167.963 105.92 168.508 113.574C169.054 121.229 169.468 127.437 169.426 127.44Z" fill="#263238"/>
<path d="M168.802 100.128C168.846 99.8066 168.938 99.4953 169.074 99.2064C169.169 98.8986 169.307 98.6092 169.485 98.3488C169.351 98.9797 169.12 99.5813 168.802 100.128Z" fill="white"/>
<path d="M170.594 104.288C170.559 104.317 170.236 103.907 169.781 103.469C169.491 103.222 169.212 102.959 168.945 102.682C169.297 102.829 169.617 103.057 169.881 103.35C170.176 103.605 170.419 103.924 170.594 104.288Z" fill="white"/>
<path d="M170.198 109.898C170.315 109.569 170.452 109.248 170.606 108.938C170.715 108.602 170.843 108.274 170.99 107.955C170.982 108.321 170.896 108.679 170.738 109.002C170.625 109.342 170.44 109.649 170.198 109.898Z" fill="white"/>
<path d="M171.6 114.4C170.972 113.951 170.402 113.413 169.905 112.8C170.226 113.004 170.522 113.253 170.785 113.539C171.089 113.786 171.364 114.076 171.6 114.4Z" fill="white"/>
<path d="M172.773 117.491C172.681 116.593 172.687 115.687 172.791 114.79C172.858 115.237 172.88 115.689 172.855 116.141C172.876 116.593 172.849 117.046 172.773 117.491Z" fill="white"/>
<path d="M170.691 119.59C170.608 119.239 170.556 118.88 170.535 118.518C170.469 118.163 170.433 117.802 170.427 117.44C170.578 117.77 170.669 118.128 170.694 118.496C170.759 118.857 170.758 119.229 170.691 119.59Z" fill="white"/>
<path d="M172.841 122.266C172.218 122.272 171.599 122.171 171.005 121.968C171.316 121.938 171.63 121.961 171.934 122.038C172.245 122.063 172.551 122.139 172.841 122.266Z" fill="white"/>
<path d="M172.48 125.824C172.789 125.129 173.184 124.483 173.653 123.904C173.523 124.265 173.347 124.604 173.131 124.912C172.952 125.246 172.733 125.553 172.48 125.824Z" fill="white"/>
<path d="M157.702 102.874L146.793 86.6624C147.439 86.1192 148.045 85.5199 148.603 84.8704C150.929 82.154 152.34 78.6559 152.604 74.9498C152.868 71.2438 151.969 67.5498 150.056 64.4739C148.143 61.3981 145.328 59.1229 142.073 58.0216C138.819 56.9204 135.318 57.0584 132.145 58.4131C128.972 59.7679 126.315 62.2588 124.61 65.4774C122.905 68.6959 122.254 72.451 122.762 76.1266C123.271 79.8022 124.91 83.1801 127.41 85.7061C129.909 88.2322 133.122 89.7564 136.52 90.0288C137.056 90.0716 137.594 90.0823 138.131 90.0608C140.315 89.9876 142.457 89.3934 144.408 88.32L155.429 104.698C155.651 105.025 155.984 105.242 156.353 105.302C156.723 105.362 157.099 105.26 157.4 105.018C157.699 104.776 157.899 104.415 157.956 104.014C158.012 103.612 157.921 103.202 157.702 102.874ZM138.049 86.9888C137.612 87.0044 137.176 86.9959 136.74 86.9632C133.621 86.7179 130.707 85.1762 128.599 82.6559C126.491 80.1357 125.351 76.8291 125.412 73.4181C125.473 70.0071 126.732 66.7519 128.929 64.3237C131.126 61.8956 134.093 60.4797 137.218 60.368C137.66 60.3519 138.101 60.3615 138.541 60.3968C141.656 60.6507 144.562 62.1969 146.664 64.7174C148.765 67.238 149.901 70.5411 149.838 73.9474C149.774 77.3536 148.517 80.604 146.324 83.0298C144.131 85.4556 141.17 86.8724 138.049 86.9888Z" fill="#55595B"/>
<path d="M153.369 94.0576L152.076 98.88C152.076 98.88 158.846 101.565 162.512 101.514C165.947 101.469 166.93 101.043 168.139 98.0192C169.347 94.9952 170.72 91.52 171.013 89.5072C171.013 89.5072 172.952 80.2944 165.554 81.1168L165.349 88.32C165.349 88.32 164.531 91.2736 164.469 91.4464C163.918 93.0464 163.202 95.3728 162.51 95.6544C161.817 95.936 153.369 94.0576 153.369 94.0576Z" fill="#455A64"/>
<path d="M163.994 97.92C163.449 97.2214 163.022 96.4229 162.733 95.5616C162.983 95.9261 163.204 96.3137 163.393 96.72C163.623 97.1012 163.824 97.5026 163.994 97.92Z" fill="#263238"/>
<path d="M164.686 97.1616C164.333 96.9627 164.003 96.7177 163.703 96.432C163.378 96.1877 163.083 95.8995 162.823 95.5744C163.176 95.7747 163.506 96.0196 163.806 96.304C164.131 96.5483 164.427 96.8365 164.686 97.1616Z" fill="#263238"/>
<path d="M166.986 84.0224C166.771 84.7921 166.51 85.5457 166.206 86.2784C165.946 87.0313 165.642 87.7647 165.293 88.4736C165.506 87.7035 165.766 86.9498 166.071 86.2176C166.33 85.4642 166.636 84.7308 166.986 84.0224Z" fill="#263238"/>
<path d="M170.72 90.88C170.701 91.0063 170.668 91.1298 170.623 91.248C170.541 91.5104 170.438 91.84 170.33 92.2272C170.06 93.0528 169.682 94.192 169.236 95.4272C168.79 96.6624 168.356 97.7856 167.998 98.576C167.825 98.9728 167.678 99.2896 167.57 99.504C167.522 99.6179 167.462 99.7252 167.391 99.824C167.422 99.7009 167.465 99.5819 167.52 99.4688C167.622 99.216 167.749 98.896 167.901 98.5088C168.224 97.7056 168.649 96.5888 169.098 95.3472C169.547 94.1056 169.931 93.0048 170.23 92.1472C170.377 91.7408 170.5 91.4112 170.585 91.1872C170.621 91.0805 170.667 90.9777 170.72 90.88Z" fill="#263238"/>
<path d="M159.84 95.4432C159.84 95.488 158.374 95.232 156.549 94.8736C154.724 94.5152 153.275 94.1888 153.284 94.1472C153.293 94.1056 154.751 94.3584 156.575 94.7168C158.4 95.0752 159.849 95.4016 159.84 95.4432Z" fill="#263238"/>
<path d="M167.517 91.0464C167.428 90.1812 167.439 89.3071 167.549 88.4448C167.616 88.8749 167.634 89.3122 167.605 89.7472C167.624 90.1826 167.595 90.6189 167.517 91.0464Z" fill="white"/>
<path d="M164.88 99.904C164.988 99.5688 165.118 99.2426 165.27 98.928C165.378 98.592 165.507 98.2648 165.657 97.9488C165.646 98.3128 165.56 98.6693 165.405 98.992C165.293 99.3345 165.114 99.6459 164.88 99.904Z" fill="white"/>
<path d="M161.298 99.6544C160.896 98.916 160.515 98.1636 160.157 97.3984C160.438 97.7083 160.669 98.0674 160.841 98.4608C161.054 98.8276 161.209 99.2312 161.298 99.6544Z" fill="white"/>
<path d="M156.347 97.1616C156.05 97.3762 155.727 97.5453 155.387 97.664C155.066 97.8302 154.726 97.9486 154.375 98.016C154.673 97.8013 154.995 97.6323 155.335 97.5136C155.656 97.3469 155.996 97.2285 156.347 97.1616Z" fill="white"/>
<path d="M170.236 85.856C170.204 85.8848 169.878 85.536 169.409 85.1712C168.94 84.8064 168.511 84.6176 168.529 84.5728C168.88 84.6399 169.21 84.8004 169.491 85.04C169.798 85.2398 170.054 85.5203 170.236 85.856Z" fill="white"/>
<path d="M168.124 93.8112C167.373 94.106 166.572 94.2153 165.777 94.1312C166.164 94.0398 166.556 93.981 166.951 93.9552C167.338 93.8761 167.73 93.828 168.124 93.8112Z" fill="white"/>
<path d="M167.429 69.1424C167.627 68.7496 167.942 68.4422 168.321 68.2711C168.701 68.1 169.123 68.0755 169.517 68.2016C169.908 68.3415 170.261 68.5817 170.549 68.9019C170.836 69.2221 171.049 69.613 171.169 70.0416C171.4 70.9046 171.416 71.8196 171.213 72.6912C171.084 73.3312 170.919 74.0704 171.301 74.5632C171.682 75.056 172.333 75.0112 172.753 75.408C172.856 75.5072 172.94 75.6285 172.999 75.7645C173.058 75.9004 173.09 76.0481 173.094 76.1983C173.099 76.3485 173.075 76.4981 173.024 76.6377C172.973 76.7774 172.896 76.9042 172.799 77.0103C172.701 77.1163 172.585 77.1994 172.456 77.2543C172.328 77.3092 172.191 77.3348 172.053 77.3294C171.915 77.3241 171.78 77.288 171.656 77.2234C171.532 77.1587 171.421 77.0669 171.33 76.9536C171.33 77.3984 171.553 77.8048 171.679 78.2336C171.805 78.6624 171.823 79.1936 171.512 79.4784C171.389 79.5756 171.244 79.6352 171.092 79.6509C170.94 79.6667 170.788 79.638 170.65 79.568C170.374 79.4254 170.124 79.2291 169.913 78.9888C170.057 79.4483 170.057 79.9469 169.913 80.4064C169.836 80.6331 169.706 80.834 169.536 80.9899C169.367 81.1457 169.163 81.2512 168.945 81.296C168.669 81.3183 168.393 81.25 168.153 81.1001C167.912 80.9502 167.719 80.7253 167.596 80.4544C167.36 79.9069 167.272 79.2977 167.341 78.6976C167.402 77.7632 167.634 76.848 167.728 75.92C167.879 74.9899 167.768 74.0317 167.411 73.1712" fill="#FF2C2C"/>
<path d="M172.401 74.5984C172.401 74.5984 172.366 74.6208 172.289 74.5984C172.235 74.5886 172.183 74.565 172.138 74.5294C172.093 74.4939 172.057 74.4473 172.031 74.3936C171.99 74.3045 171.979 74.2021 172.001 74.1052C172.023 74.0082 172.077 73.9232 172.151 73.8656C172.248 73.7853 172.367 73.7454 172.489 73.7531C172.61 73.7607 172.724 73.8154 172.811 73.9072C172.914 74.016 172.987 74.1539 173.022 74.3054C173.057 74.457 173.052 74.6161 173.008 74.7648C172.97 74.9341 172.887 75.0875 172.77 75.2064C172.642 75.3325 172.477 75.406 172.304 75.4144C172.127 75.4267 171.95 75.3845 171.794 75.2928C171.632 75.1938 171.498 75.0503 171.403 74.8768C171.218 74.515 171.152 74.0949 171.216 73.6864C171.324 72.864 171.688 72.176 171.679 71.4848C171.688 70.8747 171.535 70.2748 171.239 69.7568C171.04 69.4056 170.781 69.0993 170.477 68.8544C170.259 68.6816 170.122 68.6176 170.13 68.6016C170.139 68.5856 170.166 68.6016 170.233 68.6432C170.329 68.6882 170.421 68.7417 170.509 68.8032C170.836 69.0355 171.114 69.3396 171.327 69.696C171.647 70.2281 171.817 70.8514 171.814 71.488C171.814 72.2208 171.459 72.9312 171.359 73.7088C171.301 74.0806 171.36 74.4631 171.527 74.7936C171.602 74.9424 171.714 75.0655 171.849 75.1491C171.985 75.2327 172.139 75.2736 172.295 75.2672C172.433 75.2582 172.564 75.2011 172.67 75.1042C172.776 75.0074 172.85 74.8761 172.882 74.7296C172.922 74.6033 172.929 74.4674 172.903 74.3369C172.876 74.2065 172.817 74.0865 172.732 73.9904C172.663 73.9131 172.57 73.8653 172.472 73.8553C172.373 73.8454 172.274 73.8739 172.193 73.936C172.13 73.9811 172.084 74.0485 172.062 74.1268C172.04 74.2051 172.044 74.2892 172.072 74.3648C172.093 74.4129 172.123 74.4558 172.16 74.4905C172.197 74.5253 172.24 74.5511 172.286 74.5664C172.36 74.5984 172.398 74.5888 172.401 74.5984Z" fill="#FF2C2C"/>
<path d="M165.613 81.296L166.006 71.5296L162.451 68.592L159.224 70.3168C159.224 70.3168 159.116 74.7424 159.224 76.6624C159.333 78.5824 161.107 78.7872 161.107 78.7872C161.107 78.7872 161.066 79.9104 161.025 81.0944C161.014 81.4335 161.065 81.7716 161.177 82.0883C161.289 82.405 161.458 82.6936 161.675 82.9368C161.892 83.18 162.152 83.3727 162.439 83.5032C162.726 83.6337 163.035 83.6993 163.346 83.696C163.933 83.6876 164.495 83.4343 164.917 82.988C165.339 82.5417 165.588 81.9363 165.613 81.296Z" fill="#FFBE9D"/>
<path d="M159.573 73.5424C159.573 73.5912 159.587 73.6388 159.611 73.6793C159.636 73.7198 159.672 73.7514 159.713 73.7701C159.754 73.7887 159.799 73.7936 159.843 73.7841C159.887 73.7746 159.927 73.7511 159.959 73.7167C159.991 73.6822 160.012 73.6383 160.021 73.5905C160.029 73.5427 160.025 73.4932 160.008 73.4481C159.991 73.4031 159.962 73.3646 159.925 73.3375C159.888 73.3105 159.844 73.296 159.799 73.296C159.74 73.2968 159.683 73.3231 159.64 73.3691C159.598 73.4151 159.574 73.4773 159.573 73.5424Z" fill="#263238"/>
<path d="M159.353 73.28C159.383 73.312 159.547 73.1584 159.79 73.1456C160.034 73.1328 160.216 73.2576 160.239 73.2224C160.263 73.1872 160.222 73.1488 160.142 73.088C160.036 73.0109 159.909 72.9738 159.782 72.9825C159.654 72.9911 159.532 73.045 159.436 73.136C159.362 73.1968 159.339 73.2608 159.353 73.28Z" fill="#263238"/>
<path d="M162.181 73.5424C162.181 73.5912 162.194 73.6388 162.219 73.6793C162.244 73.7198 162.279 73.7514 162.321 73.7701C162.362 73.7887 162.407 73.7936 162.451 73.7841C162.495 73.7746 162.535 73.7511 162.567 73.7167C162.598 73.6822 162.62 73.6383 162.629 73.5905C162.637 73.5427 162.633 73.4932 162.616 73.4481C162.599 73.4031 162.57 73.3646 162.532 73.3375C162.495 73.3105 162.452 73.296 162.407 73.296C162.347 73.296 162.29 73.322 162.247 73.3682C162.205 73.4144 162.181 73.4771 162.181 73.5424Z" fill="#263238"/>
<path d="M162.04 73.28C162.07 73.312 162.237 73.1584 162.477 73.1456C162.718 73.1328 162.903 73.2576 162.929 73.2224C162.955 73.1872 162.911 73.1488 162.829 73.088C162.723 73.0109 162.596 72.9738 162.468 72.9825C162.341 72.9911 162.219 73.045 162.122 73.136C162.049 73.1968 162.026 73.2608 162.04 73.28Z" fill="#263238"/>
<path d="M161.967 75.76C161.597 75.9658 161.202 76.1134 160.794 76.1984C160.883 76.3316 161.011 76.4284 161.156 76.4736C161.302 76.5189 161.457 76.5098 161.597 76.448C161.664 76.4318 161.727 76.4007 161.783 76.3567C161.838 76.3126 161.885 76.2565 161.92 76.192C161.954 76.1274 161.976 76.0557 161.985 75.9814C161.993 75.907 161.987 75.8317 161.967 75.76Z" fill="white"/>
<path d="M161.099 78.7872C161.935 78.7482 162.744 78.4495 163.431 77.9264C163.431 77.9264 162.903 79.3376 161.137 79.2576L161.099 78.7872Z" fill="#EB996E"/>
<path d="M171.125 77.0496C170.902 77.0587 170.682 77.0035 170.485 76.8896C170.195 76.7209 169.955 76.4671 169.79 76.1568C169.588 75.7671 169.414 75.3605 169.271 74.9408C168.942 74.048 168.684 73.2192 168.526 72.6144L168.453 72.3488C168.453 72.2464 168.423 72.1536 168.408 72.0864C167.446 68.0832 164.223 67.3376 163.583 67.3376C162.944 67.3376 161.703 66.928 159.958 68.9056C159.696 69.203 159.474 69.5391 159.298 69.904C158.91 70.4292 158.643 71.0481 158.52 71.7088C158.44 72.0212 158.426 72.3496 158.479 72.6688C158.511 72.6688 158.517 72.3072 158.652 71.7504C158.734 71.4232 158.848 71.1067 158.992 70.8064C158.84 71.5458 158.902 72.3188 159.171 73.0176L159.796 72.8288L162.037 71.9968C161.832 71.2416 162.134 70.3008 162.301 69.8624L162.319 69.8464C162.444 70.6443 162.799 71.378 163.331 71.9417C163.864 72.5054 164.547 72.8699 165.282 72.9824L165.695 79.2704C168.675 78.576 168.605 74.2272 168.587 73.344C168.722 73.84 168.898 74.4128 169.118 75.0112C169.263 75.4421 169.446 75.8568 169.664 76.2496C169.848 76.5801 170.116 76.8449 170.435 77.0112C170.652 77.1216 170.894 77.1605 171.131 77.1232C171.218 77.1146 171.301 77.0803 171.371 77.024C171.289 77.0269 171.206 77.0354 171.125 77.0496Z" fill="#FF2C2C"/>
<path d="M161.166 75.52C161.036 75.4871 160.903 75.4689 160.77 75.4656C160.709 75.4656 160.647 75.4656 160.635 75.4048C160.626 75.3315 160.637 75.2568 160.667 75.1904L160.835 74.6432C160.949 74.2528 161.049 73.8976 161.128 73.6384C161.175 73.5016 161.205 73.3584 161.216 73.2128C161.145 73.3345 161.086 73.4644 161.04 73.6C160.958 73.8528 160.849 74.2048 160.747 74.5952L160.588 75.1456C160.552 75.2318 160.544 75.3288 160.565 75.4208C160.574 75.4444 160.588 75.4653 160.606 75.4819C160.624 75.4986 160.645 75.5105 160.667 75.5168C160.703 75.5213 160.738 75.5213 160.773 75.5168C160.903 75.5362 161.035 75.5372 161.166 75.52Z" fill="#263238"/>
<path d="M166.194 75.4272C166.164 75.1036 166.196 74.7767 166.288 74.4672C166.334 74.3153 166.417 74.1798 166.528 74.075C166.639 73.9702 166.774 73.9001 166.918 73.872C167.089 73.8635 167.257 73.9242 167.389 74.0423C167.521 74.1605 167.608 74.3278 167.634 74.512C167.654 74.6952 167.623 74.8807 167.545 75.0447C167.468 75.2088 167.348 75.3442 167.2 75.4336C167.049 75.5191 166.883 75.5664 166.714 75.5719C166.544 75.5775 166.375 75.5411 166.22 75.4656" fill="#FFBE9D"/>
<path d="M166.704 75.1488C166.704 75.1264 166.801 75.1744 166.924 75.1328C167.002 75.1039 167.069 75.0491 167.116 74.9761C167.164 74.9032 167.189 74.8158 167.188 74.7264C167.195 74.6814 167.193 74.6353 167.183 74.5911C167.172 74.547 167.153 74.5058 167.127 74.4704C167.072 74.4228 167.003 74.3999 166.933 74.4064C166.801 74.4064 166.71 74.4576 166.701 74.4352C166.693 74.4128 166.76 74.3456 166.918 74.2944C166.969 74.2809 167.021 74.2797 167.072 74.2907C167.122 74.3018 167.17 74.3249 167.212 74.3584C167.258 74.4066 167.292 74.4659 167.313 74.5315C167.334 74.5971 167.341 74.6672 167.332 74.736C167.325 74.8681 167.279 74.994 167.2 75.0944C167.134 75.1774 167.042 75.2309 166.942 75.2448C166.772 75.264 166.693 75.1616 166.704 75.1488Z" fill="#EB996E"/>
<path d="M167.232 75.4112C167.232 75.4112 167.364 75.5104 167.364 75.7664C167.358 75.9158 167.299 76.0568 167.2 76.16C167.137 76.2226 167.062 76.2693 166.98 76.2969C166.898 76.3246 166.812 76.3324 166.728 76.32C166.643 76.3025 166.562 76.2647 166.492 76.2094C166.423 76.1541 166.365 76.0826 166.323 76C166.29 75.9334 166.27 75.8603 166.263 75.785C166.257 75.7097 166.264 75.6337 166.285 75.5616C166.358 75.3152 166.508 75.2416 166.514 75.2672C166.519 75.2928 166.42 75.3792 166.385 75.5872C166.367 75.6858 166.378 75.788 166.416 75.8795C166.454 75.9709 166.518 76.0471 166.597 76.0975C166.677 76.1478 166.769 76.1698 166.861 76.1604C166.953 76.1509 167.039 76.1105 167.109 76.0448C167.193 75.9695 167.248 75.8619 167.262 75.744C167.265 75.6321 167.255 75.5203 167.232 75.4112Z" fill="#263238"/>
<path d="M166.2 74.0896C166.134 74.1558 166.058 74.207 165.974 74.24C165.749 74.3469 165.506 74.4014 165.261 74.4C164.895 74.3981 164.534 74.2992 164.211 74.112C163.821 73.8802 163.486 73.5513 163.234 73.152C162.801 72.4143 162.534 71.5756 162.454 70.704C162.413 70.384 162.392 70.1088 162.381 69.9264C162.366 69.8301 162.366 69.7316 162.381 69.6352C162.456 69.9826 162.515 70.334 162.557 70.688C162.665 71.5313 162.937 72.3397 163.354 73.0592C163.591 73.4385 163.903 73.7546 164.267 73.984C164.57 74.1643 164.907 74.2671 165.252 74.2848C165.577 74.2884 165.899 74.222 166.2 74.0896Z" fill="#FF2C2C"/>
<path d="M168.174 71.3376C168.13 71.3376 167.998 70.784 167.655 70.1824C167.312 69.5808 166.907 69.2 166.936 69.1616C167.291 69.3822 167.583 69.707 167.778 70.0992C168.015 70.4628 168.152 70.8922 168.174 71.3376Z" fill="#263238"/>
<path d="M152.208 98.3872H151.172C150.231 98.288 149.706 98.272 149.442 98C149.09 97.632 149.574 97.2736 149.574 97.2736C149.574 97.2736 148.893 97.0176 148.958 96.5664C148.999 96.2464 149.321 96.224 149.321 96.224C149.321 96.224 148.735 95.968 148.603 95.6928C148.441 95.3216 148.864 95.1232 148.864 95.1232C148.045 94.5728 148.122 94.0256 148.309 93.9712C148.497 93.9168 149.137 94.24 149.137 94.24C149.676 94.4064 151.149 94.896 150.603 94.0096C150.058 93.1232 149.946 92.2208 150.069 91.952C150.096 91.8814 150.145 91.8236 150.208 91.7891C150.27 91.7545 150.342 91.7455 150.41 91.7637C150.478 91.7819 150.538 91.826 150.579 91.8881C150.62 91.9503 150.639 92.0263 150.633 92.1024C150.717 92.4513 150.846 92.7853 151.017 93.0944C151.146 93.3434 151.312 93.5681 151.507 93.76C151.738 93.984 151.944 94.1632 152.12 94.3136L153.041 95.2736L152.208 98.3872Z" fill="#FFBE9D"/>
<path d="M145.763 87.1136C145.839 86.8704 146.024 86.6976 146.224 86.8128C146.263 86.8637 146.29 86.925 146.302 86.9907C146.313 87.0563 146.308 87.1241 146.288 87.1872L145.649 89.456L146.253 87.856C146.329 87.6128 146.532 87.4656 146.67 87.5968C146.704 87.6495 146.726 87.7103 146.735 87.7743C146.744 87.8382 146.738 87.9035 146.719 87.9648L146.168 89.8496L146.617 88.672C146.711 88.4032 146.819 88.3296 146.945 88.3904C147.071 88.4512 147.074 88.6464 147.045 88.7552L146.667 90.144C146.749 90.4128 147.03 91.2544 146.758 91.728C146.758 91.7504 146.787 91.8304 146.784 91.856L146.913 92.016L146.08 92.8512C146.08 92.8512 145.297 90.6912 145.147 90.0416C145.055 89.6678 145.071 89.272 145.194 88.9088L145.763 87.1136Z" fill="#FFBE9D"/>
</svg>
